{"accessors":[{"bufferView":0,"componentType":5125,"count":12,"max":[7.0],"min":[0.0],"type":"SCALAR"},{"bufferView":1,"componentType":5126,"count":8,"max":[144.0,863.3300170898438,9.0],"min":[0.0,144.0,0.0],"type":"VEC3"},{"bufferView":2,"componentType":5126,"count":8,"max":[0.0,0.0,-1.0],"min":[0.0,0.0,-1.0],"type":"VEC3"},{"bufferView":3,"componentType":5125,"count":48,"max":[23.0],"min":[0.0],"type":"SCALAR"},{"bufferView":4,"componentType":5126,"count":24,"max":[144.0,863.3300170898438,9.0],"min":[0.0,144.0,0.0],"type":"VEC3"},{"bufferView":5,"componentType":5126,"count":24,"max":[1.0,1.0,0.0],"min":[-1.0,-1.0,-1.0],"type":"VEC3"},{"bufferView":6,"componentType":5126,"count":24,"max":[47.96277618408203,1.0],"min":[-47.96277618408203,-46.96277618408203],"type":"VEC2"},{"bufferView":7,"componentType":5125,"count":138,"max":[79.0],"min":[0.0],"type":"SCALAR"},{"bufferView":8,"componentType":5126,"count":80,"max":[132.0,851.0,57.0],"min":[12.0,156.0,9.0],"type":"VEC3"},{"bufferView":9,"componentType":5126,"count":80,"max":[0.9448135495185852,1.0,1.0],"min":[-0.9448135495185852,-1.0,0.0],"type":"VEC3"}],"asset":{"generator":"SimLab GLTF","version":"2.0"},"bufferViews":[{"buffer":0,"byteLength":48,"target":34963},{"buffer":0,"byteLength":96,"byteOffset":48,"byteStride":12,"target":34962},{"buffer":0,"byteLength":96,"byteOffset":144,"byteStride":12,"target":34962},{"buffer":0,"byteLength":192,"byteOffset":240,"target":34963},{"buffer":0,"byteLength":288,"byteOffset":432,"byteStride":12,"target":34962},{"buffer":0,"byteLength":288,"byteOffset":720,"byteStride":12,"target":34962},{"buffer":0,"byteLength":192,"byteOffset":1008,"byteStride":8,"target":34962},{"buffer":0,"byteLength":552,"byteOffset":1200,"target":34963},{"buffer":0,"byteLength":960,"byteOffset":1752,"byteStride":12,"target":34962},{"buffer":0,"byteLength":960,"byteOffset":2712,"byteStride":12,"target":34962}],"buffers":[{"byteLength":3672,"uri":"swietlik1.bin"}],"extensionsUsed":["KHR_materials_pbrSpecularGlossiness"],"images":[{"mimeType":"image/jpeg","uri":"Textures/Metal_Seamed.jpg"}],"materials":[{"extensions":{"KHR_materials_pbrSpecularGlossiness":{"diffuseFactor":[0.8999999761581421,0.8999999761581421,0.8999999761581421,1.0],"specularFactor":[0.25,0.25,0.25],"glossinessFactor":0.5}},"name":"DefaultMaterial~1","alphaMode":"MASK","doubleSided":true,"pbrMetallicRoughness":{"baseColorFactor":[0.8999999761581421,0.8999999761581421,0.8999999761581421,1.0],"metallicFactor":0.5,"roughnessFactor":0.5}},{"extensions":{"KHR_materials_pbrSpecularGlossiness":{"diffuseFactor":[1.0,1.0,1.0,1.0],"diffuseTexture":{"index":0},"specularFactor":[0.5,0.5,0.5],"glossinessFactor":0.5}},"name":"[Metal_Seamed]","alphaMode":"MASK","doubleSided":true,"pbrMetallicRoughness":{"baseColorTexture":{"index":0},"metallicFactor":0.5,"roughnessFactor":0.5}},{"extensions":{"KHR_materials_pbrSpecularGlossiness":{"diffuseFactor":[0.501960813999176,0.501960813999176,0.501960813999176,0.501960813999176],"specularFactor":[0.250980406999588,0.250980406999588,0.250980406999588],"glossinessFactor":0.5}},"name":"[Translucent_Glass_Gray]","alphaMode":"BLEND","doubleSided":true,"pbrMetallicRoughness":{"baseColorFactor":[0.501960813999176,0.501960813999176,0.501960813999176,0.5],"metallicFactor":0.5,"roughnessFactor":0.5}}],"meshes":[{"primitives":[{"attributes":{"NORMAL":2,"POSITION":1},"indices":0,"material":0,"mode":4}]},{"primitives":[{"attributes":{"NORMAL":5,"POSITION":4,"TEXCOORD_0":6},"indices":3,"material":1,"mode":4}]},{"primitives":[{"attributes":{"NORMAL":9,"POSITION":8},"indices":7,"material":2,"mode":4}]}],"nodes":[{"children":[1,2],"matrix":[1.0,0.0,0.0,0.0,0.0,4.4896593387466768e-11,-1.0,0.0,0.0,1.0,4.4896593387466768e-11,0.0,0.0,0.0,0.0,1.0]},{"name":"Camera-2","matrix":[1.0,0.0,0.0,0.0,0.0,0.0,1.0,0.0,2.7755575615628916e-17,-1.0,0.0,1.734723475976807e-18,9.135491371154786,-71.255126953125,0.7239000201225281,1.0]},{"name":"Assembly-2","children":[3],"rotation":[0.0,0.0,0.0,-1.0],"scale":[0.02539999969303608,0.02539999969303608,0.02539999969303608]},{"children":[4,5,6],"rotation":[0.0,0.0,0.7071067690849304,-0.7071067690849304],"translation":[-144.0,144.0,0.0]},{"name":"3DGeom-1","mesh":0,"rotation":[0.0,0.0,0.0,-1.0]},{"name":"3DGeom-2","mesh":1,"rotation":[0.0,0.0,0.0,-1.0]},{"name":"3DGeom-3","mesh":2,"rotation":[0.0,0.0,0.0,-1.0]}],"scene":0,"scenes":[{"nodes":[0]}],"textures":[{"source":0}]}