{
	"asset":{
		"generator":"Khronos glTF Blender I/O v3.6.27",
		"version":"2.0"
	},
	"scene":0,
	"scenes":[
		{
			"name":"Scene",
			"nodes":[
				5
			]
		}
	],
	"nodes":[
		{
			"mesh":0,
			"name":"Object_2"
		},
		{
			"mesh":1,
			"name":"Object_3.002",
			"rotation":[
				0,
				0,
				-0.9999845623970032,
				0.0055554695427417755
			],
			"translation":[
				2.4990086555480957,
				-0.13548654317855835,
				-0.003043403150513768
			]
		},
		{
			"mesh":2,
			"name":"Object_4",
			"translation":[
				-0.0032126905862241983,
				-0.0006490880623459816,
				0
			]
		},
		{
			"mesh":3,
			"name":"Object_5"
		},
		{
			"children":[
				0,
				1,
				2,
				3
			],
			"name":"double_door.obj.cleaner.materialmerger.gles"
		},
		{
			"children":[
				4
			],
			"name":"Sketchfab_model.003",
			"rotation":[
				-0.70710688829422,
				0,
				0,
				0.7071066498756409
			]
		}
	],
	"materials":[
		{
			"doubleSided":true,
			"name":"frame.002",
			"pbrMetallicRoughness":{
				"baseColorFactor":[
					0.8999999761581421,
					0.8999999761581421,
					0.8999999761581421,
					1
				],
				"metallicFactor":0
			}
		},
		{
			"doubleSided":true,
			"name":"door.001",
			"pbrMetallicRoughness":{
				"baseColorFactor":[
					0.8999999761581421,
					0.8999999761581421,
					0.8999999761581421,
					1
				],
				"metallicFactor":0
			}
		},
		{
			"doubleSided":true,
			"name":"handle.002",
			"pbrMetallicRoughness":{
				"baseColorFactor":[
					0.75,
					0.75,
					0.75,
					1
				],
				"metallicFactor":0,
				"roughnessFactor":0.697277307510376
			}
		},
		{
			"doubleSided":true,
			"name":"hinge.002",
			"pbrMetallicRoughness":{
				"baseColorFactor":[
					0.8500000238418579,
					0.8500000238418579,
					0.8500000238418579,
					1
				],
				"metallicFactor":0,
				"roughnessFactor":0.697277307510376
			}
		}
	],
	"meshes":[
		{
			"name":"Object_0.002",
			"primitives":[
				{
					"attributes":{
						"POSITION":0,
						"NORMAL":1,
						"TEXCOORD_0":2
					},
					"indices":3,
					"material":0
				}
			]
		},
		{
			"name":"Object_1.004",
			"primitives":[
				{
					"attributes":{
						"POSITION":4,
						"NORMAL":5,
						"TEXCOORD_0":6
					},
					"indices":7,
					"material":1
				}
			]
		},
		{
			"name":"Object_2.002",
			"primitives":[
				{
					"attributes":{
						"POSITION":8,
						"NORMAL":9
					},
					"indices":10,
					"material":2
				}
			]
		},
		{
			"name":"Object_3.002",
			"primitives":[
				{
					"attributes":{
						"POSITION":11,
						"NORMAL":12
					},
					"indices":13,
					"material":3
				}
			]
		}
	],
	"accessors":[
		{
			"bufferView":0,
			"componentType":5126,
			"count":96,
			"max":[
				1.7000000476837158,
				-0.01899999938905239,
				2.0799999237060547
			],
			"min":[
				0,
				-0.07900000363588333,
				0
			],
			"type":"VEC3"
		},
		{
			"bufferView":1,
			"componentType":5126,
			"count":96,
			"type":"VEC3"
		},
		{
			"bufferView":2,
			"componentType":5126,
			"count":96,
			"type":"VEC2"
		},
		{
			"bufferView":3,
			"componentType":5123,
			"count":156,
			"type":"SCALAR"
		},
		{
			"bufferView":4,
			"componentType":5126,
			"count":336,
			"max":[
				2.4608819484710693,
				-0.0508171021938324,
				2.0420429706573486
			],
			"min":[
				0.8391180038452148,
				-0.10514193773269653,
				0
			],
			"type":"VEC3"
		},
		{
			"bufferView":5,
			"componentType":5126,
			"count":336,
			"type":"VEC3"
		},
		{
			"bufferView":6,
			"componentType":5126,
			"count":336,
			"type":"VEC2"
		},
		{
			"bufferView":7,
			"componentType":5123,
			"count":672,
			"type":"SCALAR"
		},
		{
			"bufferView":8,
			"componentType":5126,
			"count":465,
			"max":[
				1.0210000276565552,
				0,
				1.1299999952316284
			],
			"min":[
				0.6790000200271606,
				-0.15399999916553497,
				1.0700000524520874
			],
			"type":"VEC3"
		},
		{
			"bufferView":9,
			"componentType":5126,
			"count":465,
			"type":"VEC3"
		},
		{
			"bufferView":10,
			"componentType":5123,
			"count":1356,
			"type":"SCALAR"
		},
		{
			"bufferView":11,
			"componentType":5126,
			"count":192,
			"max":[
				1.6729999780654907,
				-0.07999999821186066,
				1.8600000143051147
			],
			"min":[
				0.027000000700354576,
				-0.09399999678134918,
				0.18000000715255737
			],
			"type":"VEC3"
		},
		{
			"bufferView":12,
			"componentType":5126,
			"count":192,
			"type":"VEC3"
		},
		{
			"bufferView":13,
			"componentType":5123,
			"count":504,
			"type":"SCALAR"
		}
	],
	"bufferViews":[
		{
			"buffer":0,
			"byteLength":1152,
			"byteOffset":0,
			"target":34962
		},
		{
			"buffer":0,
			"byteLength":1152,
			"byteOffset":1152,
			"target":34962
		},
		{
			"buffer":0,
			"byteLength":768,
			"byteOffset":2304,
			"target":34962
		},
		{
			"buffer":0,
			"byteLength":312,
			"byteOffset":3072,
			"target":34963
		},
		{
			"buffer":0,
			"byteLength":4032,
			"byteOffset":3384,
			"target":34962
		},
		{
			"buffer":0,
			"byteLength":4032,
			"byteOffset":7416,
			"target":34962
		},
		{
			"buffer":0,
			"byteLength":2688,
			"byteOffset":11448,
			"target":34962
		},
		{
			"buffer":0,
			"byteLength":1344,
			"byteOffset":14136,
			"target":34963
		},
		{
			"buffer":0,
			"byteLength":5580,
			"byteOffset":15480,
			"target":34962
		},
		{
			"buffer":0,
			"byteLength":5580,
			"byteOffset":21060,
			"target":34962
		},
		{
			"buffer":0,
			"byteLength":2712,
			"byteOffset":26640,
			"target":34963
		},
		{
			"buffer":0,
			"byteLength":2304,
			"byteOffset":29352,
			"target":34962
		},
		{
			"buffer":0,
			"byteLength":2304,
			"byteOffset":31656,
			"target":34962
		},
		{
			"buffer":0,
			"byteLength":1008,
			"byteOffset":33960,
			"target":34963
		}
	],
	"buffers":[
		{
			"byteLength":34968,
			"uri":"double_door_with_glass.bin"
		}
	]
}
