<?xml version="1.0" encoding="utf-8"?>
<!-- Generator: Adobe Illustrator 19.1.0, SVG Export Plug-In . SVG Version: 6.00 Build 0)  -->
<svg version="1.1" id="Ebene_1" xmlns="http://www.w3.org/2000/svg" xmlns:xlink="http://www.w3.org/1999/xlink" x="0px" y="0px"
	 viewBox="0 0 90 90" style="enable-background:new 0 0 90 90;" xml:space="preserve">
<style type="text/css">
	.st0{opacity:0.8;fill:#36A9E1;}
	.st1{opacity:0.5;fill:#36A9E1;}
	.st2{fill:none;stroke:#FFFFFF;stroke-miterlimit:10;}
	.st3{fill:#FFFFFF;stroke:#FFFFFF;stroke-miterlimit:10;}
	.st4{opacity:1; fill:#F9B233;}
</style>
<path id="nav_left" class="st0" d="M26.1,27c0.1-0.1,0.2-0.2,0.3-0.3l-0.3-0.3v-0.1H26L13.3,13.7c-7.8,8-12.6,18.9-12.6,30.9
	c0,12.2,4.9,23.2,12.9,31.2l0,0l12.6-12.6c0,0-0.1-0.1-0.1-0.1V27z"/>
<path id="nav_right" class="st0" d="M88.5,44.9c0-12.2-4.9-23.2-12.9-31.2l0,0L63,26.3c0,0,0,0,0.1,0.1h-0.2v36.8h0.5l12.5,12.5
	C83.7,67.8,88.5,56.9,88.5,44.9z"/>
<path id="nav_top" class="st4" d="M75.5,76L62.9,63.4c-0.3,0.3-36,0.3-36.4-0.1l-13,13c8,7.8,18.9,12.6,30.9,12.6C56.5,88.9,67.5,84,75.5,76
	L75.5,76z"/>
<path id="nav_bottom" class="st1" d="M44.6,0.9c-12.2,0-23.2,4.9-31.2,12.9l0,0l12.6,12.6v0.6h36.8v-0.9l12.6-12.6C67.5,5.7,56.6,0.9,44.6,0.9z"/>
<line class="st2" x1="44.5" y1="44.8" x2="75.7" y2="76.1"/>
<line class="st2" x1="44.5" y1="44.8" x2="76" y2="13.3"/>
<line class="st2" x1="44.5" y1="44.8" x2="13.3" y2="13.7"/>
<line class="st2" x1="44.5" y1="44.8" x2="13.6" y2="75.7"/>
<rect id="nav_center" x="26.1" y="26.4" class="st3" width="36.8" height="36.8"/>
</svg>
