{"accessors":[{"bufferView":0,"componentType":5125,"count":708,"max":[359.0],"min":[0.0],"type":"SCALAR"},{"bufferView":1,"componentType":5126,"count":360,"max":[9.448819160461426,9.842519760131836,232.46456909179688],"min":[0.0,0.0,4.441121248532909e-9],"type":"VEC3"},{"bufferView":2,"componentType":5126,"count":360,"max":[1.0,1.0,1.0],"min":[-1.0,-1.0,-1.0],"type":"VEC3"},{"bufferView":3,"componentType":5126,"count":360,"max":[0.8202099800109863,1.0],"min":[-0.8511240482330322,-18.372047424316408],"type":"VEC2"},{"bufferView":4,"componentType":5125,"count":708,"max":[359.0],"min":[0.0],"type":"SCALAR"},{"bufferView":5,"componentType":5126,"count":360,"max":[9.448819160461426,9.842519760131836,232.46456909179688],"min":[0.0,0.0,4.441121248532909e-9],"type":"VEC3"},{"bufferView":6,"componentType":5126,"count":360,"max":[1.0,1.0,1.0],"min":[-1.0,-1.0,-1.0],"type":"VEC3"},{"bufferView":7,"componentType":5126,"count":360,"max":[0.8202099800109863,1.0],"min":[-0.8511240482330322,-18.372047424316408],"type":"VEC2"},{"bufferView":8,"componentType":5125,"count":708,"max":[359.0],"min":[0.0],"type":"SCALAR"},{"bufferView":9,"componentType":5126,"count":360,"max":[9.448819160461426,9.842519760131836,232.46456909179688],"min":[0.0,4.547473508864641e-13,-277.9354248046875],"type":"VEC3"},{"bufferView":10,"componentType":5126,"count":360,"max":[1.0,1.0,1.0],"min":[-1.0,-1.0,-1.0],"type":"VEC3"},{"bufferView":11,"componentType":5126,"count":360,"max":[0.8202099800109863,24.161285400390626],"min":[-0.8511240482330322,-18.372047424316408],"type":"VEC2"},{"bufferView":12,"componentType":5125,"count":708,"max":[359.0],"min":[0.0],"type":"SCALAR"},{"bufferView":13,"componentType":5126,"count":360,"max":[9.448819160461426,9.842519760131836,232.46456909179688],"min":[0.0,4.547473508864641e-13,-277.9354248046875],"type":"VEC3"},{"bufferView":14,"componentType":5126,"count":360,"max":[1.0,1.0,1.0],"min":[-1.0,-1.0,-1.0],"type":"VEC3"},{"bufferView":15,"componentType":5126,"count":360,"max":[0.8202099800109863,24.161285400390626],"min":[-0.8511240482330322,-18.372047424316408],"type":"VEC2"},{"bufferView":16,"componentType":5125,"count":708,"max":[359.0],"min":[0.0],"type":"SCALAR"},{"bufferView":17,"componentType":5126,"count":360,"max":[9.448819160461426,9.842519760131836,232.46456909179688],"min":[0.0,0.0,4.441121248532909e-9],"type":"VEC3"},{"bufferView":18,"componentType":5126,"count":360,"max":[1.0,1.0,1.0],"min":[-1.0,-1.0,-1.0],"type":"VEC3"},{"bufferView":19,"componentType":5126,"count":360,"max":[0.8202099800109863,1.0],"min":[-0.8511240482330322,-18.372047424316408],"type":"VEC2"},{"bufferView":20,"componentType":5125,"count":708,"max":[359.0],"min":[0.0],"type":"SCALAR"},{"bufferView":21,"componentType":5126,"count":360,"max":[9.448819160461426,9.842519760131836,232.46456909179688],"min":[0.0,0.0,4.441121248532909e-9],"type":"VEC3"},{"bufferView":22,"componentType":5126,"count":360,"max":[1.0,1.0,1.0],"min":[-1.0,-1.0,-1.0],"type":"VEC3"},{"bufferView":23,"componentType":5126,"count":360,"max":[0.8202099800109863,1.0],"min":[-0.8511240482330322,-18.372047424316408],"type":"VEC2"},{"bufferView":24,"componentType":5125,"count":1128,"max":[621.0],"min":[0.0],"type":"SCALAR"},{"bufferView":25,"componentType":5126,"count":622,"max":[88.7125015258789,9.842519760131836,907.6288452148438],"min":[-4.490630090003833e-12,-6.275513442233205e-11,4.4410626287572089e-9],"type":"VEC3"},{"bufferView":26,"componentType":5126,"count":622,"max":[1.0,1.0,0.9848077297210693],"min":[-1.0,-1.0,-1.0],"type":"VEC3"},{"bufferView":27,"componentType":5126,"count":622,"max":[7.392708778381348,1.0],"min":[-7.392708778381348,-74.66923522949219],"type":"VEC2"},{"bufferView":28,"componentType":5125,"count":1128,"max":[621.0],"min":[0.0],"type":"SCALAR"},{"bufferView":29,"componentType":5126,"count":622,"max":[88.7125015258789,9.842519760131836,907.6288452148438],"min":[-4.490630090003833e-12,-6.275513442233205e-11,4.4410626287572089e-9],"type":"VEC3"},{"bufferView":30,"componentType":5126,"count":622,"max":[1.0,1.0,0.9848077297210693],"min":[-1.0,-1.0,-1.0],"type":"VEC3"},{"bufferView":31,"componentType":5126,"count":622,"max":[7.392708778381348,1.0],"min":[-7.392708778381348,-74.66923522949219],"type":"VEC2"},{"bufferView":32,"componentType":5125,"count":1128,"max":[621.0],"min":[0.0],"type":"SCALAR"},{"bufferView":33,"componentType":5126,"count":622,"max":[88.7125015258789,9.842519760131836,907.6288452148438],"min":[-4.490630090003833e-12,-6.275513442233205e-11,4.4410626287572089e-9],"type":"VEC3"},{"bufferView":34,"componentType":5126,"count":622,"max":[1.0,1.0,0.9848077297210693],"min":[-1.0,-1.0,-1.0],"type":"VEC3"},{"bufferView":35,"componentType":5126,"count":622,"max":[7.392708778381348,1.0],"min":[-7.392708778381348,-74.66923522949219],"type":"VEC2"}],"asset":{"generator":"SimLab GLTF","version":"2.0"},"bufferViews":[{"buffer":0,"byteLength":2832,"target":34963},{"buffer":0,"byteLength":4320,"byteOffset":2832,"byteStride":12,"target":34962},{"buffer":0,"byteLength":4320,"byteOffset":7152,"byteStride":12,"target":34962},{"buffer":0,"byteLength":2880,"byteOffset":11472,"byteStride":8,"target":34962},{"buffer":0,"byteLength":2832,"byteOffset":14352,"target":34963},{"buffer":0,"byteLength":4320,"byteOffset":17184,"byteStride":12,"target":34962},{"buffer":0,"byteLength":4320,"byteOffset":21504,"byteStride":12,"target":34962},{"buffer":0,"byteLength":2880,"byteOffset":25824,"byteStride":8,"target":34962},{"buffer":0,"byteLength":2832,"byteOffset":28704,"target":34963},{"buffer":0,"byteLength":4320,"byteOffset":31536,"byteStride":12,"target":34962},{"buffer":0,"byteLength":4320,"byteOffset":35856,"byteStride":12,"target":34962},{"buffer":0,"byteLength":2880,"byteOffset":40176,"byteStride":8,"target":34962},{"buffer":0,"byteLength":2832,"byteOffset":43056,"target":34963},{"buffer":0,"byteLength":4320,"byteOffset":45888,"byteStride":12,"target":34962},{"buffer":0,"byteLength":4320,"byteOffset":50208,"byteStride":12,"target":34962},{"buffer":0,"byteLength":2880,"byteOffset":54528,"byteStride":8,"target":34962},{"buffer":0,"byteLength":2832,"byteOffset":57408,"target":34963},{"buffer":0,"byteLength":4320,"byteOffset":60240,"byteStride":12,"target":34962},{"buffer":0,"byteLength":4320,"byteOffset":64560,"byteStride":12,"target":34962},{"buffer":0,"byteLength":2880,"byteOffset":68880,"byteStride":8,"target":34962},{"buffer":0,"byteLength":2832,"byteOffset":71760,"target":34963},{"buffer":0,"byteLength":4320,"byteOffset":74592,"byteStride":12,"target":34962},{"buffer":0,"byteLength":4320,"byteOffset":78912,"byteStride":12,"target":34962},{"buffer":0,"byteLength":2880,"byteOffset":83232,"byteStride":8,"target":34962},{"buffer":0,"byteLength":4512,"byteOffset":86112,"target":34963},{"buffer":0,"byteLength":7464,"byteOffset":90624,"byteStride":12,"target":34962},{"buffer":0,"byteLength":7464,"byteOffset":98088,"byteStride":12,"target":34962},{"buffer":0,"byteLength":4976,"byteOffset":105552,"byteStride":8,"target":34962},{"buffer":0,"byteLength":4512,"byteOffset":110528,"target":34963},{"buffer":0,"byteLength":7464,"byteOffset":115040,"byteStride":12,"target":34962},{"buffer":0,"byteLength":7464,"byteOffset":122504,"byteStride":12,"target":34962},{"buffer":0,"byteLength":4976,"byteOffset":129968,"byteStride":8,"target":34962},{"buffer":0,"byteLength":4512,"byteOffset":134944,"target":34963},{"buffer":0,"byteLength":7464,"byteOffset":139456,"byteStride":12,"target":34962},{"buffer":0,"byteLength":7464,"byteOffset":146920,"byteStride":12,"target":34962},{"buffer":0,"byteLength":4976,"byteOffset":154384,"byteStride":8,"target":34962}],"buffers":[{"byteLength":159360,"uri":"frame__partial.bin"}],"extensionsUsed":["KHR_materials_pbrSpecularGlossiness"],"images":[{"mimeType":"image/jpeg","uri":"Textures/Carpet003_2K_AmbientOcclusion.jpg"}],"materials":[{"extensions":{"KHR_materials_pbrSpecularGlossiness":{"diffuseFactor":[1.0,1.0,1.0,1.0],"diffuseTexture":{"index":0},"specularFactor":[0.5,0.5,0.5],"glossinessFactor":0.5}},"name":"#","alphaMode":"MASK","doubleSided":true,"pbrMetallicRoughness":{"baseColorTexture":{"index":0},"metallicFactor":0.5,"roughnessFactor":0.5}}],"meshes":[{"primitives":[{"attributes":{"NORMAL":2,"POSITION":1,"TEXCOORD_0":3},"indices":0,"material":0,"mode":4}]},{"primitives":[{"attributes":{"NORMAL":6,"POSITION":5,"TEXCOORD_0":7},"indices":4,"material":0,"mode":4}]},{"primitives":[{"attributes":{"NORMAL":10,"POSITION":9,"TEXCOORD_0":11},"indices":8,"material":0,"mode":4}]},{"primitives":[{"attributes":{"NORMAL":14,"POSITION":13,"TEXCOORD_0":15},"indices":12,"material":0,"mode":4}]},{"primitives":[{"attributes":{"NORMAL":18,"POSITION":17,"TEXCOORD_0":19},"indices":16,"material":0,"mode":4}]},{"primitives":[{"attributes":{"NORMAL":22,"POSITION":21,"TEXCOORD_0":23},"indices":20,"material":0,"mode":4}]},{"primitives":[{"attributes":{"NORMAL":26,"POSITION":25,"TEXCOORD_0":27},"indices":24,"material":0,"mode":4}]},{"primitives":[{"attributes":{"NORMAL":30,"POSITION":29,"TEXCOORD_0":31},"indices":28,"material":0,"mode":4}]},{"primitives":[{"attributes":{"NORMAL":34,"POSITION":33,"TEXCOORD_0":35},"indices":32,"material":0,"mode":4}]}],"nodes":[{"children":[1,2],"matrix":[1.0,0.0,0.0,0.0,0.0,4.4896593387466768e-11,-1.0,0.0,0.0,1.0,4.4896593387466768e-11,0.0,0.0,0.0,0.0,1.0]},{"name":"Camera-2","rotation":[-0.7071067690849304,0.0,0.0,-0.7071067690849304],"translation":[6.72707986831665,-81.08911895751953,4.076477527618408]},{"name":"Assembly-12","children":[3],"rotation":[0.0,0.0,0.0,-1.0],"scale":[0.02539999969303608,0.02539999969303608,0.02539999969303608]},{"children":[4,16,18,20],"rotation":[0.0,0.0,0.0,-1.0]},{"children":[5,7,9,11,13,15],"rotation":[0.0,0.0,0.0,-1.0],"translation":[2.823981049004942e-10,0.8235188126564026,3.9942847809075995e-25]},{"children":[6],"rotation":[0.0,0.0,0.0,-1.0],"translation":[519.8488159179688,2.3646862246096136e-10,-4.439628664698603e-9]},{"name":"3DGeom-2","mesh":0,"rotation":[0.0,0.0,0.0,-1.0]},{"children":[8],"rotation":[0.0,0.0,0.0,-1.0],"translation":[7.366907084360719e-11,899.6062622070313,-4.439624667895714e-9]},{"name":"3DGeom-3","mesh":1,"rotation":[0.0,0.0,0.0,-1.0]},{"children":[10],"matrix":[-3.82856880455694e-16,-4.451850129857937e-13,-1.0,0.0,-4.451854195616084e-13,1.0,-4.451850129857937e-13,0.0,1.0,4.451854195616084e-13,-3.82856880455694e-16,0.0,287.3842468261719,899.6062622070313,232.46456909179688,1.0]},{"name":"3DGeom-4","mesh":2,"rotation":[0.0,0.0,0.0,-1.0]},{"children":[12],"matrix":[-3.82856880455694e-16,-4.451850129857937e-13,-1.0,0.0,-4.451854195616084e-13,1.0,-4.451850129857937e-13,0.0,1.0,4.451854195616084e-13,-3.82856880455694e-16,0.0,287.3842468261719,3.597051545511931e-10,232.46456909179688,1.0]},{"name":"3DGeom-5","mesh":3,"rotation":[0.0,0.0,0.0,-1.0]},{"children":[14],"rotation":[0.0,0.0,0.0,-1.0],"translation":[519.8488159179688,899.6062622070313,-4.439624667895714e-9]},{"name":"3DGeom-6","mesh":4,"rotation":[0.0,0.0,0.0,-1.0]},{"mesh":5,"rotation":[0.0,0.0,0.0,-1.0]},{"children":[17],"matrix":[-1.5798416719801922e-13,-0.08715574443340302,-0.9961947202682495,0.0,1.0,-1.3769073670133209e-14,-1.5738300419843032e-13,0.0,1.548976476362239e-19,-0.9961947202682495,0.08715574443340302,0.0,3.5788616514764728e-10,911.0958251953125,241.87742614746095,1.0]},{"name":"3DGeom-7","mesh":6,"rotation":[0.0,0.0,0.0,-1.0]},{"children":[19],"matrix":[-1.5798416719801922e-13,-0.08715574443340302,-0.9961947202682495,0.0,1.0,-1.3769073670133209e-14,-1.5738300419843032e-13,0.0,1.548976476362239e-19,-0.9961947202682495,0.08715574443340302,0.0,259.7275695800781,911.0958251953125,241.87742614746095,1.0]},{"name":"3DGeom-8","mesh":7,"rotation":[0.0,0.0,0.0,-1.0]},{"children":[21],"matrix":[-1.5798416719801922e-13,-0.08715574443340302,-0.9961947202682495,0.0,1.0,-1.3769073670133209e-14,-1.5738300419843032e-13,0.0,1.548976476362239e-19,-0.9961947202682495,0.08715574443340302,0.0,519.8488159179688,911.0958251953125,241.87742614746095,1.0]},{"name":"3DGeom-9","mesh":8,"rotation":[0.0,0.0,0.0,-1.0]}],"scene":0,"scenes":[{"nodes":[0]}],"textures":[{"source":0}]}