{"accessors":[{"bufferView":0,"componentType":5125,"count":192,"max":[101.0],"min":[0.0],"type":"SCALAR"},{"bufferView":1,"componentType":5126,"count":102,"max":[4.5,348.40496826171877,6.5],"min":[0.0,0.0,0.0],"type":"VEC3"},{"bufferView":2,"componentType":5126,"count":102,"max":[1.0,1.0,1.0],"min":[-1.0,-1.0,-1.0],"type":"VEC3"}],"asset":{"generator":"SimLab GLTF","version":"2.0"},"bufferViews":[{"buffer":0,"byteLength":768,"target":34963},{"buffer":0,"byteLength":1224,"byteOffset":768,"byteStride":12,"target":34962},{"buffer":0,"byteLength":1224,"byteOffset":1992,"byteStride":12,"target":34962}],"buffers":[{"byteLength":3216,"uri":"purlin_part.bin"}],"extensionsUsed":["KHR_materials_pbrSpecularGlossiness"],"materials":[{"extensions":{"KHR_materials_pbrSpecularGlossiness":{"diffuseFactor":[0.8999999761581421,0.8999999761581421,0.8999999761581421,1.0],"specularFactor":[0.25,0.25,0.25],"glossinessFactor":0.5}},"name":"DefaultMaterial~1","alphaMode":"MASK","doubleSided":true,"pbrMetallicRoughness":{"baseColorFactor":[0.8999999761581421,0.8999999761581421,0.8999999761581421,1.0],"metallicFactor":0.5,"roughnessFactor":0.5}}],"meshes":[{"primitives":[{"attributes":{"NORMAL":2,"POSITION":1},"indices":0,"material":0,"mode":4}]}],"nodes":[{"children":[1,2],"matrix":[1.0,0.0,0.0,0.0,0.0,4.4896593387466768e-11,-1.0,0.0,0.0,1.0,4.4896593387466768e-11,0.0,0.0,0.0,0.0,1.0]},{"name":"Camera-2","rotation":[-0.7071067690849304,0.0,0.0,-0.7071067690849304],"translation":[0.05714999884366989,-30.973201751708986,0.08254999667406082]},{"name":"Assembly-1","children":[3],"rotation":[0.0,0.0,0.0,-1.0],"scale":[0.02539999969303608,0.02539999969303608,0.02539999969303608]},{"name":"3DGeom-1","mesh":0,"rotation":[0.0,0.0,0.0,-1.0]}],"scene":0,"scenes":[{"nodes":[0]}]}