{"accessors":[{"bufferView":0,"componentType":5125,"count":36,"max":[23.0],"min":[0.0],"type":"SCALAR"},{"bufferView":1,"componentType":5126,"count":24,"max":[4.0,1200.0,12.0],"min":[0.0,0.0,0.0],"type":"VEC3"},{"bufferView":2,"componentType":5126,"count":24,"max":[1.0,1.0,1.0],"min":[-1.0,-1.0,-1.0],"type":"VEC3"},{"bufferView":3,"componentType":5126,"count":24,"max":[100.0,1.0],"min":[-100.0,-99.0],"type":"VEC2"},{"bufferView":4,"componentType":5125,"count":36,"max":[23.0],"min":[0.0],"type":"SCALAR"},{"bufferView":5,"componentType":5126,"count":24,"max":[4.0,1200.0,12.0],"min":[0.0,0.0,0.0],"type":"VEC3"},{"bufferView":6,"componentType":5126,"count":24,"max":[1.0,1.0,1.0],"min":[-1.0,-1.0,-1.0],"type":"VEC3"},{"bufferView":7,"componentType":5126,"count":24,"max":[100.0,1.0],"min":[-100.0,-99.0],"type":"VEC2"},{"bufferView":8,"componentType":5125,"count":36,"max":[23.0],"min":[0.0],"type":"SCALAR"},{"bufferView":9,"componentType":5126,"count":24,"max":[4.0,1200.0,12.0],"min":[0.0,0.0,-5.684341886080802e-14],"type":"VEC3"},{"bufferView":10,"componentType":5126,"count":24,"max":[1.0,1.0,1.0],"min":[-1.0,-1.0,-1.0],"type":"VEC3"},{"bufferView":11,"componentType":5126,"count":24,"max":[100.0,1.0],"min":[-100.0,-99.0],"type":"VEC2"},{"bufferView":12,"componentType":5125,"count":36,"max":[23.0],"min":[0.0],"type":"SCALAR"},{"bufferView":13,"componentType":5126,"count":24,"max":[4.0,1200.0,12.0],"min":[0.0,0.0,0.0],"type":"VEC3"},{"bufferView":14,"componentType":5126,"count":24,"max":[1.0,1.0,1.0],"min":[-1.0,-1.0,-1.0],"type":"VEC3"},{"bufferView":15,"componentType":5126,"count":24,"max":[100.0,1.0],"min":[-100.0,-99.0],"type":"VEC2"},{"bufferView":16,"componentType":5125,"count":36,"max":[23.0],"min":[0.0],"type":"SCALAR"},{"bufferView":17,"componentType":5126,"count":24,"max":[4.0,1200.0,12.0],"min":[0.0,0.0,0.0],"type":"VEC3"},{"bufferView":18,"componentType":5126,"count":24,"max":[1.0,1.0,1.0],"min":[-1.0,-1.0,-1.0],"type":"VEC3"},{"bufferView":19,"componentType":5126,"count":24,"max":[100.0,1.0],"min":[-100.0,-99.0],"type":"VEC2"},{"bufferView":20,"componentType":5125,"count":36,"max":[23.0],"min":[0.0],"type":"SCALAR"},{"bufferView":21,"componentType":5126,"count":24,"max":[4.0,1200.0,12.0],"min":[0.0,0.0,0.0],"type":"VEC3"},{"bufferView":22,"componentType":5126,"count":24,"max":[1.0,1.0,1.0],"min":[-1.0,-1.0,-1.0],"type":"VEC3"},{"bufferView":23,"componentType":5126,"count":24,"max":[100.0,1.0],"min":[-100.0,-99.0],"type":"VEC2"},{"bufferView":24,"componentType":5125,"count":36,"max":[23.0],"min":[0.0],"type":"SCALAR"},{"bufferView":25,"componentType":5126,"count":24,"max":[4.0,1200.0,12.0],"min":[0.0,0.0,0.0],"type":"VEC3"},{"bufferView":26,"componentType":5126,"count":24,"max":[1.0,1.0,1.0],"min":[-1.0,-1.0,-1.0],"type":"VEC3"},{"bufferView":27,"componentType":5126,"count":24,"max":[100.0,1.0],"min":[-100.0,-99.0],"type":"VEC2"},{"bufferView":28,"componentType":5125,"count":36,"max":[23.0],"min":[0.0],"type":"SCALAR"},{"bufferView":29,"componentType":5126,"count":24,"max":[4.0,1200.0,12.0],"min":[0.0,0.0,0.0],"type":"VEC3"},{"bufferView":30,"componentType":5126,"count":24,"max":[1.0,1.0,1.0],"min":[-1.0,-1.0,-1.0],"type":"VEC3"},{"bufferView":31,"componentType":5126,"count":24,"max":[100.0,1.0],"min":[-100.0,-99.0],"type":"VEC2"},{"bufferView":32,"componentType":5125,"count":36,"max":[23.0],"min":[0.0],"type":"SCALAR"},{"bufferView":33,"componentType":5126,"count":24,"max":[4.0,1200.0,12.0],"min":[0.0,0.0,0.0],"type":"VEC3"},{"bufferView":34,"componentType":5126,"count":24,"max":[1.0,1.0,1.0],"min":[-1.0,-1.0,-1.0],"type":"VEC3"},{"bufferView":35,"componentType":5126,"count":24,"max":[100.0,1.0],"min":[-100.0,-99.0],"type":"VEC2"},{"bufferView":36,"componentType":5125,"count":36,"max":[23.0],"min":[0.0],"type":"SCALAR"},{"bufferView":37,"componentType":5126,"count":24,"max":[4.0,1200.0,12.0],"min":[0.0,0.0,0.0],"type":"VEC3"},{"bufferView":38,"componentType":5126,"count":24,"max":[1.0,1.0,1.0],"min":[-1.0,-1.0,-1.0],"type":"VEC3"},{"bufferView":39,"componentType":5126,"count":24,"max":[100.0,1.0],"min":[-100.0,-99.0],"type":"VEC2"},{"bufferView":40,"componentType":5125,"count":36,"max":[23.0],"min":[0.0],"type":"SCALAR"},{"bufferView":41,"componentType":5126,"count":24,"max":[4.0,1200.0,12.0],"min":[0.0,0.0,0.0],"type":"VEC3"},{"bufferView":42,"componentType":5126,"count":24,"max":[1.0,1.0,1.0],"min":[-1.0,-1.0,-1.0],"type":"VEC3"},{"bufferView":43,"componentType":5126,"count":24,"max":[100.0,1.0],"min":[-100.0,-99.0],"type":"VEC2"},{"bufferView":44,"componentType":5125,"count":36,"max":[23.0],"min":[0.0],"type":"SCALAR"},{"bufferView":45,"componentType":5126,"count":24,"max":[4.0,1200.0,12.0],"min":[0.0,0.0,0.0],"type":"VEC3"},{"bufferView":46,"componentType":5126,"count":24,"max":[1.0,1.0,1.0],"min":[-1.0,-1.0,-1.0],"type":"VEC3"},{"bufferView":47,"componentType":5126,"count":24,"max":[100.0,1.0],"min":[-100.0,-99.0],"type":"VEC2"},{"bufferView":48,"componentType":5125,"count":36,"max":[23.0],"min":[0.0],"type":"SCALAR"},{"bufferView":49,"componentType":5126,"count":24,"max":[4.0,1200.0,12.0],"min":[0.0,0.0,0.0],"type":"VEC3"},{"bufferView":50,"componentType":5126,"count":24,"max":[1.0,1.0,1.0],"min":[-1.0,-1.0,-1.0],"type":"VEC3"},{"bufferView":51,"componentType":5126,"count":24,"max":[100.0,1.0],"min":[-100.0,-99.0],"type":"VEC2"},{"bufferView":52,"componentType":5125,"count":36,"max":[23.0],"min":[0.0],"type":"SCALAR"},{"bufferView":53,"componentType":5126,"count":24,"max":[4.0,1200.0,12.0],"min":[0.0,0.0,0.0],"type":"VEC3"},{"bufferView":54,"componentType":5126,"count":24,"max":[1.0,1.0,1.0],"min":[-1.0,-1.0,-1.0],"type":"VEC3"},{"bufferView":55,"componentType":5126,"count":24,"max":[100.0,1.0],"min":[-100.0,-99.0],"type":"VEC2"},{"bufferView":56,"componentType":5125,"count":36,"max":[23.0],"min":[0.0],"type":"SCALAR"},{"bufferView":57,"componentType":5126,"count":24,"max":[4.0,1200.0,12.0],"min":[0.0,0.0,0.0],"type":"VEC3"},{"bufferView":58,"componentType":5126,"count":24,"max":[1.0,1.0,1.0],"min":[-1.0,-1.0,-1.0],"type":"VEC3"},{"bufferView":59,"componentType":5126,"count":24,"max":[100.0,1.0],"min":[-100.0,-99.0],"type":"VEC2"}],"asset":{"generator":"SimLab GLTF","version":"2.0"},"bufferViews":[{"buffer":0,"byteLength":144,"target":34963},{"buffer":0,"byteLength":288,"byteOffset":144,"byteStride":12,"target":34962},{"buffer":0,"byteLength":288,"byteOffset":432,"byteStride":12,"target":34962},{"buffer":0,"byteLength":192,"byteOffset":720,"byteStride":8,"target":34962},{"buffer":0,"byteLength":144,"byteOffset":912,"target":34963},{"buffer":0,"byteLength":288,"byteOffset":1056,"byteStride":12,"target":34962},{"buffer":0,"byteLength":288,"byteOffset":1344,"byteStride":12,"target":34962},{"buffer":0,"byteLength":192,"byteOffset":1632,"byteStride":8,"target":34962},{"buffer":0,"byteLength":144,"byteOffset":1824,"target":34963},{"buffer":0,"byteLength":288,"byteOffset":1968,"byteStride":12,"target":34962},{"buffer":0,"byteLength":288,"byteOffset":2256,"byteStride":12,"target":34962},{"buffer":0,"byteLength":192,"byteOffset":2544,"byteStride":8,"target":34962},{"buffer":0,"byteLength":144,"byteOffset":2736,"target":34963},{"buffer":0,"byteLength":288,"byteOffset":2880,"byteStride":12,"target":34962},{"buffer":0,"byteLength":288,"byteOffset":3168,"byteStride":12,"target":34962},{"buffer":0,"byteLength":192,"byteOffset":3456,"byteStride":8,"target":34962},{"buffer":0,"byteLength":144,"byteOffset":3648,"target":34963},{"buffer":0,"byteLength":288,"byteOffset":3792,"byteStride":12,"target":34962},{"buffer":0,"byteLength":288,"byteOffset":4080,"byteStride":12,"target":34962},{"buffer":0,"byteLength":192,"byteOffset":4368,"byteStride":8,"target":34962},{"buffer":0,"byteLength":144,"byteOffset":4560,"target":34963},{"buffer":0,"byteLength":288,"byteOffset":4704,"byteStride":12,"target":34962},{"buffer":0,"byteLength":288,"byteOffset":4992,"byteStride":12,"target":34962},{"buffer":0,"byteLength":192,"byteOffset":5280,"byteStride":8,"target":34962},{"buffer":0,"byteLength":144,"byteOffset":5472,"target":34963},{"buffer":0,"byteLength":288,"byteOffset":5616,"byteStride":12,"target":34962},{"buffer":0,"byteLength":288,"byteOffset":5904,"byteStride":12,"target":34962},{"buffer":0,"byteLength":192,"byteOffset":6192,"byteStride":8,"target":34962},{"buffer":0,"byteLength":144,"byteOffset":6384,"target":34963},{"buffer":0,"byteLength":288,"byteOffset":6528,"byteStride":12,"target":34962},{"buffer":0,"byteLength":288,"byteOffset":6816,"byteStride":12,"target":34962},{"buffer":0,"byteLength":192,"byteOffset":7104,"byteStride":8,"target":34962},{"buffer":0,"byteLength":144,"byteOffset":7296,"target":34963},{"buffer":0,"byteLength":288,"byteOffset":7440,"byteStride":12,"target":34962},{"buffer":0,"byteLength":288,"byteOffset":7728,"byteStride":12,"target":34962},{"buffer":0,"byteLength":192,"byteOffset":8016,"byteStride":8,"target":34962},{"buffer":0,"byteLength":144,"byteOffset":8208,"target":34963},{"buffer":0,"byteLength":288,"byteOffset":8352,"byteStride":12,"target":34962},{"buffer":0,"byteLength":288,"byteOffset":8640,"byteStride":12,"target":34962},{"buffer":0,"byteLength":192,"byteOffset":8928,"byteStride":8,"target":34962},{"buffer":0,"byteLength":144,"byteOffset":9120,"target":34963},{"buffer":0,"byteLength":288,"byteOffset":9264,"byteStride":12,"target":34962},{"buffer":0,"byteLength":288,"byteOffset":9552,"byteStride":12,"target":34962},{"buffer":0,"byteLength":192,"byteOffset":9840,"byteStride":8,"target":34962},{"buffer":0,"byteLength":144,"byteOffset":10032,"target":34963},{"buffer":0,"byteLength":288,"byteOffset":10176,"byteStride":12,"target":34962},{"buffer":0,"byteLength":288,"byteOffset":10464,"byteStride":12,"target":34962},{"buffer":0,"byteLength":192,"byteOffset":10752,"byteStride":8,"target":34962},{"buffer":0,"byteLength":144,"byteOffset":10944,"target":34963},{"buffer":0,"byteLength":288,"byteOffset":11088,"byteStride":12,"target":34962},{"buffer":0,"byteLength":288,"byteOffset":11376,"byteStride":12,"target":34962},{"buffer":0,"byteLength":192,"byteOffset":11664,"byteStride":8,"target":34962},{"buffer":0,"byteLength":144,"byteOffset":11856,"target":34963},{"buffer":0,"byteLength":288,"byteOffset":12000,"byteStride":12,"target":34962},{"buffer":0,"byteLength":288,"byteOffset":12288,"byteStride":12,"target":34962},{"buffer":0,"byteLength":192,"byteOffset":12576,"byteStride":8,"target":34962},{"buffer":0,"byteLength":144,"byteOffset":12768,"target":34963},{"buffer":0,"byteLength":288,"byteOffset":12912,"byteStride":12,"target":34962},{"buffer":0,"byteLength":288,"byteOffset":13200,"byteStride":12,"target":34962},{"buffer":0,"byteLength":192,"byteOffset":13488,"byteStride":8,"target":34962}],"buffers":[{"byteLength":13680,"uri":"purlin_new_1.bin"}],"extensionsUsed":["KHR_materials_pbrSpecularGlossiness"],"images":[{"mimeType":"image/jpeg","uri":"Textures/frame__.jpg"}],"materials":[{"extensions":{"KHR_materials_pbrSpecularGlossiness":{"diffuseFactor":[1.0,1.0,1.0,1.0],"diffuseTexture":{"index":0},"specularFactor":[0.5,0.5,0.5],"glossinessFactor":0.5}},"name":"#","alphaMode":"MASK","doubleSided":true,"pbrMetallicRoughness":{"baseColorTexture":{"index":0},"metallicFactor":0.5,"roughnessFactor":0.5}}],"meshes":[{"primitives":[{"attributes":{"NORMAL":2,"POSITION":1,"TEXCOORD_0":3},"indices":0,"material":0,"mode":4}]},{"primitives":[{"attributes":{"NORMAL":6,"POSITION":5,"TEXCOORD_0":7},"indices":4,"material":0,"mode":4}]},{"primitives":[{"attributes":{"NORMAL":10,"POSITION":9,"TEXCOORD_0":11},"indices":8,"material":0,"mode":4}]},{"primitives":[{"attributes":{"NORMAL":14,"POSITION":13,"TEXCOORD_0":15},"indices":12,"material":0,"mode":4}]},{"primitives":[{"attributes":{"NORMAL":18,"POSITION":17,"TEXCOORD_0":19},"indices":16,"material":0,"mode":4}]},{"primitives":[{"attributes":{"NORMAL":22,"POSITION":21,"TEXCOORD_0":23},"indices":20,"material":0,"mode":4}]},{"primitives":[{"attributes":{"NORMAL":26,"POSITION":25,"TEXCOORD_0":27},"indices":24,"material":0,"mode":4}]},{"primitives":[{"attributes":{"NORMAL":30,"POSITION":29,"TEXCOORD_0":31},"indices":28,"material":0,"mode":4}]},{"primitives":[{"attributes":{"NORMAL":34,"POSITION":33,"TEXCOORD_0":35},"indices":32,"material":0,"mode":4}]},{"primitives":[{"attributes":{"NORMAL":38,"POSITION":37,"TEXCOORD_0":39},"indices":36,"material":0,"mode":4}]},{"primitives":[{"attributes":{"NORMAL":42,"POSITION":41,"TEXCOORD_0":43},"indices":40,"material":0,"mode":4}]},{"primitives":[{"attributes":{"NORMAL":46,"POSITION":45,"TEXCOORD_0":47},"indices":44,"material":0,"mode":4}]},{"primitives":[{"attributes":{"NORMAL":50,"POSITION":49,"TEXCOORD_0":51},"indices":48,"material":0,"mode":4}]},{"primitives":[{"attributes":{"NORMAL":54,"POSITION":53,"TEXCOORD_0":55},"indices":52,"material":0,"mode":4}]},{"primitives":[{"attributes":{"NORMAL":58,"POSITION":57,"TEXCOORD_0":59},"indices":56,"material":0,"mode":4}]}],"nodes":[{"children":[1,2],"matrix":[1.0,0.0,0.0,0.0,0.0,4.4896593387466768e-11,-1.0,0.0,0.0,1.0,4.4896593387466768e-11,0.0,0.0,0.0,0.0,1.0]},{"name":"Camera-2","rotation":[-0.7071067690849304,0.0,0.0,-0.7071067690849304],"translation":[-16.786270141601564,-116.4314956665039,-1.5820204019546509]},{"name":"Assembly-20","children":[3,14,27],"rotation":[0.0,0.0,0.0,-1.0],"scale":[0.02539999969303608,0.02539999969303608,0.02539999969303608]},{"children":[4,6,8,10,12],"rotation":[1.0,0.0,0.0,-0.0],"scale":[-1.0,-1.0,-1.0],"translation":[-935.4539794921875,0.045961782336235049,-286.49725341796877]},{"children":[5],"rotation":[0.0,-0.14758539199829102,0.0,-0.9890493154525757],"translation":[0.0,0.0,131.57510375976563]},{"name":"3DGeom-1","mesh":0,"rotation":[0.0,0.0,0.0,-1.0]},{"children":[7],"rotation":[0.0,-0.14758539199829102,0.0,-0.9890493154525757],"translation":[274.5678405761719,0.0,44.64701461791992]},{"name":"3DGeom-2","mesh":1,"rotation":[0.0,0.0,0.0,-1.0]},{"children":[9],"rotation":[0.0,-0.14758539199829102,0.0,-0.9890493154525757],"translation":[366.0872497558594,0.0,15.660840034484864]},{"name":"3DGeom-3","mesh":2,"rotation":[0.0,0.0,0.0,-1.0]},{"children":[11],"rotation":[0.0,-0.14758539199829102,0.0,-0.9890493154525757],"translation":[91.52887725830078,0.0,102.61886596679688]},{"name":"3DGeom-4","mesh":3,"rotation":[0.0,0.0,0.0,-1.0]},{"children":[13],"rotation":[0.0,-0.14758539199829102,0.0,-0.9890493154525757],"translation":[183.04843139648438,0.0,73.63319396972656]},{"name":"3DGeom-5","mesh":4,"rotation":[0.0,0.0,0.0,-1.0]},{"children":[15,17,19,21,23,25],"rotation":[1.0,0.0,0.0,-0.0],"scale":[-1.0,-1.0,-1.0],"translation":[-473.9612121582031,0.06076502427458763,-141.02413940429688]},{"children":[16],"rotation":[0.0,-0.14758539199829102,0.0,-0.9890493154525757],"translation":[366.0872497558594,0.0,15.660840034484864]},{"name":"3DGeom-6","mesh":5,"rotation":[0.0,0.0,0.0,-1.0]},{"children":[18],"rotation":[0.0,-0.14758539199829102,0.0,-0.9890493154525757],"translation":[183.04843139648438,0.0,73.63319396972656]},{"name":"3DGeom-7","mesh":6,"rotation":[0.0,0.0,0.0,-1.0]},{"children":[20],"rotation":[0.0,-0.14758539199829102,0.0,-0.9890493154525757],"translation":[0.0,0.0,131.57510375976563]},{"name":"3DGeom-8","mesh":7,"rotation":[0.0,0.0,0.0,-1.0]},{"children":[22],"rotation":[0.0,-0.14758539199829102,0.0,-0.9890493154525757],"translation":[91.52887725830078,0.0,102.61886596679688]},{"name":"3DGeom-9","mesh":8,"rotation":[0.0,0.0,0.0,-1.0]},{"children":[24],"rotation":[0.0,-0.14758539199829102,0.0,-0.9890493154525757],"translation":[274.5678405761719,0.0,44.64701461791992]},{"name":"3DGeom-10","mesh":9,"rotation":[0.0,0.0,0.0,-1.0]},{"children":[26],"rotation":[0.0,-0.14758539199829102,0.0,-0.9890493154525757],"translation":[411.8469543457031,0.0,1.16775381565094]},{"name":"2DGeom","rotation":[0.0,0.0,0.0,-1.0]},{"children":[28,30,32,34,36],"rotation":[1.0,0.0,0.0,-0.0],"scale":[-1.0,-1.0,-1.0],"translation":[-12.883330345153809,0.0,4.383274078369141]},{"children":[29],"rotation":[0.0,-0.14758539199829102,0.0,-0.9890493154525757],"translation":[366.0872497558594,0.0,15.660840034484864]},{"name":"3DGeom-12","mesh":10,"rotation":[0.0,0.0,0.0,-1.0]},{"children":[31],"rotation":[0.0,-0.14758539199829102,0.0,-0.9890493154525757],"translation":[183.04843139648438,0.0,73.63319396972656]},{"name":"3DGeom-13","mesh":11,"rotation":[0.0,0.0,0.0,-1.0]},{"children":[33],"rotation":[0.0,-0.14758539199829102,0.0,-0.9890493154525757],"translation":[0.0,0.0,131.57510375976563]},{"name":"3DGeom-14","mesh":12,"rotation":[0.0,0.0,0.0,-1.0]},{"children":[35],"rotation":[0.0,-0.14758539199829102,0.0,-0.9890493154525757],"translation":[91.52887725830078,0.0,102.61886596679688]},{"name":"3DGeom-15","mesh":13,"rotation":[0.0,0.0,0.0,-1.0]},{"children":[37],"rotation":[0.0,-0.14758539199829102,0.0,-0.9890493154525757],"translation":[274.5678405761719,0.0,44.64701461791992]},{"name":"3DGeom-16","mesh":14,"rotation":[0.0,0.0,0.0,-1.0]}],"scene":0,"scenes":[{"nodes":[0]}],"textures":[{"source":0}]}