{
	"asset":{
		"generator":"Khronos glTF Blender I/O v3.6.27",
		"version":"2.0"
	},
	"scene":0,
	"scenes":[
		{
			"name":"Scene",
			"nodes":[
				0,
				6
			]
		}
	],
	"nodes":[
		{
			"name":"Node_3",
			"rotation":[
				0,
				-0.7071066498756409,
				-0.70710688829422,
				3.621554713254153e-18
			],
			"scale":[
				2.5399999618530273,
				2.53999924659729,
				2.53999924659729
			],
			"translation":[
				329.878173828125,
				520,
				0
			]
		},
		{
			"mesh":0,
			"name":"3DGeom-1",
			"translation":[
				-3.0517578125e-05,
				0,
				0
			]
		},
		{
			"mesh":1,
			"name":"3DGeom-2",
			"translation":[
				-3.0517578125e-05,
				0,
				0
			]
		},
		{
			"children":[
				1,
				2
			],
			"name":"Node_3.001",
			"rotation":[
				0,
				-0.7071066498756409,
				-0.70710688829422,
				3.621554713254153e-18
			],
			"scale":[
				2.5400002002716064,
				2.539999485015869,
				2.539999485015869
			],
			"translation":[
				329.878173828125,
				520,
				0
			]
		},
		{
			"children":[
				3
			],
			"name":"Assembly-2",
			"scale":[
				0.009999999776482582,
				0.009999999776482582,
				0.009999999776482582
			]
		},
		{
			"name":"Camera-3",
			"rotation":[
				0.70710688829422,
				0,
				0,
				0.7071066498756409
			],
			"translation":[
				2.0487821102142334,
				-4.784999847412109,
				1.0000001192092896
			]
		},
		{
			"children":[
				4,
				5
			],
			"name":"Node_0",
			"rotation":[
				-0.70710688829422,
				0,
				0,
				0.7071066498756409
			]
		}
	],
	"materials":[
		{
			"doubleSided":true,
			"name":"Material.004",
			"pbrMetallicRoughness":{
				"baseColorTexture":{
					"index":0
				},
				"metallicFactor":0,
				"roughnessFactor":0.5
			}
		},
		{
			"alphaCutoff":0.5,
			"alphaMode":"MASK",
			"doubleSided":true,
			"name":"[Color_005].008",
			"pbrMetallicRoughness":{}
		}
	],
	"meshes":[
		{
			"name":"Mesh_0.008",
			"primitives":[
				{
					"attributes":{
						"COLOR_0":0,
						"POSITION":1,
						"TEXCOORD_0":2
					},
					"indices":3,
					"material":0
				}
			]
		},
		{
			"name":"Mesh_1.008",
			"primitives":[
				{
					"attributes":{
						"POSITION":4
					},
					"indices":5,
					"material":1
				}
			]
		}
	],
	"textures":[
		{
			"sampler":0,
			"source":0
		}
	],
	"images":[
		{
			"bufferView":4,
			"mimeType":"image/png",
			"name":"plain_hail_texture"
		}
	],
	"accessors":[
		{
			"bufferView":0,
			"componentType":5123,
			"count":48,
			"normalized":true,
			"type":"VEC4"
		},
		{
			"bufferView":1,
			"componentType":5126,
			"count":48,
			"max":[
				94.48818969726562,
				74.80314636230469,
				0
			],
			"min":[
				3.9370079040527344,
				3.0240918761792984e-18,
				0
			],
			"type":"VEC3"
		},
		{
			"bufferView":2,
			"componentType":5126,
			"count":48,
			"type":"VEC2"
		},
		{
			"bufferView":3,
			"componentType":5123,
			"count":72,
			"type":"SCALAR"
		},
		{
			"bufferView":5,
			"componentType":5126,
			"count":62,
			"max":[
				98.4251937866211,
				78.74015808105469,
				1.1811023950576782
			],
			"min":[
				0,
				1.135959703518257e-28,
				0
			],
			"type":"VEC3"
		},
		{
			"bufferView":6,
			"componentType":5123,
			"count":138,
			"type":"SCALAR"
		}
	],
	"bufferViews":[
		{
			"buffer":0,
			"byteLength":384,
			"byteOffset":0,
			"target":34962
		},
		{
			"buffer":0,
			"byteLength":576,
			"byteOffset":384,
			"target":34962
		},
		{
			"buffer":0,
			"byteLength":384,
			"byteOffset":960,
			"target":34962
		},
		{
			"buffer":0,
			"byteLength":144,
			"byteOffset":1344,
			"target":34963
		},
		{
			"buffer":0,
			"byteLength":3753,
			"byteOffset":1488
		},
		{
			"buffer":0,
			"byteLength":744,
			"byteOffset":5244,
			"target":34962
		},
		{
			"buffer":0,
			"byteLength":276,
			"byteOffset":5988,
			"target":34963
		}
	],
	"samplers":[
		{
			"magFilter":9729,
			"minFilter":9987
		}
	],
	"buffers":[
		{
			"byteLength":6264,
			"uri":"data:application/octet-stream;base64,"
		}
	]
}
