{
	"asset":{
		"generator":"Khronos glTF Blender I/O v3.6.27",
		"version":"2.0"
	},
	"scene":0,
	"scenes":[
		{
			"name":"Scene",
			"nodes":[
				5
			]
		}
	],
	"nodes":[
		{
			"mesh":0,
			"name":"3DGeom-1",
			"translation":[
				-1.52587890625e-05,
				0,
				-1.52587890625e-05
			]
		},
		{
			"mesh":1,
			"name":"3DGeom-2",
			"translation":[
				-1.52587890625e-05,
				0,
				-1.52587890625e-05
			]
		},
		{
			"children":[
				0,
				1
			],
			"name":"Node_3",
			"rotation":[
				0,
				-0.7071067094802856,
				-0.70710688829422,
				3.621555126844459e-18
			],
			"scale":[
				2.5400002002716064,
				2.5399999618530273,
				2.5399999618530273
			],
			"translation":[
				329.878173828125,
				520,
				0
			]
		},
		{
			"children":[
				2
			],
			"name":"Assembly-2",
			"scale":[
				0.009999999776482582,
				0.009999999776482582,
				0.009999999776482582
			]
		},
		{
			"name":"Camera-3",
			"rotation":[
				0.70710688829422,
				0,
				0,
				0.7071066498756409
			],
			"translation":[
				2.0487821102142334,
				-4.784999847412109,
				0.9999999403953552
			]
		},
		{
			"children":[
				3,
				4
			],
			"name":"Node_0",
			"rotation":[
				-0.70710688829422,
				0,
				0,
				0.7071066498756409
			]
		}
	],
	"materials":[
		{
			"alphaCutoff":0.5,
			"alphaMode":"MASK",
			"doubleSided":true,
			"name":"#2",
			"pbrMetallicRoughness":{}
		},
		{
			"alphaCutoff":0.5,
			"alphaMode":"MASK",
			"doubleSided":true,
			"name":"[Color_005]",
			"pbrMetallicRoughness":{}
		}
	],
	"meshes":[
		{
			"name":"Mesh_0",
			"primitives":[
				{
					"attributes":{
						"POSITION":0,
						"NORMAL":1,
						"TEXCOORD_0":2
					},
					"indices":3,
					"material":0
				}
			]
		},
		{
			"name":"Mesh_1",
			"primitives":[
				{
					"attributes":{
						"POSITION":4,
						"NORMAL":5
					},
					"indices":6,
					"material":1
				}
			]
		}
	],
	"accessors":[
		{
			"bufferView":0,
			"componentType":5126,
			"count":48,
			"max":[
				94.48818969726562,
				74.80314636230469,
				0
			],
			"min":[
				3.9370079040527344,
				3.0240918761792984e-18,
				0
			],
			"type":"VEC3"
		},
		{
			"bufferView":1,
			"componentType":5126,
			"count":48,
			"type":"VEC3"
		},
		{
			"bufferView":2,
			"componentType":5126,
			"count":48,
			"type":"VEC2"
		},
		{
			"bufferView":3,
			"componentType":5123,
			"count":72,
			"type":"SCALAR"
		},
		{
			"bufferView":4,
			"componentType":5126,
			"count":62,
			"max":[
				98.4251937866211,
				78.74015808105469,
				1.1811023950576782
			],
			"min":[
				0,
				1.135959703518257e-28,
				0
			],
			"type":"VEC3"
		},
		{
			"bufferView":5,
			"componentType":5126,
			"count":62,
			"type":"VEC3"
		},
		{
			"bufferView":6,
			"componentType":5123,
			"count":138,
			"type":"SCALAR"
		}
	],
	"bufferViews":[
		{
			"buffer":0,
			"byteLength":576,
			"byteOffset":0,
			"target":34962
		},
		{
			"buffer":0,
			"byteLength":576,
			"byteOffset":576,
			"target":34962
		},
		{
			"buffer":0,
			"byteLength":384,
			"byteOffset":1152,
			"target":34962
		},
		{
			"buffer":0,
			"byteLength":144,
			"byteOffset":1536,
			"target":34963
		},
		{
			"buffer":0,
			"byteLength":744,
			"byteOffset":1680,
			"target":34962
		},
		{
			"buffer":0,
			"byteLength":744,
			"byteOffset":2424,
			"target":34962
		},
		{
			"buffer":0,
			"byteLength":276,
			"byteOffset":3168,
			"target":34963
		}
	],
	"buffers":[
		{
			"byteLength":3444,
			"uri":"data:application/octet-stream;base64,"
		}
	]
}
