{
	"asset":{
		"generator":"Khronos glTF Blender I/O v3.6.27",
		"version":"2.0"
	},
	"scene":0,
	"scenes":[
		{
			"name":"Scene",
			"nodes":[
				5
			]
		}
	],
	"nodes":[
		{
			"mesh":0,
			"name":"3DGeom-1",
			"translation":[
				-3.0517578125e-05,
				0,
				0
			]
		},
		{
			"mesh":1,
			"name":"3DGeom-2",
			"translation":[
				-3.0517578125e-05,
				0,
				0
			]
		},
		{
			"children":[
				0,
				1
			],
			"name":"Node_3",
			"rotation":[
				0,
				-0.7071066498756409,
				-0.70710688829422,
				3.621554713254153e-18
			],
			"scale":[
				2.5399999618530273,
				2.53999924659729,
				2.53999924659729
			],
			"translation":[
				329.878173828125,
				520,
				0
			]
		},
		{
			"children":[
				2
			],
			"name":"Assembly-2",
			"scale":[
				0.009999999776482582,
				0.009999999776482582,
				0.009999999776482582
			]
		},
		{
			"name":"Camera-3",
			"rotation":[
				0.70710688829422,
				0,
				0,
				0.7071066498756409
			],
			"translation":[
				2.0487821102142334,
				-4.784999847412109,
				1.0000001192092896
			]
		},
		{
			"children":[
				3,
				4
			],
			"name":"Node_0",
			"rotation":[
				-0.70710688829422,
				0,
				0,
				0.7071066498756409
			]
		}
	],
	"materials":[
		{
			"alphaCutoff":0.5,
			"alphaMode":"MASK",
			"doubleSided":true,
			"name":"#2.007",
			"pbrMetallicRoughness":{
				"baseColorTexture":{
					"index":0
				}
			}
		},
		{
			"alphaCutoff":0.5,
			"alphaMode":"MASK",
			"doubleSided":true,
			"name":"[Color_005].005",
			"pbrMetallicRoughness":{}
		}
	],
	"meshes":[
		{
			"name":"Mesh_0.005",
			"primitives":[
				{
					"attributes":{
						"POSITION":0,
						"TEXCOORD_0":1
					},
					"indices":2,
					"material":0
				}
			]
		},
		{
			"name":"Mesh_1.005",
			"primitives":[
				{
					"attributes":{
						"POSITION":3
					},
					"indices":4,
					"material":1
				}
			]
		}
	],
	"textures":[
		{
			"sampler":0,
			"source":0
		}
	],
	"images":[
		{
			"bufferView":3,
			"mimeType":"image/png",
			"name":"plain_hail_texture"
		}
	],
	"accessors":[
		{
			"bufferView":0,
			"componentType":5126,
			"count":516,
			"max":[
				94.48796844482422,
				74.80292510986328,
				0.02771828882396221
			],
			"min":[
				3.9370009899139404,
				3.0240858791198574e-18,
				-0.02289651334285736
			],
			"type":"VEC3"
		},
		{
			"bufferView":1,
			"componentType":5126,
			"count":516,
			"type":"VEC2"
		},
		{
			"bufferView":2,
			"componentType":5123,
			"count":1536,
			"type":"SCALAR"
		},
		{
			"bufferView":4,
			"componentType":5126,
			"count":62,
			"max":[
				98.4251937866211,
				78.74015808105469,
				1.1811023950576782
			],
			"min":[
				0,
				1.135959703518257e-28,
				0
			],
			"type":"VEC3"
		},
		{
			"bufferView":5,
			"componentType":5123,
			"count":138,
			"type":"SCALAR"
		}
	],
	"bufferViews":[
		{
			"buffer":0,
			"byteLength":6192,
			"byteOffset":0,
			"target":34962
		},
		{
			"buffer":0,
			"byteLength":4128,
			"byteOffset":6192,
			"target":34962
		},
		{
			"buffer":0,
			"byteLength":3072,
			"byteOffset":10320,
			"target":34963
		},
		{
			"buffer":0,
			"byteLength":3753,
			"byteOffset":13392
		},
		{
			"buffer":0,
			"byteLength":744,
			"byteOffset":17148,
			"target":34962
		},
		{
			"buffer":0,
			"byteLength":276,
			"byteOffset":17892,
			"target":34963
		}
	],
	"samplers":[
		{
			"magFilter":9729,
			"minFilter":9987
		}
	],
	"buffers":[
		{
			"byteLength":18168,
			"uri":"data:application/octet-stream;base64,"
		}
	]
}
