{
	"asset":{
		"generator":"Khronos glTF Blender I/O v3.6.27",
		"version":"2.0"
	},
	"scene":0,
	"scenes":[
		{
			"name":"Scene",
			"nodes":[
				0,
				1,
				2,
				3,
				4,
				5,
				11
			]
		}
	],
	"nodes":[
		{
			"name":"Node_3",
			"rotation":[
				0,
				-0.7071066498756409,
				-0.7071069478988647,
				3.621555540434765e-18
			],
			"scale":[
				2.5399997234344482,
				2.539999008178711,
				2.539999008178711
			],
			"translation":[
				329.878173828125,
				520,
				0
			]
		},
		{
			"name":"Node_3.001",
			"rotation":[
				0,
				-0.7071066498756409,
				-0.7071069478988647,
				3.621555540434765e-18
			],
			"scale":[
				2.5399997234344482,
				2.539999008178711,
				2.539999008178711
			],
			"translation":[
				329.878173828125,
				520,
				0
			]
		},
		{
			"name":"Node_3.002",
			"rotation":[
				0,
				-0.7071066498756409,
				-0.7071069478988647,
				3.621555540434765e-18
			],
			"scale":[
				2.5399997234344482,
				2.539999008178711,
				2.539999008178711
			],
			"translation":[
				329.878173828125,
				520,
				0
			]
		},
		{
			"name":"Node_3.003",
			"rotation":[
				0,
				-0.7071065902709961,
				-0.7071070075035095,
				3.621555540434765e-18
			],
			"scale":[
				2.5399999618530273,
				2.539999008178711,
				2.539999008178711
			],
			"translation":[
				329.878173828125,
				520,
				0
			]
		},
		{
			"name":"Node_3.004",
			"rotation":[
				0,
				-0.7071065902709961,
				-0.7071070075035095,
				3.621555540434765e-18
			],
			"scale":[
				2.5399999618530273,
				2.539999008178711,
				2.539999008178711
			],
			"translation":[
				329.878173828125,
				520,
				0
			]
		},
		{
			"name":"Node_3.005",
			"rotation":[
				0,
				-0.7071065902709961,
				-0.7071070075035095,
				3.621555540434765e-18
			],
			"scale":[
				2.5399999618530273,
				2.539999008178711,
				2.539999008178711
			],
			"translation":[
				329.878173828125,
				520,
				0
			]
		},
		{
			"mesh":0,
			"name":"3DGeom-1",
			"translation":[
				-4.57763671875e-05,
				0,
				0
			]
		},
		{
			"mesh":1,
			"name":"3DGeom-2",
			"translation":[
				-4.57763671875e-05,
				0,
				0
			]
		},
		{
			"children":[
				6,
				7
			],
			"name":"Node_3.006",
			"rotation":[
				0,
				-0.7071066498756409,
				-0.70710688829422,
				3.621555126844459e-18
			],
			"scale":[
				2.539999485015869,
				2.539998769760132,
				2.539998769760132
			],
			"translation":[
				329.878173828125,
				520,
				0
			]
		},
		{
			"children":[
				8
			],
			"name":"Assembly-2",
			"scale":[
				0.009999999776482582,
				0.009999999776482582,
				0.009999999776482582
			]
		},
		{
			"name":"Camera-3",
			"rotation":[
				0.70710688829422,
				0,
				0,
				0.7071066498756409
			],
			"translation":[
				2.0487821102142334,
				-4.784999847412109,
				1.0000001192092896
			]
		},
		{
			"children":[
				9,
				10
			],
			"name":"Node_0",
			"rotation":[
				-0.70710688829422,
				0,
				0,
				0.7071066498756409
			]
		}
	],
	"materials":[
		{
			"alphaCutoff":0.5,
			"alphaMode":"MASK",
			"doubleSided":true,
			"name":"#2.003",
			"pbrMetallicRoughness":{
				"baseColorTexture":{
					"index":0
				},
				"metallicFactor":0
			}
		},
		{
			"alphaCutoff":0.5,
			"alphaMode":"MASK",
			"doubleSided":true,
			"name":"[Color_005].007",
			"pbrMetallicRoughness":{
				"metallicFactor":0
			}
		}
	],
	"meshes":[
		{
			"name":"Mesh_0.007",
			"primitives":[
				{
					"attributes":{
						"POSITION":0,
						"NORMAL":1,
						"TEXCOORD_0":2
					},
					"indices":3,
					"material":0
				}
			]
		},
		{
			"name":"Mesh_1.007",
			"primitives":[
				{
					"attributes":{
						"POSITION":4,
						"NORMAL":5
					},
					"indices":6,
					"material":1
				}
			]
		}
	],
	"textures":[
		{
			"sampler":0,
			"source":0
		}
	],
	"images":[
		{
			"bufferView":4,
			"mimeType":"image/png",
			"name":"plain_hail_texture"
		}
	],
	"accessors":[
		{
			"bufferView":0,
			"componentType":5126,
			"count":346,
			"max":[
				94.4880142211914,
				74.80297088623047,
				0.027809852734208107
			],
			"min":[
				3.937002420425415,
				3.0240871198907762e-18,
				-0.022804971784353256
			],
			"type":"VEC3"
		},
		{
			"bufferView":1,
			"componentType":5126,
			"count":346,
			"type":"VEC3"
		},
		{
			"bufferView":2,
			"componentType":5126,
			"count":346,
			"type":"VEC2"
		},
		{
			"bufferView":3,
			"componentType":5123,
			"count":966,
			"type":"SCALAR"
		},
		{
			"bufferView":5,
			"componentType":5126,
			"count":62,
			"max":[
				98.4251937866211,
				78.74015808105469,
				1.1811023950576782
			],
			"min":[
				0,
				1.135959703518257e-28,
				0
			],
			"type":"VEC3"
		},
		{
			"bufferView":6,
			"componentType":5126,
			"count":62,
			"type":"VEC3"
		},
		{
			"bufferView":7,
			"componentType":5123,
			"count":138,
			"type":"SCALAR"
		}
	],
	"bufferViews":[
		{
			"buffer":0,
			"byteLength":4152,
			"byteOffset":0,
			"target":34962
		},
		{
			"buffer":0,
			"byteLength":4152,
			"byteOffset":4152,
			"target":34962
		},
		{
			"buffer":0,
			"byteLength":2768,
			"byteOffset":8304,
			"target":34962
		},
		{
			"buffer":0,
			"byteLength":1932,
			"byteOffset":11072,
			"target":34963
		},
		{
			"buffer":0,
			"byteLength":3753,
			"byteOffset":13004
		},
		{
			"buffer":0,
			"byteLength":744,
			"byteOffset":16760,
			"target":34962
		},
		{
			"buffer":0,
			"byteLength":744,
			"byteOffset":17504,
			"target":34962
		},
		{
			"buffer":0,
			"byteLength":276,
			"byteOffset":18248,
			"target":34963
		}
	],
	"samplers":[
		{
			"magFilter":9729,
			"minFilter":9987
		}
	],
	"buffers":[
		{
			"byteLength":18524,
			"uri":"data:application/octet-stream;base64,"
		}
	]
}
