{
	"asset":{
		"generator":"Khronos glTF Blender I/O v3.6.27",
		"version":"2.0"
	},
	"scene":0,
	"scenes":[
		{
			"name":"Scene",
			"nodes":[
				5
			]
		}
	],
	"nodes":[
		{
			"mesh":0,
			"name":"3DGeom-1",
			"translation":[
				-3.0517578125e-05,
				0,
				0
			]
		},
		{
			"mesh":1,
			"name":"3DGeom-2",
			"translation":[
				-3.0517578125e-05,
				0,
				0
			]
		},
		{
			"children":[
				0,
				1
			],
			"name":"Node_3",
			"rotation":[
				0,
				-0.7071066498756409,
				-0.70710688829422,
				3.621554713254153e-18
			],
			"scale":[
				2.5400002002716064,
				2.539999485015869,
				2.539999485015869
			],
			"translation":[
				329.878173828125,
				520,
				0
			]
		},
		{
			"children":[
				2
			],
			"name":"Assembly-2",
			"scale":[
				0.009999999776482582,
				0.009999999776482582,
				0.009999999776482582
			]
		},
		{
			"name":"Camera-3",
			"rotation":[
				0.70710688829422,
				0,
				0,
				0.7071066498756409
			],
			"translation":[
				2.0487821102142334,
				-4.784999847412109,
				1.0000001192092896
			]
		},
		{
			"children":[
				3,
				4
			],
			"name":"Node_0",
			"rotation":[
				-0.70710688829422,
				0,
				0,
				0.7071066498756409
			]
		}
	],
	"materials":[
		{
			"alphaCutoff":0.5,
			"alphaMode":"MASK",
			"doubleSided":true,
			"name":"#2.001",
			"pbrMetallicRoughness":{
				"baseColorTexture":{
					"index":0
				}
			}
		},
		{
			"alphaCutoff":0.5,
			"alphaMode":"MASK",
			"doubleSided":true,
			"name":"[Color_005].001",
			"pbrMetallicRoughness":{}
		}
	],
	"meshes":[
		{
			"name":"Mesh_0.001",
			"primitives":[
				{
					"attributes":{
						"POSITION":0,
						"NORMAL":1,
						"TEXCOORD_0":2
					},
					"indices":3,
					"material":0
				}
			]
		},
		{
			"name":"Mesh_1.001",
			"primitives":[
				{
					"attributes":{
						"POSITION":4,
						"NORMAL":5
					},
					"indices":6,
					"material":1
				}
			]
		}
	],
	"textures":[
		{
			"sampler":0,
			"source":0
		}
	],
	"images":[
		{
			"mimeType":"image/png",
			"name":"plain_hail_texture",
			"uri":"plain_hail_texture.png"
		}
	],
	"accessors":[
		{
			"bufferView":0,
			"componentType":5126,
			"count":340,
			"max":[
				94.4880142211914,
				74.80297088623047,
				0.027809852734208107
			],
			"min":[
				3.937002420425415,
				3.0240871198907762e-18,
				-0.022804971784353256
			],
			"type":"VEC3"
		},
		{
			"bufferView":1,
			"componentType":5126,
			"count":340,
			"type":"VEC3"
		},
		{
			"bufferView":2,
			"componentType":5126,
			"count":340,
			"type":"VEC2"
		},
		{
			"bufferView":3,
			"componentType":5123,
			"count":966,
			"type":"SCALAR"
		},
		{
			"bufferView":4,
			"componentType":5126,
			"count":62,
			"max":[
				98.4251937866211,
				78.74015808105469,
				1.1811023950576782
			],
			"min":[
				0,
				1.135959703518257e-28,
				0
			],
			"type":"VEC3"
		},
		{
			"bufferView":5,
			"componentType":5126,
			"count":62,
			"type":"VEC3"
		},
		{
			"bufferView":6,
			"componentType":5123,
			"count":138,
			"type":"SCALAR"
		}
	],
	"bufferViews":[
		{
			"buffer":0,
			"byteLength":4080,
			"byteOffset":0,
			"target":34962
		},
		{
			"buffer":0,
			"byteLength":4080,
			"byteOffset":4080,
			"target":34962
		},
		{
			"buffer":0,
			"byteLength":2720,
			"byteOffset":8160,
			"target":34962
		},
		{
			"buffer":0,
			"byteLength":1932,
			"byteOffset":10880,
			"target":34963
		},
		{
			"buffer":0,
			"byteLength":744,
			"byteOffset":12812,
			"target":34962
		},
		{
			"buffer":0,
			"byteLength":744,
			"byteOffset":13556,
			"target":34962
		},
		{
			"buffer":0,
			"byteLength":276,
			"byteOffset":14300,
			"target":34963
		}
	],
	"samplers":[
		{
			"magFilter":9729,
			"minFilter":9987
		}
	],
	"buffers":[
		{
			"byteLength":14576,
			"uri":"gate_half_glass.bin"
		}
	]
}
