{"accessors":[{"bufferView":0,"componentType":5125,"count":522,"max":[243.0],"min":[0.0],"type":"SCALAR"},{"bufferView":1,"componentType":5126,"count":244,"max":[86.08988189697266,34.3450813293457,1.5625],"min":[1.9648842811584473,3.0950818061828615,0.062499962747097018],"type":"VEC3"},{"bufferView":2,"componentType":5126,"count":244,"max":[1.0,1.0,1.0],"min":[-1.0,-1.0,-1.0],"type":"VEC3"},{"bufferView":3,"componentType":5125,"count":9,"max":[4.0],"min":[0.0],"type":"SCALAR"},{"bufferView":4,"componentType":5126,"count":5,"max":[85.14019775390625,4.0950822830200199,0.3749999701976776],"min":[58.952701568603519,4.0325822830200199,0.3092459440231323],"type":"VEC3"},{"bufferView":5,"componentType":5126,"count":5,"max":[0.0023866284172981979,0.9999971389770508,-4.3923211117226968e-15],"min":[0.0023866284172981979,0.9999971389770508,-4.3923211117226968e-15],"type":"VEC3"},{"bufferView":6,"componentType":5125,"count":804,"max":[803.0],"min":[0.0],"type":"SCALAR"},{"bufferView":7,"componentType":5126,"count":804,"max":[1000.0,370.5894775390625,35.71946716308594],"min":[0.0,0.0,0.0],"type":"VEC3"},{"bufferView":8,"componentType":5126,"count":804,"max":[1.0,1.0,1.0],"min":[-1.0,-1.0,-1.0],"type":"VEC3"},{"bufferView":9,"componentType":5125,"count":36,"max":[35.0],"min":[0.0],"type":"SCALAR"},{"bufferView":10,"componentType":5126,"count":36,"max":[1030.488037109375,362.927734375,30.899620056152345],"min":[30.488067626953126,29.98805046081543,22.975902557373048],"type":"VEC3"},{"bufferView":11,"componentType":5126,"count":36,"max":[0.0,0.0,-1.0],"min":[0.0,0.0,-1.0],"type":"VEC3"}],"asset":{"generator":"SimLab GLTF","version":"2.0"},"bufferViews":[{"buffer":0,"byteLength":2088,"target":34963},{"buffer":0,"byteLength":2928,"byteOffset":2088,"byteStride":12,"target":34962},{"buffer":0,"byteLength":2928,"byteOffset":5016,"byteStride":12,"target":34962},{"buffer":0,"byteLength":36,"byteOffset":7944,"target":34963},{"buffer":0,"byteLength":60,"byteOffset":7980,"byteStride":12,"target":34962},{"buffer":0,"byteLength":60,"byteOffset":8040,"byteStride":12,"target":34962},{"buffer":0,"byteLength":3216,"byteOffset":8100,"target":34963},{"buffer":0,"byteLength":9648,"byteOffset":11316,"byteStride":12,"target":34962},{"buffer":0,"byteLength":9648,"byteOffset":20964,"byteStride":12,"target":34962},{"buffer":0,"byteLength":144,"byteOffset":30612,"target":34963},{"buffer":0,"byteLength":432,"byteOffset":30756,"byteStride":12,"target":34962},{"buffer":0,"byteLength":432,"byteOffset":31188,"byteStride":12,"target":34962}],"buffers":[{"byteLength":31620,"uri":"3_windows.bin"}],"extensionsUsed":["KHR_materials_pbrSpecularGlossiness"],"materials":[{"extensions":{"KHR_materials_pbrSpecularGlossiness":{"diffuseFactor":[1.0,0.0,0.0,1.0],"specularFactor":[0.5,0.0,0.0],"glossinessFactor":0.5}},"name":"Material","alphaMode":"MASK","doubleSided":true,"pbrMetallicRoughness":{"baseColorFactor":[1.0,0.0,0.0,1.0],"metallicFactor":0.5,"roughnessFactor":0.5}},{"extensions":{"KHR_materials_pbrSpecularGlossiness":{"diffuseFactor":[0.8999999761581421,0.8999999761581421,0.8999999761581421,1.0],"specularFactor":[0.25,0.25,0.25],"glossinessFactor":0.5}},"name":"DefaultMaterial~1","alphaMode":"MASK","doubleSided":true,"pbrMetallicRoughness":{"baseColorFactor":[0.8999999761581421,0.8999999761581421,0.8999999761581421,1.0],"metallicFactor":0.5,"roughnessFactor":0.5}},{"extensions":{"KHR_materials_pbrSpecularGlossiness":{"diffuseFactor":[0.8980392217636108,0.8980392217636108,0.8980392217636108,1.0],"specularFactor":[0.4490196108818054,0.4490196108818054,0.4490196108818054],"glossinessFactor":0.5}},"name":"DefaultMaterial~1","alphaMode":"MASK","doubleSided":true,"pbrMetallicRoughness":{"baseColorFactor":[0.8980392217636108,0.8980392217636108,0.8980392217636108,1.0],"metallicFactor":0.5,"roughnessFactor":0.5}},{"extensions":{"KHR_materials_pbrSpecularGlossiness":{"diffuseFactor":[1.0,1.0,1.0,0.6509804129600525],"specularFactor":[0.5,0.5,0.5],"glossinessFactor":0.5}},"name":"[White]","alphaCutoff":0.6499999761581421,"alphaMode":"BLEND","doubleSided":true,"pbrMetallicRoughness":{"baseColorFactor":[1.0,1.0,1.0,0.6499999761581421],"metallicFactor":0.5,"roughnessFactor":0.5}}],"meshes":[{"primitives":[{"attributes":{"NORMAL":2,"POSITION":1},"indices":0,"material":0,"mode":4}]},{"primitives":[{"attributes":{"NORMAL":5,"POSITION":4},"indices":3,"material":1,"mode":4}]},{"primitives":[{"attributes":{"NORMAL":8,"POSITION":7},"indices":6,"material":2,"mode":4}]},{"primitives":[{"attributes":{"NORMAL":11,"POSITION":10},"indices":9,"material":3,"mode":4}]}],"nodes":[{"children":[1,2],"matrix":[1.0,0.0,0.0,0.0,0.0,4.4896593387466768e-11,-1.0,0.0,0.0,1.0,4.4896593387466768e-11,0.0,0.0,0.0,0.0,1.0]},{"name":"Camera-2","rotation":[-0.7071067690849304,0.0,0.0,-0.7071067690849304],"translation":[1.1182955503463746,-8.071609497070313,0.04048124700784683]},{"name":"Assembly-12","children":[3,4,5],"rotation":[0.0,0.0,0.0,-1.0],"scale":[0.02539999969303608,0.02539999969303608,0.02539999969303608]},{"name":"3DGeom-1","mesh":0,"rotation":[0.0,0.0,0.0,-1.0]},{"name":"3DGeom-2","mesh":1,"rotation":[0.0,0.0,0.0,-1.0]},{"name":"Assembly-5","children":[6,9],"rotation":[1.0,0.0,0.0,-2.3245294578089217e-16],"translation":[0.0,37.440162658691409,3.125]},{"name":"3DGeom-1","children":[7,8],"matrix":[0.08398781716823578,0.0,0.0,0.0,0.0,0.08398781716823578,1.0227239767855467e-19,0.0,0.0,-1.0227239767855467e-19,0.08398781716823578,0.0,2.0273842811584474,3.1575822830200197,3.845004320845552e-18,1.0]},{"name":"3DGeom-3","mesh":2,"rotation":[0.0,0.0,0.0,-1.0]},{"name":"2DGeom","rotation":[0.0,0.0,0.0,-1.0]},{"name":"3DGeom-2","children":[10],"rotation":[-6.088525971218267e-19,0.0,0.0,-1.0],"scale":[0.0791982114315033,0.0791982114315033,0.0791982114315033],"translation":[2.0273842811584474,3.1575822830200197,3.845004320845552e-18]},{"name":"3DGeom-5","mesh":3,"rotation":[0.0,0.0,0.0,-1.0]}],"scene":0,"scenes":[{"nodes":[0]}]}