<?xml version="1.0" standalone="no"?>
<!DOCTYPE svg PUBLIC "-//W3C//DTD SVG 20010904//EN"
 "http://www.w3.org/TR/2001/REC-SVG-20010904/DTD/svg10.dtd">
<svg version="1.0" xmlns="http://www.w3.org/2000/svg"
 width="3125.000000pt" height="3125.000000pt" viewBox="0 0 3125.000000 3125.000000"
 preserveAspectRatio="xMidYMid meet">
<metadata>
Created by potrace 1.14, written by Peter Selinger 2001-2017
</metadata>
<g transform="translate(0.000000,3125.000000) scale(0.100000,-0.100000)"
fill="#000000" stroke="none">
<path d="M16553 23877 l-143 -72 0 -4562 0 -4563 350 0 350 0 2 1772 3 1772
470 289 470 288 6 -1808 c3 -994 7 -1922 8 -2060 l1 -253 330 0 330 0 0 2804
0 2805 475 285 475 285 0 -3089 0 -3090 805 0 c443 0 805 3 805 6 0 3 -16 60
-35 127 l-35 121 0 2037 0 2038 -762 931 -763 931 -5 576 -5 576 -1440 963
-1440 963 -55 0 c-48 0 -73 -9 -197 -72z"/>
<path d="M16030 23622 l-185 -88 -3 -4427 -2 -4427 200 0 200 0 0 4515 c0
3605 -3 4515 -12 4515 -7 0 -96 -40 -198 -88z"/>
<path d="M15460 23360 l-185 -88 -3 -4296 -2 -4296 200 0 200 0 0 4385 c0
3502 -3 4385 -12 4384 -7 0 -96 -40 -198 -89z"/>
<path d="M14903 23088 l-183 -81 0 -4163 0 -4164 195 0 195 0 0 4245 c0 3390
-3 4245 -12 4245 -7 -1 -95 -37 -195 -82z"/>
<path d="M14343 22825 l-193 -93 0 -4026 0 -4026 195 0 195 0 0 4120 c0 2266
-1 4120 -2 4120 -2 -1 -90 -43 -195 -95z"/>
<path d="M13778 22557 l-188 -90 0 -3894 0 -3893 195 0 195 0 0 3985 c0 2192
-3 3985 -7 3984 -5 0 -92 -42 -195 -92z"/>
<path d="M13223 22285 l-193 -94 0 -3755 0 -3756 195 0 195 0 0 3850 c0 2118
-1 3850 -2 3849 -2 0 -90 -42 -195 -94z"/>
<path d="M11993 20027 l-783 -362 0 -182 c0 -101 1 -183 3 -183 1 0 355 164
787 364 l785 364 3 181 c1 100 -1 181 -5 181 -5 0 -360 -163 -790 -363z"/>
<path d="M11993 19463 l-783 -366 0 -178 c0 -139 3 -177 13 -173 6 2 361 165
787 362 l775 357 3 183 c1 100 -1 182 -5 181 -5 0 -360 -165 -790 -366z"/>
<path d="M11990 18900 l-775 -359 -3 -181 c-1 -99 1 -180 5 -180 5 0 360 163
790 362 l783 363 0 178 c0 135 -3 177 -12 176 -7 0 -362 -162 -788 -359z"/>
<path d="M11370 18051 l-1405 -648 -3 -182 c-1 -100 1 -181 5 -178 5 2 641
295 1416 652 l1407 648 0 178 c0 99 -3 179 -7 179 -5 -1 -640 -292 -1413 -649z"/>
<path d="M11370 17489 l-1405 -649 -3 -181 c-2 -154 0 -180 12 -177 8 2 645
293 1415 648 l1401 645 0 183 c0 100 -3 182 -7 181 -5 -1 -640 -293 -1413
-650z"/>
<path d="M11363 16923 l-1403 -647 0 -179 c0 -166 1 -178 18 -173 9 3 645 296
1412 651 l1395 644 3 176 c2 137 0 175 -10 175 -7 -1 -644 -292 -1415 -647z"/>
<path d="M11358 16361 l-1397 -646 -1 -189 c0 -173 1 -188 17 -182 9 4 646
300 1415 659 l1398 652 0 178 c0 162 -1 177 -17 176 -10 -1 -647 -292 -1415
-648z"/>
<path d="M11365 15795 l-1400 -653 -3 -231 -2 -231 1415 0 1415 0 0 885 c0
702 -3 885 -12 884 -7 0 -643 -294 -1413 -654z"/>
<path d="M4702 12820 c-314 -40 -572 -166 -713 -350 -59 -76 -120 -198 -145
-290 -28 -102 -26 -303 4 -400 47 -151 133 -271 263 -369 153 -116 308 -175
749 -286 310 -77 479 -126 564 -162 83 -34 189 -106 224 -151 125 -158 119
-375 -15 -540 -131 -161 -450 -254 -764 -223 -155 16 -267 47 -399 113 -83 42
-120 67 -176 123 -39 38 -83 93 -98 120 -36 64 -83 205 -92 273 -4 32 -13 56
-21 59 -13 5 -250 -11 -339 -23 l-41 -6 5 -56 c23 -317 183 -598 437 -767 146
-97 316 -157 540 -192 156 -24 456 -23 590 1 266 49 482 158 633 321 168 183
253 435 223 667 -29 226 -125 394 -298 524 -183 138 -309 184 -923 333 -371
91 -518 149 -599 236 -68 74 -86 123 -86 235 0 86 3 101 32 163 39 81 115 159
200 205 123 65 332 95 563 80 356 -22 565 -195 621 -513 l11 -66 52 5 c28 4
116 11 196 17 80 6 145 11 146 12 1 1 -3 38 -7 81 -13 109 -34 187 -79 282
-133 286 -367 452 -739 525 -122 23 -400 34 -519 19z"/>
<path d="M11555 12819 c-44 -5 -124 -21 -177 -34 -346 -87 -559 -265 -662
-553 -30 -83 -31 -93 -31 -242 1 -141 3 -162 28 -236 60 -180 190 -323 390
-429 116 -62 302 -122 667 -214 475 -120 584 -162 696 -264 169 -154 168 -419
-2 -597 -244 -256 -875 -278 -1221 -42 -154 105 -243 252 -284 470 l-12 62
-41 0 c-22 0 -106 -7 -186 -15 -80 -8 -149 -15 -154 -15 -14 0 3 -142 29 -248
45 -174 134 -332 259 -458 194 -193 444 -292 826 -325 665 -57 1176 230 1290
726 30 130 25 311 -12 427 -69 210 -230 382 -461 492 -109 52 -266 100 -537
167 -597 145 -727 194 -811 304 -44 58 -57 90 -69 162 -33 201 116 400 351
467 149 43 425 51 586 17 241 -50 400 -194 462 -421 12 -41 21 -87 21 -102 0
-15 4 -29 8 -32 10 -6 384 23 391 30 12 11 -20 190 -49 274 -111 333 -381 542
-795 615 -109 20 -390 27 -500 14z"/>
<path d="M17232 12820 c-394 -50 -670 -220 -802 -495 -60 -125 -74 -189 -74
-345 0 -121 3 -143 28 -215 53 -153 129 -258 257 -354 153 -116 308 -175 749
-286 463 -116 573 -153 692 -231 150 -100 213 -253 177 -426 -50 -236 -269
-383 -626 -419 -219 -23 -438 16 -629 112 -120 59 -205 131 -263 224 -46 72
-96 210 -107 293 -4 32 -13 56 -21 59 -13 5 -250 -11 -339 -23 l-42 -6 4 -41
c19 -179 45 -280 104 -398 81 -164 188 -286 335 -384 146 -97 316 -157 540
-192 156 -24 456 -23 590 1 488 89 802 385 856 806 20 153 -14 336 -87 468
-105 189 -300 333 -571 421 -132 44 -209 64 -563 150 -371 91 -518 149 -599
236 -68 74 -86 123 -86 235 0 86 3 101 32 163 60 127 188 221 357 262 90 22
268 32 406 23 356 -22 565 -195 621 -513 l11 -66 52 5 c28 4 116 11 196 17 80
6 145 11 146 12 1 1 -3 38 -7 81 -13 109 -34 187 -79 282 -133 286 -367 452
-739 525 -122 23 -400 34 -519 19z"/>
<path d="M6660 11250 l0 -1530 205 0 205 0 0 529 0 529 249 241 249 241 539
-767 540 -768 272 -3 c149 -1 271 0 271 2 0 3 -299 412 -665 908 -366 497
-664 906 -662 909 1 3 286 279 632 613 347 335 632 613 633 617 2 5 -121 9
-275 9 l-278 0 -750 -750 -750 -750 -3 750 -2 750 -205 0 -205 0 0 -1530z"/>
<path d="M13220 12775 c0 -3 263 -400 585 -882 l585 -876 0 -649 0 -648 205 0
205 0 0 644 0 644 610 881 c336 485 610 884 610 886 0 3 -107 5 -239 5 l-239
0 -268 -407 c-360 -547 -473 -722 -569 -885 l-82 -136 -61 107 c-91 160 -235
386 -557 879 l-289 442 -248 0 c-136 0 -248 -2 -248 -5z"/>
<path d="M18980 12595 l0 -185 500 0 500 0 0 -1345 0 -1345 208 2 207 3 3
1343 2 1342 500 0 500 0 0 185 0 185 -1210 0 -1210 0 0 -185z"/>
<path d="M21815 12768 c-3 -7 -4 -695 -3 -1528 l3 -1515 1143 -3 1142 -2 0
185 0 185 -935 0 -935 0 0 515 0 515 840 0 840 0 0 185 0 185 -840 0 -840 0 0
460 0 460 900 0 900 0 0 185 0 185 -1105 0 c-875 0 -1107 -3 -1110 -12z"/>
<path d="M24630 11250 l0 -1530 200 0 200 0 2 1276 3 1276 319 -939 c175 -516
370 -1090 434 -1276 l115 -337 185 2 185 3 436 1256 436 1257 3 -1259 2 -1259
200 0 200 0 0 1530 0 1530 -277 0 -278 0 -339 -988 c-344 -997 -546 -1591
-546 -1601 0 -3 -42 122 -93 279 -51 157 -246 741 -432 1297 l-340 1013 -307
0 -308 0 0 -1530z"/>
<path d="M3710 8955 l0 -35 11915 0 11915 0 0 35 0 35 -11915 0 -11915 0 0
-35z"/>
<path d="M3917 8089 c-140 -33 -213 -164 -158 -284 33 -73 81 -97 325 -164 90
-25 122 -43 140 -80 29 -57 4 -118 -63 -154 -39 -21 -58 -25 -126 -23 -121 2
-195 47 -218 133 l-11 43 -46 -3 c-54 -4 -59 -16 -35 -86 28 -86 98 -147 195
-170 217 -52 404 42 415 208 3 47 -17 111 -44 144 -33 39 -158 93 -257 111
-160 29 -223 91 -179 176 25 48 68 64 165 64 96 0 135 -16 166 -68 19 -32 21
-36 23 -61 1 -13 12 -15 51 -14 47 2 50 4 50 29 0 37 -46 121 -82 149 -66 53
-205 75 -311 50z"/>
<path d="M9090 8078 c-82 -31 -126 -65 -174 -138 -97 -148 -76 -426 43 -553
119 -129 371 -135 493 -13 40 40 77 101 92 153 6 19 2 23 -31 32 -58 16 -62
15 -87 -41 -28 -63 -53 -91 -104 -117 -52 -26 -116 -31 -178 -14 -116 33 -173
123 -180 283 -10 218 85 342 261 339 93 -1 157 -41 191 -120 17 -36 21 -39 49
-35 17 3 41 9 53 13 l22 9 -25 50 c-32 63 -84 117 -144 146 -65 32 -203 35
-281 6z"/>
<path d="M10121 8080 c-150 -55 -241 -198 -243 -381 -1 -273 198 -451 453
-406 182 32 297 185 297 395 1 175 -68 306 -191 369 -65 32 -76 35 -177 39
-67 3 -97 0 -139 -16z m248 -95 c93 -46 145 -137 154 -265 4 -61 -13 -163 -36
-206 -93 -180 -364 -183 -460 -7 -46 86 -55 215 -21 325 21 71 83 139 148 162
67 24 158 20 215 -9z"/>
<path d="M12185 8086 c-107 -34 -165 -105 -165 -203 0 -58 23 -106 69 -141 46
-36 93 -55 223 -87 185 -47 230 -94 188 -196 -9 -20 -29 -37 -68 -55 -49 -23
-65 -26 -127 -22 -96 6 -157 36 -190 92 -14 24 -25 53 -25 65 0 21 -3 23 -47
18 -27 -3 -49 -6 -50 -6 -11 -3 1 -65 21 -106 49 -107 171 -167 320 -158 82 4
126 18 182 56 90 60 123 175 77 267 -39 78 -86 101 -338 170 -98 26 -125 47
-132 98 -10 73 46 122 147 128 116 8 201 -38 217 -117 5 -26 10 -29 42 -29 51
0 63 11 56 50 -21 118 -132 191 -289 189 -39 0 -89 -6 -111 -13z"/>
<path d="M16195 8093 c-207 -56 -312 -246 -272 -493 28 -166 133 -284 272
-306 113 -17 191 -6 268 39 64 38 124 118 141 189 6 25 3 28 -41 41 -53 15
-63 14 -63 -11 0 -27 -39 -94 -73 -124 -63 -57 -178 -69 -262 -26 -98 49 -148
165 -140 329 8 171 97 273 242 278 104 4 184 -43 215 -126 13 -36 23 -38 80
-20 l38 12 -24 52 c-28 60 -81 115 -140 145 -31 16 -64 22 -131 24 -49 2 -99
0 -110 -3z"/>
<path d="M18646 8088 c-9 -5 -25 -11 -35 -13 -28 -5 -92 -48 -128 -86 -17 -19
-47 -65 -65 -104 -31 -67 -33 -76 -33 -185 0 -97 4 -125 24 -178 40 -105 135
-194 236 -221 221 -59 427 60 475 275 35 156 -15 355 -109 432 -82 66 -162 94
-269 91 -44 -1 -87 -6 -96 -11z m240 -110 c83 -45 133 -144 139 -271 8 -194
-100 -329 -264 -330 -110 -1 -199 55 -243 151 -26 57 -28 73 -29 164 0 78 12
142 36 188 32 62 112 116 188 126 23 4 43 7 45 9 6 5 99 -22 128 -37z"/>
<path d="M20672 8081 c-167 -57 -206 -262 -66 -350 50 -32 79 -42 241 -86 144
-38 173 -67 164 -166 -2 -31 -61 -77 -113 -90 -138 -33 -273 25 -301 128 l-11
43 -46 -3 c-45 -4 -45 -4 -44 -40 3 -89 86 -182 188 -212 220 -64 424 35 431
210 5 129 -72 193 -299 249 -121 30 -158 46 -180 78 -32 45 -9 115 47 145 48
26 191 25 232 -2 43 -28 63 -55 71 -92 6 -30 9 -33 43 -32 67 1 71 6 52 66
-19 64 -69 119 -131 146 -64 29 -206 33 -278 8z"/>
<path d="M22187 8086 c-150 -44 -211 -196 -126 -317 17 -25 102 -77 136 -84
10 -1 63 -15 118 -30 155 -41 192 -64 200 -124 9 -70 -33 -120 -120 -142 -133
-34 -280 33 -299 136 -7 36 -7 36 -54 32 -47 -4 -47 -4 -45 -40 5 -108 102
-200 238 -224 136 -24 262 10 330 90 63 73 69 181 15 256 -29 39 -122 94 -180
104 -87 17 -206 53 -233 71 -61 41 -58 120 8 164 41 28 129 38 196 22 62 -15
105 -54 115 -105 6 -36 7 -36 55 -34 26 2 50 7 52 13 8 23 -25 103 -56 138
-49 56 -115 81 -217 85 -51 1 -104 -3 -133 -11z"/>
<path d="M24135 8091 c-118 -29 -187 -113 -180 -219 5 -63 27 -104 75 -137 45
-30 88 -46 234 -86 136 -37 173 -61 183 -121 4 -27 0 -45 -16 -71 -32 -53 -80
-72 -181 -72 -75 0 -91 3 -136 29 -51 27 -70 54 -89 124 -6 20 -12 22 -53 19
-46 -4 -47 -4 -45 -37 1 -18 5 -40 9 -49 4 -9 8 -18 8 -21 5 -20 33 -60 60
-84 59 -55 160 -84 273 -80 124 5 229 73 259 168 20 62 14 125 -16 174 -33 53
-129 105 -236 126 -73 15 -157 41 -183 57 -56 34 -63 98 -18 148 29 31 61 43
130 48 108 7 185 -34 205 -111 8 -29 11 -31 58 -31 49 0 49 0 46 30 -9 87 -78
161 -175 190 -52 16 -160 18 -212 6z"/>
<path d="M4650 8045 c0 -25 5 -45 13 -47 6 -2 65 -4 130 -3 l117 1 0 -348 0
-348 53 0 52 0 0 348 0 347 115 1 c63 1 122 2 131 3 11 1 15 12 15 44 l-1 42
-313 2 -312 1 0 -43z"/>
<path d="M5616 7701 c1 -212 2 -389 3 -393 0 -5 133 -8 294 -8 l293 0 0 45
c-1 41 -3 45 -26 46 -14 0 -123 0 -242 0 l-218 0 0 134 0 135 219 0 218 0 -2
43 c-1 23 -3 44 -4 47 0 3 -98 4 -216 3 l-216 -2 3 122 3 122 220 1 c121 1
225 2 231 3 6 0 11 19 10 44 l-1 42 -285 1 -285 2 1 -387z"/>
<path d="M6580 7694 l0 -394 296 0 295 0 -3 47 -3 46 -237 -2 c-188 -1 -238 1
-239 11 -1 7 -2 68 -3 136 l-1 122 217 0 c167 0 218 3 219 13 4 63 3 77 -6 78
-5 0 -105 1 -220 1 l-210 1 1 116 c1 64 2 118 3 121 0 3 105 5 231 5 l230 -1
0 47 0 48 -285 -1 -285 -1 0 -393z"/>
<path d="M7540 7694 l0 -394 245 0 c189 0 245 3 246 13 0 6 2 25 3 41 1 16 -4
30 -11 33 -7 3 -95 6 -196 7 l-182 1 0 345 0 345 -53 1 -52 2 0 -394z"/>
<path d="M10995 7697 l0 -392 50 -3 50 -3 0 306 c0 168 2 305 5 305 3 -1 95
-137 206 -303 l201 -302 55 -3 56 -3 -1 395 0 394 -51 -1 -50 -2 0 -302 c0
-167 -2 -303 -5 -302 -3 0 -96 137 -206 302 l-201 302 -54 2 -55 2 0 -392z"/>
<path d="M12935 8082 c-3 -3 -5 -24 -5 -47 l0 -41 118 1 c64 1 123 -1 130 -3
9 -3 12 -82 12 -349 l0 -344 52 3 52 3 0 345 1 345 125 1 c69 1 128 2 131 3 4
1 5 39 0 78 -1 8 -81 11 -306 11 -167 0 -306 -3 -310 -6z"/>
<path d="M13904 8082 c-7 -5 -11 -128 -11 -394 l1 -388 52 0 52 0 0 158 c0 86
0 165 1 176 1 17 8 18 99 14 71 -3 105 -10 125 -22 31 -21 101 -114 178 -238
l54 -88 67 0 68 0 -55 83 c-31 45 -59 89 -62 97 -16 37 -99 134 -131 153 l-35
21 51 17 c71 24 104 45 129 82 74 109 32 261 -87 315 -28 12 -81 16 -260 18
-124 2 -230 0 -236 -4z m441 -102 c23 -11 48 -32 55 -45 20 -38 17 -100 -6
-132 -37 -50 -66 -58 -236 -61 -148 -4 -158 -3 -159 15 -1 23 -1 214 0 231 1
9 38 12 153 12 131 0 157 -3 193 -20z"/>
<path d="M14920 7808 c2 -302 8 -345 56 -418 91 -137 409 -138 505 -2 50 71
52 88 57 404 l4 296 -51 0 c-28 1 -51 -2 -52 -6 -1 -4 -2 -126 -3 -272 -2
-174 -7 -280 -15 -309 -25 -87 -99 -128 -218 -118 -81 6 -129 35 -156 96 -19
43 -21 66 -22 326 l-1 280 -52 1 -53 2 1 -280z"/>
<path d="M16910 8044 c0 -24 3 -45 8 -45 4 -1 59 -2 122 -4 63 -1 120 -3 125
-4 7 -1 9 -121 7 -346 l-3 -345 54 0 53 0 -1 345 c0 223 4 345 10 346 6 1 64
2 130 3 l120 1 0 45 0 45 -312 1 -313 2 0 -44z"/>
<path d="M17890 7696 l0 -396 53 0 53 0 -1 393 0 392 -52 3 -53 3 0 -395z"/>
<path d="M19499 8087 c0 -1 -1 -179 -2 -395 l-2 -392 51 0 51 0 -1 310 c-1
170 2 306 5 302 4 -4 97 -143 208 -309 l201 -303 55 0 55 0 0 393 0 393 -50 1
-50 2 -2 -307 -3 -307 -204 306 -205 305 -53 2 c-29 1 -53 0 -54 -1z"/>
<path d="M22929 8061 c12 -16 21 -34 21 -39 0 -6 4 -12 8 -14 5 -1 65 -87 133
-189 l124 -186 -1 -167 -2 -166 54 0 53 0 -1 166 -1 165 49 72 c27 40 51 74
54 77 3 3 19 25 35 50 16 25 55 81 86 125 31 44 64 92 73 107 l18 28 -61 -1
-60 -1 -99 -152 c-54 -83 -107 -165 -117 -183 -14 -25 -22 -30 -32 -21 -7 6
-13 14 -13 19 0 5 -34 62 -76 126 -42 65 -90 139 -106 164 l-30 47 -64 1 -65
1 20 -29z"/>
<path d="M24869 8087 c-1 -1 -3 -21 -4 -44 -3 -51 -5 -50 145 -48 l115 1 -1
-348 -1 -348 52 0 52 0 1 293 c0 160 1 317 1 348 l1 55 120 -1 c66 -1 125 2
131 5 6 4 9 25 7 46 l-3 39 -307 2 c-170 1 -309 1 -309 0z"/>
<path d="M25829 8051 c0 -20 0 -196 -1 -391 l0 -355 294 -3 294 -2 1 45 c1 44
0 45 -31 46 -17 0 -125 1 -241 2 l-210 2 -3 133 -2 132 220 0 220 0 0 48 0 47
-220 -1 -220 -1 1 121 0 121 222 -1 c122 0 228 2 235 4 7 2 12 22 12 47 l0 43
-285 0 -285 0 -1 -37z"/>
<path d="M26790 8051 c-1 -20 -1 -196 -1 -391 l-1 -355 51 -3 52 -3 -3 330
c-2 182 0 327 4 323 6 -6 152 -431 201 -585 l22 -68 49 3 50 3 64 185 c35 102
86 248 113 325 26 77 49 136 49 130 0 -5 0 -153 0 -327 l-1 -318 51 0 50 0 0
153 c1 188 1 503 0 578 l0 57 -69 0 c-80 1 -65 20 -130 -173 -40 -118 -77
-226 -88 -255 -3 -8 -7 -22 -9 -30 -2 -8 -9 -30 -17 -50 -8 -19 -20 -53 -27
-75 -31 -98 -23 -112 -143 246 l-112 334 -77 1 -78 2 0 -37z"/>
</g>
</svg>
