{"accessors":[{"bufferView":0,"componentType":5125,"count":300,"max":[159.0],"min":[0.0],"type":"SCALAR"},{"bufferView":1,"componentType":5126,"count":160,"max":[50.54814147949219,2.8184056282043459,69.1773681640625],"min":[-0.125,1.3779528141021729,-0.125],"type":"VEC3"},{"bufferView":2,"componentType":5126,"count":160,"max":[1.0,1.0,1.0],"min":[-1.0,-1.0,-1.0],"type":"VEC3"},{"bufferView":3,"componentType":5125,"count":204,"max":[203.0],"min":[0.0],"type":"SCALAR"},{"bufferView":4,"componentType":5126,"count":204,"max":[730.2159423828125,39.910369873046878,1000.0],"min":[0.0,0.0,0.0],"type":"VEC3"},{"bufferView":5,"componentType":5126,"count":204,"max":[1.0,1.0,1.0],"min":[-1.0,-1.0,-1.0],"type":"VEC3"},{"bufferView":6,"componentType":5125,"count":12,"max":[11.0],"min":[0.0],"type":"SCALAR"},{"bufferView":7,"componentType":5126,"count":12,"max":[750.1057739257813,37.868247985839847,1043.1982421875],"min":[43.19827651977539,25.4801082611084,43.19827651977539],"type":"VEC3"},{"bufferView":8,"componentType":5126,"count":12,"max":[0.0,1.0,0.0],"min":[0.0,-1.0,0.0],"type":"VEC3"}],"asset":{"generator":"SimLab GLTF","version":"2.0"},"bufferViews":[{"buffer":0,"byteLength":1200,"target":34963},{"buffer":0,"byteLength":1920,"byteOffset":1200,"byteStride":12,"target":34962},{"buffer":0,"byteLength":1920,"byteOffset":3120,"byteStride":12,"target":34962},{"buffer":0,"byteLength":816,"byteOffset":5040,"target":34963},{"buffer":0,"byteLength":2448,"byteOffset":5856,"byteStride":12,"target":34962},{"buffer":0,"byteLength":2448,"byteOffset":8304,"byteStride":12,"target":34962},{"buffer":0,"byteLength":48,"byteOffset":10752,"target":34963},{"buffer":0,"byteLength":144,"byteOffset":10800,"byteStride":12,"target":34962},{"buffer":0,"byteLength":144,"byteOffset":10944,"byteStride":12,"target":34962}],"buffers":[{"byteLength":11088,"uri":"1_windows.bin"}],"extensionsUsed":["KHR_materials_pbrSpecularGlossiness"],"materials":[{"extensions":{"KHR_materials_pbrSpecularGlossiness":{"diffuseFactor":[1.0,0.0,0.10196078568696976,1.0],"specularFactor":[0.5,0.0,0.05098039284348488],"glossinessFactor":0.5}},"name":"Material1","alphaMode":"MASK","doubleSided":true,"pbrMetallicRoughness":{"baseColorFactor":[1.0,0.0,0.10196078568696976,1.0],"metallicFactor":0.5,"roughnessFactor":0.5}},{"extensions":{"KHR_materials_pbrSpecularGlossiness":{"diffuseFactor":[0.8980392217636108,0.8980392217636108,0.8980392217636108,1.0],"specularFactor":[0.4490196108818054,0.4490196108818054,0.4490196108818054],"glossinessFactor":0.5}},"name":"DefaultMaterial~1","alphaMode":"MASK","doubleSided":true,"pbrMetallicRoughness":{"baseColorFactor":[0.8980392217636108,0.8980392217636108,0.8980392217636108,1.0],"metallicFactor":0.5,"roughnessFactor":0.5}},{"extensions":{"KHR_materials_pbrSpecularGlossiness":{"diffuseFactor":[1.0,1.0,1.0,0.6509804129600525],"specularFactor":[0.5,0.5,0.5],"glossinessFactor":0.5}},"name":"[Translucent Glass Gray]","alphaCutoff":0.6499999761581421,"alphaMode":"BLEND","doubleSided":true,"pbrMetallicRoughness":{"baseColorFactor":[1.0,1.0,1.0,0.6499999761581421],"metallicFactor":0.5,"roughnessFactor":0.5}}],"meshes":[{"primitives":[{"attributes":{"NORMAL":2,"POSITION":1},"indices":0,"material":0,"mode":4}]},{"primitives":[{"attributes":{"NORMAL":5,"POSITION":4},"indices":3,"material":1,"mode":4}]},{"primitives":[{"attributes":{"NORMAL":8,"POSITION":7},"indices":6,"material":2,"mode":4}]}],"nodes":[{"children":[1,2],"matrix":[1.0,0.0,0.0,0.0,0.0,4.4896593387466768e-11,-1.0,0.0,0.0,1.0,4.4896593387466768e-11,0.0,0.0,0.0,0.0,1.0]},{"name":"Camera-2","rotation":[-0.7071067690849304,0.0,0.0,-0.7071067690849304],"translation":[0.6403738856315613,-7.005326747894287,0.8769650459289551]},{"name":"Assembly-12","children":[3,4,5,6],"rotation":[0.0,0.0,0.0,-1.0],"scale":[0.02539999969303608,0.02539999969303608,0.02539999969303608]},{"name":"3DGeom-1","mesh":0,"rotation":[0.0,0.0,0.0,-1.0]},{"name":"2DGeom","rotation":[0.0,0.0,0.0,-1.0]},{"name":"2DGeom","rotation":[0.0,0.0,0.0,-1.0]},{"name":"Assembly-5","children":[7,9],"rotation":[0.0,0.0,0.0,-1.0]},{"name":"3DGeom-1","children":[8],"matrix":[0.06905236840248108,0.0,0.0,0.0,0.0,0.06905236840248108,8.408542958194414e-20,0.0,0.0,-8.408542958194414e-20,0.06905236840248108,0.0,0.0,0.0,0.0,1.0]},{"name":"3DGeom-2","mesh":1,"rotation":[0.0,0.0,0.0,-1.0]},{"name":"3DGeom-2","children":[10],"rotation":[-6.088525971218267e-19,0.0,0.0,-1.0],"scale":[0.06356092542409897,0.06356092542409897,0.06356092542409897]},{"name":"3DGeom-3","mesh":2,"rotation":[0.0,0.0,0.0,-1.0]}],"scene":0,"scenes":[{"nodes":[0]}]}