{
	"asset":{
		"generator":"Khronos glTF Blender I/O v3.6.27",
		"version":"2.0"
	},
	"scene":0,
	"scenes":[
		{
			"name":"Scene",
			"nodes":[
				0,
				1,
				2,
				8
			]
		}
	],
	"nodes":[
		{
			"mesh":0,
			"name":"Plane.003_Door_0.003"
		},
		{
			"mesh":1,
			"name":"Plane.003_Door_0.004"
		},
		{
			"mesh":2,
			"name":"Plane.003_Door_0.005"
		},
		{
			"mesh":3,
			"name":"Object_2"
		},
		{
			"mesh":4,
			"name":"Object_3"
		},
		{
			"mesh":5,
			"name":"Object_4"
		},
		{
			"mesh":6,
			"name":"Object_5"
		},
		{
			"children":[
				3,
				4,
				5,
				6
			],
			"name":"double_door.obj.cleaner.materialmerger.gles"
		},
		{
			"children":[
				7
			],
			"name":"Sketchfab_model.003",
			"rotation":[
				-0.70710688829422,
				0,
				0,
				0.7071066498756409
			]
		}
	],
	"materials":[
		{
			"doubleSided":true,
			"name":"Door.001",
			"normalTexture":{
				"index":0
			},
			"pbrMetallicRoughness":{
				"baseColorTexture":{
					"index":1
				},
				"metallicFactor":0,
				"roughnessFactor":0.823941707611084
			}
		},
		{
			"doubleSided":true,
			"name":"frame.001",
			"pbrMetallicRoughness":{
				"baseColorFactor":[
					0.8999999761581421,
					0.8999999761581421,
					0.8999999761581421,
					1
				],
				"metallicFactor":0
			}
		},
		{
			"doubleSided":true,
			"name":"door.003",
			"pbrMetallicRoughness":{
				"baseColorFactor":[
					0.8999999761581421,
					0.8999999761581421,
					0.8999999761581421,
					1
				],
				"metallicFactor":0
			}
		},
		{
			"doubleSided":true,
			"name":"handle.001",
			"pbrMetallicRoughness":{
				"baseColorFactor":[
					0.75,
					0.75,
					0.75,
					1
				],
				"metallicFactor":0,
				"roughnessFactor":0.697277307510376
			}
		},
		{
			"doubleSided":true,
			"name":"hinge.001",
			"pbrMetallicRoughness":{
				"baseColorFactor":[
					0.8500000238418579,
					0.8500000238418579,
					0.8500000238418579,
					1
				],
				"metallicFactor":0,
				"roughnessFactor":0.697277307510376
			}
		}
	],
	"meshes":[
		{
			"name":"Plane.003_Door_0.005",
			"primitives":[
				{
					"attributes":{
						"POSITION":0,
						"NORMAL":1,
						"TEXCOORD_0":2,
						"TEXCOORD_1":3,
						"TEXCOORD_2":4
					},
					"indices":5,
					"material":0
				}
			]
		},
		{
			"name":"Plane.003_Door_0.006",
			"primitives":[
				{
					"attributes":{
						"POSITION":6,
						"NORMAL":7,
						"TEXCOORD_0":8,
						"TEXCOORD_1":9,
						"TEXCOORD_2":10
					},
					"indices":5,
					"material":0
				}
			]
		},
		{
			"name":"Plane.003_Door_0.007",
			"primitives":[
				{
					"attributes":{
						"POSITION":11,
						"NORMAL":12,
						"TEXCOORD_0":13,
						"TEXCOORD_1":14,
						"TEXCOORD_2":15
					},
					"indices":5,
					"material":0
				}
			]
		},
		{
			"name":"Object_0.001",
			"primitives":[
				{
					"attributes":{
						"POSITION":16,
						"NORMAL":17,
						"TEXCOORD_0":18
					},
					"indices":19,
					"material":1
				}
			]
		},
		{
			"name":"Object_1.005",
			"primitives":[
				{
					"attributes":{
						"POSITION":20,
						"NORMAL":21,
						"TEXCOORD_0":22
					},
					"indices":23,
					"material":2
				}
			]
		},
		{
			"name":"Object_2.001",
			"primitives":[
				{
					"attributes":{
						"POSITION":24,
						"NORMAL":25
					},
					"indices":26,
					"material":3
				}
			]
		},
		{
			"name":"Object_3.001",
			"primitives":[
				{
					"attributes":{
						"POSITION":27,
						"NORMAL":28
					},
					"indices":29,
					"material":4
				}
			]
		}
	],
	"textures":[
		{
			"sampler":0,
			"source":0
		},
		{
			"sampler":0,
			"source":1
		}
	],
	"images":[
		{
			"mimeType":"image/png",
			"name":"Door_normal",
			"uri":"Door_normal.png"
		},
		{
			"mimeType":"image/jpeg",
			"name":"Glossy_baseColor",
			"uri":"Glossy_baseColor.jpg"
		}
	],
	"accessors":[
		{
			"bufferView":0,
			"componentType":5126,
			"count":44,
			"max":[
				0.007430315017700195,
				0.00635523721575737,
				0.01208031177520752
			],
			"min":[
				0,
				-0.004236917942762375,
				-0.011883854866027832
			],
			"type":"VEC3"
		},
		{
			"bufferView":1,
			"componentType":5126,
			"count":44,
			"type":"VEC3"
		},
		{
			"bufferView":2,
			"componentType":5126,
			"count":44,
			"type":"VEC2"
		},
		{
			"bufferView":3,
			"componentType":5126,
			"count":44,
			"type":"VEC2"
		},
		{
			"bufferView":4,
			"componentType":5126,
			"count":44,
			"type":"VEC2"
		},
		{
			"bufferView":5,
			"componentType":5123,
			"count":66,
			"type":"SCALAR"
		},
		{
			"bufferView":6,
			"componentType":5126,
			"count":44,
			"max":[
				0.007430315017700195,
				0.00635523721575737,
				0.01208031177520752
			],
			"min":[
				0,
				-0.004236917942762375,
				-0.011883854866027832
			],
			"type":"VEC3"
		},
		{
			"bufferView":7,
			"componentType":5126,
			"count":44,
			"type":"VEC3"
		},
		{
			"bufferView":8,
			"componentType":5126,
			"count":44,
			"type":"VEC2"
		},
		{
			"bufferView":9,
			"componentType":5126,
			"count":44,
			"type":"VEC2"
		},
		{
			"bufferView":10,
			"componentType":5126,
			"count":44,
			"type":"VEC2"
		},
		{
			"bufferView":11,
			"componentType":5126,
			"count":44,
			"max":[
				0.007430315017700195,
				0.00635523721575737,
				0.01208031177520752
			],
			"min":[
				0,
				-0.004236917942762375,
				-0.011883854866027832
			],
			"type":"VEC3"
		},
		{
			"bufferView":12,
			"componentType":5126,
			"count":44,
			"type":"VEC3"
		},
		{
			"bufferView":13,
			"componentType":5126,
			"count":44,
			"type":"VEC2"
		},
		{
			"bufferView":14,
			"componentType":5126,
			"count":44,
			"type":"VEC2"
		},
		{
			"bufferView":15,
			"componentType":5126,
			"count":44,
			"type":"VEC2"
		},
		{
			"bufferView":16,
			"componentType":5126,
			"count":96,
			"max":[
				1.7000000476837158,
				-0.01899999938905239,
				2.0799999237060547
			],
			"min":[
				0,
				-0.07900000363588333,
				0
			],
			"type":"VEC3"
		},
		{
			"bufferView":17,
			"componentType":5126,
			"count":96,
			"type":"VEC3"
		},
		{
			"bufferView":18,
			"componentType":5126,
			"count":96,
			"type":"VEC2"
		},
		{
			"bufferView":19,
			"componentType":5123,
			"count":156,
			"type":"SCALAR"
		},
		{
			"bufferView":20,
			"componentType":5126,
			"count":140,
			"max":[
				1.659000039100647,
				-0.05999999865889549,
				2.0413601398468018
			],
			"min":[
				0.04100000113248825,
				-0.09655679017305374,
				0
			],
			"type":"VEC3"
		},
		{
			"bufferView":21,
			"componentType":5126,
			"count":140,
			"type":"VEC3"
		},
		{
			"bufferView":22,
			"componentType":5126,
			"count":140,
			"type":"VEC2"
		},
		{
			"bufferView":23,
			"componentType":5123,
			"count":291,
			"type":"SCALAR"
		},
		{
			"bufferView":24,
			"componentType":5126,
			"count":482,
			"max":[
				1.0210000276565552,
				0,
				1.1299999952316284
			],
			"min":[
				0.6790000200271606,
				-0.15399999916553497,
				1.0700000524520874
			],
			"type":"VEC3"
		},
		{
			"bufferView":25,
			"componentType":5126,
			"count":482,
			"type":"VEC3"
		},
		{
			"bufferView":26,
			"componentType":5123,
			"count":1422,
			"type":"SCALAR"
		},
		{
			"bufferView":27,
			"componentType":5126,
			"count":192,
			"max":[
				1.6729999780654907,
				-0.07999999821186066,
				1.8600000143051147
			],
			"min":[
				0.027000000700354576,
				-0.09399999678134918,
				0.18000000715255737
			],
			"type":"VEC3"
		},
		{
			"bufferView":28,
			"componentType":5126,
			"count":192,
			"type":"VEC3"
		},
		{
			"bufferView":29,
			"componentType":5123,
			"count":504,
			"type":"SCALAR"
		}
	],
	"bufferViews":[
		{
			"buffer":0,
			"byteLength":528,
			"byteOffset":0,
			"target":34962
		},
		{
			"buffer":0,
			"byteLength":528,
			"byteOffset":528,
			"target":34962
		},
		{
			"buffer":0,
			"byteLength":352,
			"byteOffset":1056,
			"target":34962
		},
		{
			"buffer":0,
			"byteLength":352,
			"byteOffset":1408,
			"target":34962
		},
		{
			"buffer":0,
			"byteLength":352,
			"byteOffset":1760,
			"target":34962
		},
		{
			"buffer":0,
			"byteLength":132,
			"byteOffset":2112,
			"target":34963
		},
		{
			"buffer":0,
			"byteLength":528,
			"byteOffset":2244,
			"target":34962
		},
		{
			"buffer":0,
			"byteLength":528,
			"byteOffset":2772,
			"target":34962
		},
		{
			"buffer":0,
			"byteLength":352,
			"byteOffset":3300,
			"target":34962
		},
		{
			"buffer":0,
			"byteLength":352,
			"byteOffset":3652,
			"target":34962
		},
		{
			"buffer":0,
			"byteLength":352,
			"byteOffset":4004,
			"target":34962
		},
		{
			"buffer":0,
			"byteLength":528,
			"byteOffset":4356,
			"target":34962
		},
		{
			"buffer":0,
			"byteLength":528,
			"byteOffset":4884,
			"target":34962
		},
		{
			"buffer":0,
			"byteLength":352,
			"byteOffset":5412,
			"target":34962
		},
		{
			"buffer":0,
			"byteLength":352,
			"byteOffset":5764,
			"target":34962
		},
		{
			"buffer":0,
			"byteLength":352,
			"byteOffset":6116,
			"target":34962
		},
		{
			"buffer":0,
			"byteLength":1152,
			"byteOffset":6468,
			"target":34962
		},
		{
			"buffer":0,
			"byteLength":1152,
			"byteOffset":7620,
			"target":34962
		},
		{
			"buffer":0,
			"byteLength":768,
			"byteOffset":8772,
			"target":34962
		},
		{
			"buffer":0,
			"byteLength":312,
			"byteOffset":9540,
			"target":34963
		},
		{
			"buffer":0,
			"byteLength":1680,
			"byteOffset":9852,
			"target":34962
		},
		{
			"buffer":0,
			"byteLength":1680,
			"byteOffset":11532,
			"target":34962
		},
		{
			"buffer":0,
			"byteLength":1120,
			"byteOffset":13212,
			"target":34962
		},
		{
			"buffer":0,
			"byteLength":582,
			"byteOffset":14332,
			"target":34963
		},
		{
			"buffer":0,
			"byteLength":5784,
			"byteOffset":14916,
			"target":34962
		},
		{
			"buffer":0,
			"byteLength":5784,
			"byteOffset":20700,
			"target":34962
		},
		{
			"buffer":0,
			"byteLength":2844,
			"byteOffset":26484,
			"target":34963
		},
		{
			"buffer":0,
			"byteLength":2304,
			"byteOffset":29328,
			"target":34962
		},
		{
			"buffer":0,
			"byteLength":2304,
			"byteOffset":31632,
			"target":34962
		},
		{
			"buffer":0,
			"byteLength":1008,
			"byteOffset":33936,
			"target":34963
		}
	],
	"samplers":[
		{
			"magFilter":9729,
			"minFilter":9987
		}
	],
	"buffers":[
		{
			"byteLength":34944,
			"uri":"door_with_glass_full.bin"
		}
	]
}
