{"accessors":[{"bufferView":0,"componentType":5125,"count":36,"max":[23.0],"min":[0.0],"type":"SCALAR"},{"bufferView":1,"componentType":5126,"count":24,"max":[58.79033279418945,0.31496766209602358,64.7174072265625],"min":[-4.440892098500626e-16,0.0,37.086612701416019],"type":"VEC3"},{"bufferView":2,"componentType":5126,"count":24,"max":[1.0,1.0,1.0],"min":[-1.0,-1.0,-1.0],"type":"VEC3"},{"bufferView":3,"componentType":5125,"count":570,"max":[269.0],"min":[0.0],"type":"SCALAR"},{"bufferView":4,"componentType":5126,"count":270,"max":[63.03251647949219,1.0236220359802247,37.743717193603519],"min":[0.0,-4.440892098500626e-16,5.905511856079102],"type":"VEC3"},{"bufferView":5,"componentType":5126,"count":270,"max":[1.0,1.0,1.0],"min":[-1.0,-1.0,-1.0],"type":"VEC3"},{"bufferView":6,"componentType":5125,"count":36,"max":[23.0],"min":[0.0],"type":"SCALAR"},{"bufferView":7,"componentType":5126,"count":24,"max":[58.72400665283203,0.31496766209602358,66.84831237792969],"min":[4.440892098500626e-16,-4.440892098500626e-16,37.086612701416019],"type":"VEC3"},{"bufferView":8,"componentType":5126,"count":24,"max":[1.0,1.0,1.0],"min":[-1.0,-1.0,-1.0],"type":"VEC3"},{"bufferView":9,"componentType":5125,"count":570,"max":[269.0],"min":[0.0],"type":"SCALAR"},{"bufferView":10,"componentType":5126,"count":270,"max":[63.03251647949219,1.0236220359802247,33.733680725097659],"min":[0.0,0.0,0.0],"type":"VEC3"},{"bufferView":11,"componentType":5126,"count":270,"max":[1.0,1.0,1.0],"min":[-1.0,-1.0,-1.0],"type":"VEC3"},{"bufferView":12,"componentType":5125,"count":1170,"max":[589.0],"min":[0.0],"type":"SCALAR"},{"bufferView":13,"componentType":5126,"count":590,"max":[65.11811065673828,1.7716535329818726,82.7206802368164],"min":[6.661338147750939e-16,-2.220446049250313e-16,-47.24409484863281],"type":"VEC3"},{"bufferView":14,"componentType":5126,"count":590,"max":[1.0,1.0,1.0],"min":[-1.0,-1.0,-1.0],"type":"VEC3"},{"bufferView":15,"componentType":5125,"count":570,"max":[269.0],"min":[0.0],"type":"SCALAR"},{"bufferView":16,"componentType":5126,"count":270,"max":[63.03251647949219,1.0236220359802247,33.733680725097659],"min":[0.0,0.0,0.0],"type":"VEC3"},{"bufferView":17,"componentType":5126,"count":270,"max":[1.0,1.0,1.0],"min":[-1.0,-1.0,-1.0],"type":"VEC3"},{"bufferView":18,"componentType":5125,"count":36,"max":[23.0],"min":[0.0],"type":"SCALAR"},{"bufferView":19,"componentType":5126,"count":24,"max":[58.72400665283203,0.31496766209602358,66.84831237792969],"min":[4.440892098500626e-16,-4.440892098500626e-16,37.086612701416019],"type":"VEC3"},{"bufferView":20,"componentType":5126,"count":24,"max":[1.0,1.0,1.0],"min":[-1.0,-1.0,-1.0],"type":"VEC3"},{"bufferView":21,"componentType":5125,"count":570,"max":[269.0],"min":[0.0],"type":"SCALAR"},{"bufferView":22,"componentType":5126,"count":270,"max":[63.03251647949219,1.0236220359802247,33.733680725097659],"min":[0.0,0.0,0.0],"type":"VEC3"},{"bufferView":23,"componentType":5126,"count":270,"max":[1.0,1.0,1.0],"min":[-1.0,-1.0,-1.0],"type":"VEC3"},{"bufferView":24,"componentType":5125,"count":36,"max":[23.0],"min":[0.0],"type":"SCALAR"},{"bufferView":25,"componentType":5126,"count":24,"max":[58.72400665283203,0.31496766209602358,66.84831237792969],"min":[4.440892098500626e-16,-4.440892098500626e-16,37.086612701416019],"type":"VEC3"},{"bufferView":26,"componentType":5126,"count":24,"max":[1.0,1.0,1.0],"min":[-1.0,-1.0,-1.0],"type":"VEC3"}],"asset":{"generator":"SimLab GLTF","version":"2.0"},"bufferViews":[{"buffer":0,"byteLength":144,"target":34963},{"buffer":0,"byteLength":288,"byteOffset":144,"byteStride":12,"target":34962},{"buffer":0,"byteLength":288,"byteOffset":432,"byteStride":12,"target":34962},{"buffer":0,"byteLength":2280,"byteOffset":720,"target":34963},{"buffer":0,"byteLength":3240,"byteOffset":3000,"byteStride":12,"target":34962},{"buffer":0,"byteLength":3240,"byteOffset":6240,"byteStride":12,"target":34962},{"buffer":0,"byteLength":144,"byteOffset":9480,"target":34963},{"buffer":0,"byteLength":288,"byteOffset":9624,"byteStride":12,"target":34962},{"buffer":0,"byteLength":288,"byteOffset":9912,"byteStride":12,"target":34962},{"buffer":0,"byteLength":2280,"byteOffset":10200,"target":34963},{"buffer":0,"byteLength":3240,"byteOffset":12480,"byteStride":12,"target":34962},{"buffer":0,"byteLength":3240,"byteOffset":15720,"byteStride":12,"target":34962},{"buffer":0,"byteLength":4680,"byteOffset":18960,"target":34963},{"buffer":0,"byteLength":7080,"byteOffset":23640,"byteStride":12,"target":34962},{"buffer":0,"byteLength":7080,"byteOffset":30720,"byteStride":12,"target":34962},{"buffer":0,"byteLength":2280,"byteOffset":37800,"target":34963},{"buffer":0,"byteLength":3240,"byteOffset":40080,"byteStride":12,"target":34962},{"buffer":0,"byteLength":3240,"byteOffset":43320,"byteStride":12,"target":34962},{"buffer":0,"byteLength":144,"byteOffset":46560,"target":34963},{"buffer":0,"byteLength":288,"byteOffset":46704,"byteStride":12,"target":34962},{"buffer":0,"byteLength":288,"byteOffset":46992,"byteStride":12,"target":34962},{"buffer":0,"byteLength":2280,"byteOffset":47280,"target":34963},{"buffer":0,"byteLength":3240,"byteOffset":49560,"byteStride":12,"target":34962},{"buffer":0,"byteLength":3240,"byteOffset":52800,"byteStride":12,"target":34962},{"buffer":0,"byteLength":144,"byteOffset":56040,"target":34963},{"buffer":0,"byteLength":288,"byteOffset":56184,"byteStride":12,"target":34962},{"buffer":0,"byteLength":288,"byteOffset":56472,"byteStride":12,"target":34962}],"buffers":[{"byteLength":56760,"uri":"4_windows.bin"}],"extensionsUsed":["KHR_materials_pbrSpecularGlossiness"],"materials":[{"extensions":{"KHR_materials_pbrSpecularGlossiness":{"diffuseFactor":[0.48627451062202456,0.800000011920929,0.8705882430076599,0.07058823853731156],"specularFactor":[0.24313725531101228,0.4000000059604645,0.43529412150382998],"glossinessFactor":0.5}},"name":"Szyba1","alphaCutoff":0.07000000029802323,"alphaMode":"BLEND","doubleSided":true,"pbrMetallicRoughness":{"baseColorFactor":[0.48627451062202456,0.800000011920929,0.8705882430076599,0.07000000029802323],"metallicFactor":0.5,"roughnessFactor":0.5}},{"extensions":{"KHR_materials_pbrSpecularGlossiness":{"diffuseFactor":[1.0,1.0,1.0,1.0],"specularFactor":[0.5,0.5,0.5],"glossinessFactor":0.5}},"name":"RAL 7015","alphaMode":"MASK","doubleSided":true,"pbrMetallicRoughness":{"metallicFactor":0.5,"roughnessFactor":0.5}}],"meshes":[{"primitives":[{"attributes":{"NORMAL":2,"POSITION":1},"indices":0,"material":0,"mode":4}]},{"primitives":[{"attributes":{"NORMAL":5,"POSITION":4},"indices":3,"material":1,"mode":4}]},{"primitives":[{"attributes":{"NORMAL":8,"POSITION":7},"indices":6,"material":0,"mode":4}]},{"primitives":[{"attributes":{"NORMAL":11,"POSITION":10},"indices":9,"material":1,"mode":4}]},{"primitives":[{"attributes":{"NORMAL":14,"POSITION":13},"indices":12,"material":1,"mode":4}]},{"primitives":[{"attributes":{"NORMAL":17,"POSITION":16},"indices":15,"material":1,"mode":4}]},{"primitives":[{"attributes":{"NORMAL":20,"POSITION":19},"indices":18,"material":0,"mode":4}]},{"primitives":[{"attributes":{"NORMAL":23,"POSITION":22},"indices":21,"material":1,"mode":4}]},{"primitives":[{"attributes":{"NORMAL":26,"POSITION":25},"indices":24,"material":0,"mode":4}]}],"nodes":[{"children":[1,2],"matrix":[1.0,0.0,0.0,0.0,0.0,4.4896593387466768e-11,-1.0,0.0,0.0,1.0,4.4896593387466768e-11,0.0,0.0,0.0,0.0,1.0]},{"name":"Camera-2","rotation":[-0.7071067690849304,0.0,0.0,-0.7071067690849304],"translation":[2.2912845611572267,-13.178421020507813,0.8270000219345093]},{"name":"Assembly-10","children":[3,5,7,9,11,13,15,17,19],"rotation":[0.0,0.0,0.0,-1.0],"scale":[0.0010000000474974514,0.0010000000474974514,0.0010000000474974514]},{"children":[4],"matrix":[-9.869882858324231e-15,-5.0430042117418147e-17,25.399999618530275,0.0,-1.3627362516958724e-16,25.399999618530275,5.0430042117418147e-17,0.0,-25.399999618530275,-1.3627362516958724e-16,-9.869882858324231e-15,0.0,2361.595458984375,7.99165153503418,81.5,1.0]},{"name":"3DGeom-1","mesh":0,"rotation":[0.0,0.0,0.0,-1.0]},{"children":[6],"matrix":[-9.869882858324231e-15,-5.0430042117418147e-17,25.399999618530275,0.0,1.3627362516958724e-16,-25.399999618530275,-5.0430042117418147e-17,0.0,-25.399999618530275,-1.3627362516958724e-16,-9.869882858324231e-15,0.0,1623.3306884765625,26.0,27.0,1.0]},{"name":"3DGeom-2","mesh":1,"rotation":[0.0,0.0,0.0,-1.0]},{"children":[8],"matrix":[-9.869882858324231e-15,5.0430042117418147e-17,25.399999618530275,0.0,-1.3627362516958724e-16,-25.399999618530275,5.0430042117418147e-17,0.0,-25.399999618530275,1.3627362516958724e-16,-9.869882858324231e-15,0.0,4014.0576171875,43.49918746948242,81.5,1.0]},{"name":"3DGeom-3","mesh":2,"rotation":[0.0,0.0,0.0,-1.0]},{"children":[10],"matrix":[-9.869882858324231e-15,5.0430042117418147e-17,25.399999618530275,0.0,-1.3627362516958724e-16,-25.399999618530275,5.0430042117418147e-17,0.0,-25.399999618530275,1.3627362516958724e-16,-9.869882858324231e-15,0.0,3122.501708984375,52.0,27.0,1.0]},{"name":"3DGeom-4","mesh":3,"rotation":[0.0,0.0,0.0,-1.0]},{"children":[12],"matrix":[-9.869882858324231e-15,-5.0430042117418147e-17,25.399999618530275,0.0,-1.3627362516958724e-16,25.399999618530275,5.0430042117418147e-17,0.0,-25.399999618530275,-1.3627362516958724e-16,-9.869882858324231e-15,0.0,2741.837158203125,2.0,8.008704918856246e-13,1.0]},{"name":"3DGeom-5","mesh":4,"rotation":[0.0,0.0,0.0,-1.0]},{"children":[14],"matrix":[-9.869882858324231e-15,5.0430042117418147e-17,25.399999618530275,0.0,-1.3627362516958724e-16,-25.399999618530275,5.0430042117418147e-17,0.0,-25.399999618530275,1.3627362516958724e-16,-9.869882858324231e-15,0.0,2265.666259765625,52.0,27.0,1.0]},{"name":"3DGeom-6","mesh":5,"rotation":[0.0,0.0,0.0,-1.0]},{"children":[16],"matrix":[-9.869882858324231e-15,5.0430042117418147e-17,25.399999618530275,0.0,-1.3627362516958724e-16,-25.399999618530275,5.0430042117418147e-17,0.0,-25.399999618530275,1.3627362516958724e-16,-9.869882858324231e-15,0.0,4806.39306640625,17.499189376831056,81.5,1.0]},{"name":"3DGeom-7","mesh":6,"rotation":[0.0,0.0,0.0,-1.0]},{"children":[18],"matrix":[-9.869882858324231e-15,5.0430042117418147e-17,25.399999618530275,0.0,-1.3627362516958724e-16,-25.399999618530275,5.0430042117418147e-17,0.0,-25.399999618530275,1.3627362516958724e-16,-9.869882858324231e-15,0.0,3914.837158203125,26.0,27.0,1.0]},{"name":"3DGeom-8","mesh":7,"rotation":[0.0,0.0,0.0,-1.0]},{"children":[20],"matrix":[-9.869882858324231e-15,5.0430042117418147e-17,25.399999618530275,0.0,-1.3627362516958724e-16,-25.399999618530275,5.0430042117418147e-17,0.0,-25.399999618530275,1.3627362516958724e-16,-9.869882858324231e-15,0.0,3157.221923828125,43.49918746948242,81.5,1.0]},{"name":"3DGeom-9","mesh":8,"rotation":[0.0,0.0,0.0,-1.0]}],"scene":0,"scenes":[{"nodes":[0]}]}