{"accessors":[{"bufferView":0,"componentType":5125,"count":1563,"max":[878.0],"min":[0.0],"type":"SCALAR"},{"bufferView":1,"componentType":5126,"count":879,"max":[155.32557678222657,0.8958043456077576,65.18060302734375],"min":[25.163145065307618,-0.06718500703573227,-0.14505872130393983],"type":"VEC3"},{"bufferView":2,"componentType":5126,"count":879,"max":[1.0,1.0,1.0],"min":[-1.0,-1.0,-1.0],"type":"VEC3"},{"bufferView":3,"componentType":5125,"count":69,"max":[38.0],"min":[0.0],"type":"SCALAR"},{"bufferView":4,"componentType":5126,"count":39,"max":[155.23367309570313,0.13780483603477479,65.11810302734375],"min":[25.225658416748048,-0.061881277710199359,0.6495991945266724],"type":"VEC3"},{"bufferView":5,"componentType":5126,"count":39,"max":[0.9999492168426514,0.005194400902837515,1.0],"min":[-0.000002491089844625094,-1.0,-0.9999865293502808],"type":"VEC3"},{"bufferView":6,"componentType":5125,"count":5514,"max":[5531.0],"min":[0.0],"type":"SCALAR"},{"bufferView":7,"componentType":5126,"count":5532,"max":[461.528076171875,7.375370979309082,736.1724853515625],"min":[-7.659208297729492,-7.506405830383301,-263.8275146484375],"type":"VEC3"},{"bufferView":8,"componentType":5126,"count":5532,"max":[1.0,1.0,1.0],"min":[-1.0,-1.0,-1.0],"type":"VEC3"}],"asset":{"generator":"SimLab GLTF","version":"2.0"},"bufferViews":[{"buffer":0,"byteLength":6252,"target":34963},{"buffer":0,"byteLength":10548,"byteOffset":6252,"byteStride":12,"target":34962},{"buffer":0,"byteLength":10548,"byteOffset":16800,"byteStride":12,"target":34962},{"buffer":0,"byteLength":276,"byteOffset":27348,"target":34963},{"buffer":0,"byteLength":468,"byteOffset":27624,"byteStride":12,"target":34962},{"buffer":0,"byteLength":468,"byteOffset":28092,"byteStride":12,"target":34962},{"buffer":0,"byteLength":22056,"byteOffset":28560,"target":34963},{"buffer":0,"byteLength":66384,"byteOffset":50616,"byteStride":12,"target":34962},{"buffer":0,"byteLength":66384,"byteOffset":117000,"byteStride":12,"target":34962}],"buffers":[{"byteLength":183384,"uri":"4_windows.bin"}],"extensionsUsed":["KHR_materials_pbrSpecularGlossiness"],"materials":[{"extensions":{"KHR_materials_pbrSpecularGlossiness":{"diffuseFactor":[1.0,0.0,0.0,1.0],"specularFactor":[0.5,0.0,0.0],"glossinessFactor":0.5}},"name":"Material","alphaMode":"MASK","doubleSided":true,"pbrMetallicRoughness":{"baseColorFactor":[1.0,0.0,0.0,1.0],"metallicFactor":0.5,"roughnessFactor":0.5}},{"extensions":{"KHR_materials_pbrSpecularGlossiness":{"diffuseFactor":[0.8999999761581421,0.8999999761581421,0.8999999761581421,1.0],"specularFactor":[0.25,0.25,0.25],"glossinessFactor":0.5}},"name":"DefaultMaterial~1","alphaMode":"MASK","doubleSided":true,"pbrMetallicRoughness":{"baseColorFactor":[0.8999999761581421,0.8999999761581421,0.8999999761581421,1.0],"metallicFactor":0.5,"roughnessFactor":0.5}},{"extensions":{"KHR_materials_pbrSpecularGlossiness":{"diffuseFactor":[1.0,1.0,1.0,1.0],"specularFactor":[0.5,0.5,0.5],"glossinessFactor":0.5}},"name":"RAL 7015.002","alphaMode":"MASK","doubleSided":true,"pbrMetallicRoughness":{"metallicFactor":0.5,"roughnessFactor":0.5}}],"meshes":[{"primitives":[{"attributes":{"NORMAL":2,"POSITION":1},"indices":0,"material":0,"mode":4}]},{"primitives":[{"attributes":{"NORMAL":5,"POSITION":4},"indices":3,"material":1,"mode":4}]},{"primitives":[{"attributes":{"NORMAL":8,"POSITION":7},"indices":6,"material":2,"mode":4}]}],"nodes":[{"children":[1,2],"matrix":[1.0,0.0,0.0,0.0,0.0,4.4896593387466768e-11,-1.0,0.0,0.0,1.0,4.4896593387466768e-11,0.0,0.0,0.0,0.0,1.0]},{"name":"Camera-2","rotation":[-0.7071067690849304,0.0,0.0,-0.7071067690849304],"translation":[2.2922067642211916,-13.199356079101563,0.8259513974189758]},{"name":"Assembly-9","children":[3,4,5,6,7],"rotation":[0.0,0.0,0.0,-1.0],"scale":[0.02539999969303608,0.02539999969303608,0.02539999969303608]},{"name":"3DGeom-1","mesh":0,"rotation":[0.0,0.0,0.0,-1.0]},{"name":"3DGeom-2","mesh":1,"rotation":[0.0,0.0,0.0,-1.0]},{"name":"2DGeom","rotation":[0.0,0.0,0.0,-1.0]},{"name":"2DGeom","rotation":[0.0,0.0,0.0,-1.0]},{"name":"3DGeom-4.002","children":[8,9],"matrix":[2.3398117221518079e-8,4.680246590282877e-8,0.13878925144672395,0.0,0.0,-0.13878922164440156,4.6802458797401417e-8,0.0,-0.12996481359004975,7.388628588350741e-15,2.1910430803018245e-8,0.0,120.90216827392578,1.0054363012313843,1.0629922151565552,1.0]},{"name":"3DGeom-3","mesh":2,"rotation":[0.0,0.0,0.0,-1.0]},{"name":"2DGeom","rotation":[0.0,0.0,0.0,-1.0]}],"scene":0,"scenes":[{"nodes":[0]}]}