{
	"asset":{
		"generator":"Khronos glTF Blender I/O v3.6.27",
		"version":"2.0"
	},
	"scene":0,
	"scenes":[
		{
			"name":"Scene",
			"nodes":[
				6
			]
		}
	],
	"nodes":[
		{
			"name":"Node_13",
			"rotation":[
				0,
				0.7071068286895752,
				0,
				0.7071067094802856
			],
			"scale":[
				-25.40000343322754,
				-25.399999618530273,
				-25.40000343322754
			],
			"translation":[
				-2357.719970703125,
				52,
				27
			]
		},
		{
			"mesh":0,
			"name":"3DGeom-9",
			"scale":[
				1,
				1,
				0.93499356508255
			],
			"translation":[
				2.3573205908178352e-05,
				1.0848946571350098,
				-179.3101806640625
			]
		},
		{
			"children":[
				1
			],
			"name":"Node_19",
			"rotation":[
				0,
				0.7071068286895752,
				0,
				0.7071067094802856
			],
			"scale":[
				-25.40000343322754,
				-25.399999618530273,
				-25.40000343322754
			],
			"translation":[
				-1466.164306640625,
				43.49918746948242,
				81.5
			]
		},
		{
			"name":"Node_7",
			"rotation":[
				0,
				0.7071068286895752,
				0,
				0.7071067094802856
			],
			"scale":[
				-25.40000343322754,
				-25.399999618530273,
				-25.40000343322754
			],
			"translation":[
				4014.057373046875,
				43.49918746948242,
				81.5
			]
		},
		{
			"name":"Node_9",
			"rotation":[
				0,
				0.7071068286895752,
				0,
				0.7071067094802856
			],
			"scale":[
				-25.40000343322754,
				-25.399999618530273,
				-25.40000343322754
			],
			"translation":[
				-1500.884521484375,
				52,
				27
			]
		},
		{
			"children":[
				0,
				2,
				3,
				4
			],
			"name":"Assembly-10",
			"scale":[
				0.0010000000474974513,
				0.0010000000474974513,
				0.0010000000474974513
			]
		},
		{
			"children":[
				5
			],
			"name":"Node_0",
			"rotation":[
				-0.70710688829422,
				0,
				0,
				0.7071066498756409
			]
		}
	],
	"materials":[
		{
			"alphaMode":"BLEND",
			"doubleSided":true,
			"name":"Szyba1",
			"pbrMetallicRoughness":{}
		},
		{
			"alphaCutoff":0.5,
			"alphaMode":"MASK",
			"doubleSided":true,
			"name":"RAL 7015",
			"pbrMetallicRoughness":{}
		},
		{
			"alphaMode":"BLEND",
			"doubleSided":true,
			"name":"Szyba1.001",
			"pbrMetallicRoughness":{}
		},
		{
			"alphaCutoff":0.5,
			"alphaMode":"MASK",
			"doubleSided":true,
			"name":"RAL 7015.001",
			"pbrMetallicRoughness":{}
		}
	],
	"meshes":[
		{
			"name":"Mesh_8.002",
			"primitives":[
				{
					"attributes":{
						"POSITION":0,
						"NORMAL":1
					},
					"indices":2,
					"material":0
				},
				{
					"attributes":{
						"POSITION":3,
						"NORMAL":4
					},
					"indices":5,
					"material":1
				},
				{
					"attributes":{
						"POSITION":6,
						"NORMAL":7
					},
					"indices":8,
					"material":2
				},
				{
					"attributes":{
						"POSITION":9,
						"NORMAL":10
					},
					"indices":11,
					"material":3
				}
			]
		}
	],
	"accessors":[
		{
			"bufferView":0,
			"componentType":5126,
			"count":48,
			"max":[
				58.72401809692383,
				0.31496766209602356,
				66.84831237792969
			],
			"min":[
				4.440892098500626e-16,
				-4.440892098500626e-16,
				3.3529396057128906
			],
			"type":"VEC3"
		},
		{
			"bufferView":1,
			"componentType":5126,
			"count":48,
			"type":"VEC3"
		},
		{
			"bufferView":2,
			"componentType":5123,
			"count":72,
			"type":"SCALAR"
		},
		{
			"bufferView":3,
			"componentType":5126,
			"count":540,
			"max":[
				60.88685607910156,
				0.6889442801475525,
				68.83430480957031
			],
			"min":[
				-2.1456735134124756,
				-0.3346777558326721,
				1.3669281005859375
			],
			"type":"VEC3"
		},
		{
			"bufferView":4,
			"componentType":5126,
			"count":540,
			"type":"VEC3"
		},
		{
			"bufferView":5,
			"componentType":5123,
			"count":1140,
			"type":"SCALAR"
		},
		{
			"bufferView":6,
			"componentType":5126,
			"count":144,
			"max":[
				58.791770935058594,
				0.3130398392677307,
				99.81719207763672
			],
			"min":[
				-0.01439488772302866,
				-1.1017488241195679,
				-32.67854309082031
			],
			"type":"VEC3"
		},
		{
			"bufferView":7,
			"componentType":5126,
			"count":144,
			"type":"VEC3"
		},
		{
			"bufferView":8,
			"componentType":5123,
			"count":216,
			"type":"SCALAR"
		},
		{
			"bufferView":9,
			"componentType":5126,
			"count":2285,
			"max":[
				61.90946960449219,
				0.6276717185974121,
				103.06120300292969
			],
			"min":[
				-3.2086851596832275,
				-1.4957714080810547,
				-35.93952560424805
			],
			"type":"VEC3"
		},
		{
			"bufferView":10,
			"componentType":5126,
			"count":2285,
			"type":"VEC3"
		},
		{
			"bufferView":11,
			"componentType":5123,
			"count":4590,
			"type":"SCALAR"
		}
	],
	"bufferViews":[
		{
			"buffer":0,
			"byteLength":576,
			"byteOffset":0,
			"target":34962
		},
		{
			"buffer":0,
			"byteLength":576,
			"byteOffset":576,
			"target":34962
		},
		{
			"buffer":0,
			"byteLength":144,
			"byteOffset":1152,
			"target":34963
		},
		{
			"buffer":0,
			"byteLength":6480,
			"byteOffset":1296,
			"target":34962
		},
		{
			"buffer":0,
			"byteLength":6480,
			"byteOffset":7776,
			"target":34962
		},
		{
			"buffer":0,
			"byteLength":2280,
			"byteOffset":14256,
			"target":34963
		},
		{
			"buffer":0,
			"byteLength":1728,
			"byteOffset":16536,
			"target":34962
		},
		{
			"buffer":0,
			"byteLength":1728,
			"byteOffset":18264,
			"target":34962
		},
		{
			"buffer":0,
			"byteLength":432,
			"byteOffset":19992,
			"target":34963
		},
		{
			"buffer":0,
			"byteLength":27420,
			"byteOffset":20424,
			"target":34962
		},
		{
			"buffer":0,
			"byteLength":27420,
			"byteOffset":47844,
			"target":34962
		},
		{
			"buffer":0,
			"byteLength":9180,
			"byteOffset":75264,
			"target":34963
		}
	],
	"buffers":[
		{
			"byteLength":84444,
			"uri":"data:application/octet-stream;base64,"
		}
	]
}
