{"accessors":[{"bufferView":0,"componentType":5125,"count":36,"max":[23.0],"min":[0.0],"type":"SCALAR"},{"bufferView":1,"componentType":5126,"count":24,"max":[4.0,1200.0,12.0],"min":[0.0,0.0,0.0],"type":"VEC3"},{"bufferView":2,"componentType":5126,"count":24,"max":[1.0,1.0,1.0],"min":[-1.0,-1.0,-1.0],"type":"VEC3"},{"bufferView":3,"componentType":5125,"count":36,"max":[23.0],"min":[0.0],"type":"SCALAR"},{"bufferView":4,"componentType":5126,"count":24,"max":[4.0,1200.0,12.0],"min":[0.0,0.0,0.0],"type":"VEC3"},{"bufferView":5,"componentType":5126,"count":24,"max":[1.0,1.0,1.0],"min":[-1.0,-1.0,-1.0],"type":"VEC3"},{"bufferView":6,"componentType":5125,"count":36,"max":[23.0],"min":[0.0],"type":"SCALAR"},{"bufferView":7,"componentType":5126,"count":24,"max":[4.0,1200.0,12.0],"min":[0.0,0.0,0.0],"type":"VEC3"},{"bufferView":8,"componentType":5126,"count":24,"max":[1.0,1.0,1.0],"min":[-1.0,-1.0,-1.0],"type":"VEC3"},{"bufferView":9,"componentType":5125,"count":36,"max":[23.0],"min":[0.0],"type":"SCALAR"},{"bufferView":10,"componentType":5126,"count":24,"max":[4.0,1200.0,12.0],"min":[0.0,0.0,0.0],"type":"VEC3"},{"bufferView":11,"componentType":5126,"count":24,"max":[1.0,1.0,1.0],"min":[-1.0,-1.0,-1.0],"type":"VEC3"},{"bufferView":12,"componentType":5125,"count":36,"max":[23.0],"min":[0.0],"type":"SCALAR"},{"bufferView":13,"componentType":5126,"count":24,"max":[4.0,1200.0,12.0],"min":[0.0,0.0,0.0],"type":"VEC3"},{"bufferView":14,"componentType":5126,"count":24,"max":[1.0,1.0,1.0],"min":[-1.0,-1.0,-1.0],"type":"VEC3"},{"bufferView":15,"componentType":5125,"count":36,"max":[23.0],"min":[0.0],"type":"SCALAR"},{"bufferView":16,"componentType":5126,"count":24,"max":[4.0,1200.0,12.0],"min":[0.0,0.0,0.0],"type":"VEC3"},{"bufferView":17,"componentType":5126,"count":24,"max":[1.0,1.0,1.0],"min":[-1.0,-1.0,-1.0],"type":"VEC3"},{"bufferView":18,"componentType":5125,"count":36,"max":[23.0],"min":[0.0],"type":"SCALAR"},{"bufferView":19,"componentType":5126,"count":24,"max":[4.0,1200.0,12.0],"min":[0.0,0.0,0.0],"type":"VEC3"},{"bufferView":20,"componentType":5126,"count":24,"max":[1.0,1.0,1.0],"min":[-1.0,-1.0,-1.0],"type":"VEC3"},{"bufferView":21,"componentType":5125,"count":36,"max":[23.0],"min":[0.0],"type":"SCALAR"},{"bufferView":22,"componentType":5126,"count":24,"max":[4.0,1200.0,12.0],"min":[0.0,0.0,0.0],"type":"VEC3"},{"bufferView":23,"componentType":5126,"count":24,"max":[1.0,1.0,1.0],"min":[-1.0,-1.0,-1.0],"type":"VEC3"},{"bufferView":24,"componentType":5125,"count":36,"max":[23.0],"min":[0.0],"type":"SCALAR"},{"bufferView":25,"componentType":5126,"count":24,"max":[4.0,1200.0,12.0],"min":[0.0,0.0,0.0],"type":"VEC3"},{"bufferView":26,"componentType":5126,"count":24,"max":[1.0,1.0,1.0],"min":[-1.0,-1.0,-1.0],"type":"VEC3"},{"bufferView":27,"componentType":5125,"count":36,"max":[23.0],"min":[0.0],"type":"SCALAR"},{"bufferView":28,"componentType":5126,"count":24,"max":[4.0,1200.0,12.0],"min":[0.0,0.0,0.0],"type":"VEC3"},{"bufferView":29,"componentType":5126,"count":24,"max":[1.0,1.0,1.0],"min":[-1.0,-1.0,-1.0],"type":"VEC3"},{"bufferView":30,"componentType":5125,"count":36,"max":[23.0],"min":[0.0],"type":"SCALAR"},{"bufferView":31,"componentType":5126,"count":24,"max":[4.0,1200.0,12.0],"min":[0.0,0.0,0.0],"type":"VEC3"},{"bufferView":32,"componentType":5126,"count":24,"max":[1.0,1.0,1.0],"min":[-1.0,-1.0,-1.0],"type":"VEC3"},{"bufferView":33,"componentType":5125,"count":36,"max":[23.0],"min":[0.0],"type":"SCALAR"},{"bufferView":34,"componentType":5126,"count":24,"max":[4.0,1200.0,12.0],"min":[0.0,0.0,0.0],"type":"VEC3"},{"bufferView":35,"componentType":5126,"count":24,"max":[1.0,1.0,1.0],"min":[-1.0,-1.0,-1.0],"type":"VEC3"}],"asset":{"generator":"SimLab GLTF","version":"2.0"},"bufferViews":[{"buffer":0,"byteLength":144,"target":34963},{"buffer":0,"byteLength":288,"byteOffset":144,"byteStride":12,"target":34962},{"buffer":0,"byteLength":288,"byteOffset":432,"byteStride":12,"target":34962},{"buffer":0,"byteLength":144,"byteOffset":720,"target":34963},{"buffer":0,"byteLength":288,"byteOffset":864,"byteStride":12,"target":34962},{"buffer":0,"byteLength":288,"byteOffset":1152,"byteStride":12,"target":34962},{"buffer":0,"byteLength":144,"byteOffset":1440,"target":34963},{"buffer":0,"byteLength":288,"byteOffset":1584,"byteStride":12,"target":34962},{"buffer":0,"byteLength":288,"byteOffset":1872,"byteStride":12,"target":34962},{"buffer":0,"byteLength":144,"byteOffset":2160,"target":34963},{"buffer":0,"byteLength":288,"byteOffset":2304,"byteStride":12,"target":34962},{"buffer":0,"byteLength":288,"byteOffset":2592,"byteStride":12,"target":34962},{"buffer":0,"byteLength":144,"byteOffset":2880,"target":34963},{"buffer":0,"byteLength":288,"byteOffset":3024,"byteStride":12,"target":34962},{"buffer":0,"byteLength":288,"byteOffset":3312,"byteStride":12,"target":34962},{"buffer":0,"byteLength":144,"byteOffset":3600,"target":34963},{"buffer":0,"byteLength":288,"byteOffset":3744,"byteStride":12,"target":34962},{"buffer":0,"byteLength":288,"byteOffset":4032,"byteStride":12,"target":34962},{"buffer":0,"byteLength":144,"byteOffset":4320,"target":34963},{"buffer":0,"byteLength":288,"byteOffset":4464,"byteStride":12,"target":34962},{"buffer":0,"byteLength":288,"byteOffset":4752,"byteStride":12,"target":34962},{"buffer":0,"byteLength":144,"byteOffset":5040,"target":34963},{"buffer":0,"byteLength":288,"byteOffset":5184,"byteStride":12,"target":34962},{"buffer":0,"byteLength":288,"byteOffset":5472,"byteStride":12,"target":34962},{"buffer":0,"byteLength":144,"byteOffset":5760,"target":34963},{"buffer":0,"byteLength":288,"byteOffset":5904,"byteStride":12,"target":34962},{"buffer":0,"byteLength":288,"byteOffset":6192,"byteStride":12,"target":34962},{"buffer":0,"byteLength":144,"byteOffset":6480,"target":34963},{"buffer":0,"byteLength":288,"byteOffset":6624,"byteStride":12,"target":34962},{"buffer":0,"byteLength":288,"byteOffset":6912,"byteStride":12,"target":34962},{"buffer":0,"byteLength":144,"byteOffset":7200,"target":34963},{"buffer":0,"byteLength":288,"byteOffset":7344,"byteStride":12,"target":34962},{"buffer":0,"byteLength":288,"byteOffset":7632,"byteStride":12,"target":34962},{"buffer":0,"byteLength":144,"byteOffset":7920,"target":34963},{"buffer":0,"byteLength":288,"byteOffset":8064,"byteStride":12,"target":34962},{"buffer":0,"byteLength":288,"byteOffset":8352,"byteStride":12,"target":34962}],"buffers":[{"byteLength":8640,"uri":"Purlins1.bin"}],"extensionsUsed":["KHR_materials_pbrSpecularGlossiness"],"materials":[{"extensions":{"KHR_materials_pbrSpecularGlossiness":{"diffuseFactor":[0.8999999761581421,0.8999999761581421,0.8999999761581421,1.0],"specularFactor":[0.25,0.25,0.25],"glossinessFactor":0.5}},"name":"DefaultMaterial~1","alphaMode":"MASK","doubleSided":true,"pbrMetallicRoughness":{"baseColorFactor":[0.8999999761581421,0.8999999761581421,0.8999999761581421,1.0],"metallicFactor":0.5,"roughnessFactor":0.5}}],"meshes":[{"primitives":[{"attributes":{"NORMAL":2,"POSITION":1},"indices":0,"material":0,"mode":4}]},{"primitives":[{"attributes":{"NORMAL":5,"POSITION":4},"indices":3,"material":0,"mode":4}]},{"primitives":[{"attributes":{"NORMAL":8,"POSITION":7},"indices":6,"material":0,"mode":4}]},{"primitives":[{"attributes":{"NORMAL":11,"POSITION":10},"indices":9,"material":0,"mode":4}]},{"primitives":[{"attributes":{"NORMAL":14,"POSITION":13},"indices":12,"material":0,"mode":4}]},{"primitives":[{"attributes":{"NORMAL":17,"POSITION":16},"indices":15,"material":0,"mode":4}]},{"primitives":[{"attributes":{"NORMAL":20,"POSITION":19},"indices":18,"material":0,"mode":4}]},{"primitives":[{"attributes":{"NORMAL":23,"POSITION":22},"indices":21,"material":0,"mode":4}]},{"primitives":[{"attributes":{"NORMAL":26,"POSITION":25},"indices":24,"material":0,"mode":4}]},{"primitives":[{"attributes":{"NORMAL":29,"POSITION":28},"indices":27,"material":0,"mode":4}]},{"primitives":[{"attributes":{"NORMAL":32,"POSITION":31},"indices":30,"material":0,"mode":4}]},{"primitives":[{"attributes":{"NORMAL":35,"POSITION":34},"indices":33,"material":0,"mode":4}]}],"nodes":[{"children":[1,2],"matrix":[1.0,0.0,0.0,0.0,0.0,4.4896593387466768e-11,-1.0,0.0,0.0,1.0,4.4896593387466768e-11,0.0,0.0,0.0,0.0,1.0]},{"name":"Camera-2","rotation":[-0.7071067690849304,0.0,0.0,-0.7071067690849304],"translation":[17.75990104675293,-106.68000030517578,5.768897533416748]},{"name":"Assembly-14","children":[3,5,7],"rotation":[0.0,0.0,0.0,-1.0],"scale":[0.02539999969303608,0.02539999969303608,0.02539999969303608]},{"children":[4],"matrix":[-0.9531720280647278,0.0,-0.30242863297462466,0.0,0.0,1.0,0.0,0.0,0.30242863297462466,0.0,-0.9531720280647278,0.0,476.370849609375,0.0,302.85125732421877,1.0]},{"name":"3DGeom-1","mesh":0,"rotation":[0.0,0.0,0.0,-1.0]},{"children":[6],"rotation":[0.0,-0.14758539199829102,0.0,-0.9890493154525757],"translation":[480.0,0.0,291.4132080078125]},{"name":"3DGeom-2","mesh":1,"rotation":[0.0,0.0,0.0,-1.0]},{"children":[8,10,12,14,16,18,20,22,24,26],"rotation":[0.0,0.0,0.0,-1.0],"translation":[506.6831970214844,0.0,151.3534698486328]},{"children":[9],"rotation":[0.0,-0.14758539199829102,0.0,-0.9890493154525757],"translation":[366.0872497558594,0.0,15.660840034484864]},{"name":"3DGeom-3","mesh":2,"rotation":[0.0,0.0,0.0,-1.0]},{"children":[11],"rotation":[0.0,-0.14758539199829102,0.0,-0.9890493154525757],"translation":[137.2887725830078,0.0,88.12638092041016]},{"name":"3DGeom-4","mesh":3,"rotation":[0.0,0.0,0.0,-1.0]},{"children":[13],"rotation":[0.0,-0.14758539199829102,0.0,-0.9890493154525757],"translation":[183.04843139648438,0.0,73.63319396972656]},{"name":"3DGeom-5","mesh":4,"rotation":[0.0,0.0,0.0,-1.0]},{"children":[15],"rotation":[0.0,-0.14758539199829102,0.0,-0.9890493154525757],"translation":[228.80813598632813,0.0,59.140098571777347]},{"name":"3DGeom-6","mesh":5,"rotation":[0.0,0.0,0.0,-1.0]},{"children":[17],"rotation":[0.0,-0.14758539199829102,0.0,-0.9890493154525757],"translation":[45.77079772949219,0.0,117.11709594726563]},{"name":"3DGeom-7","mesh":6,"rotation":[0.0,0.0,0.0,-1.0]},{"children":[19],"rotation":[0.0,-0.14758539199829102,0.0,-0.9890493154525757],"translation":[0.0,0.0,131.57510375976563]},{"name":"3DGeom-8","mesh":7,"rotation":[0.0,0.0,0.0,-1.0]},{"children":[21],"rotation":[0.0,-0.14758539199829102,0.0,-0.9890493154525757],"translation":[320.3275451660156,0.0,30.153926849365236]},{"name":"3DGeom-9","mesh":8,"rotation":[0.0,0.0,0.0,-1.0]},{"children":[23],"rotation":[0.0,-0.14758539199829102,0.0,-0.9890493154525757],"translation":[91.52887725830078,0.0,102.61886596679688]},{"name":"3DGeom-10","mesh":9,"rotation":[0.0,0.0,0.0,-1.0]},{"children":[25],"rotation":[0.0,-0.14758539199829102,0.0,-0.9890493154525757],"translation":[274.5678405761719,0.0,44.64701461791992]},{"name":"3DGeom-11","mesh":10,"rotation":[0.0,0.0,0.0,-1.0]},{"children":[27],"rotation":[0.0,-0.14758539199829102,0.0,-0.9890493154525757],"translation":[411.8469543457031,0.0,1.16775381565094]},{"name":"3DGeom-12","mesh":11,"rotation":[0.0,0.0,0.0,-1.0]}],"scene":0,"scenes":[{"nodes":[0]}]}