{"accessors":[{"bufferView":0,"componentType":5125,"count":7980,"max":[6635.0],"min":[0.0],"type":"SCALAR"},{"bufferView":1,"componentType":5126,"count":6636,"max":[48.010353088378909,1.3752243518829346,95.97676849365235],"min":[0.0,0.0,0.0],"type":"VEC3"},{"bufferView":2,"componentType":5126,"count":6636,"max":[1.0,1.0,1.0],"min":[-1.0,-1.0,-1.0],"type":"VEC3"},{"bufferView":3,"componentType":5125,"count":6,"max":[3.0],"min":[0.0],"type":"SCALAR"},{"bufferView":4,"componentType":5126,"count":4,"max":[41.062164306640628,0.8525000214576721,87.31141662597656],"min":[6.9314961433410648,0.8525000214576721,53.18070983886719],"type":"VEC3"},{"bufferView":5,"componentType":5126,"count":4,"max":[0.0,1.0,0.0],"min":[0.0,1.0,0.0],"type":"VEC3"},{"bufferView":6,"componentType":5125,"count":6,"max":[3.0],"min":[0.0],"type":"SCALAR"},{"bufferView":7,"componentType":5126,"count":4,"max":[41.062164306640628,0.5227243900299072,87.31141662597656],"min":[6.9314961433410648,0.5227243900299072,53.18070983886719],"type":"VEC3"},{"bufferView":8,"componentType":5126,"count":4,"max":[0.0,-1.0,0.0],"min":[0.0,-1.0,0.0],"type":"VEC3"},{"bufferView":9,"componentType":5125,"count":12,"max":[7.0],"min":[0.0],"type":"SCALAR"},{"bufferView":10,"componentType":5126,"count":8,"max":[48.010353088378909,1.2504980564117432,95.97676849365235],"min":[0.0,0.12511810660362245,0.0],"type":"VEC3"},{"bufferView":11,"componentType":5126,"count":8,"max":[0.0,0.0,1.0],"min":[-0.000008200330739782657,-8.1871710691664149e-22,-1.0],"type":"VEC3"}],"asset":{"generator":"SimLab GLTF","version":"2.0"},"bufferViews":[{"buffer":0,"byteLength":31920,"target":34963},{"buffer":0,"byteLength":79632,"byteOffset":31920,"byteStride":12,"target":34962},{"buffer":0,"byteLength":79632,"byteOffset":111552,"byteStride":12,"target":34962},{"buffer":0,"byteLength":24,"byteOffset":191184,"target":34963},{"buffer":0,"byteLength":48,"byteOffset":191208,"byteStride":12,"target":34962},{"buffer":0,"byteLength":48,"byteOffset":191256,"byteStride":12,"target":34962},{"buffer":0,"byteLength":24,"byteOffset":191304,"target":34963},{"buffer":0,"byteLength":48,"byteOffset":191328,"byteStride":12,"target":34962},{"buffer":0,"byteLength":48,"byteOffset":191376,"byteStride":12,"target":34962},{"buffer":0,"byteLength":48,"byteOffset":191424,"target":34963},{"buffer":0,"byteLength":96,"byteOffset":191472,"byteStride":12,"target":34962},{"buffer":0,"byteLength":96,"byteOffset":191568,"byteStride":12,"target":34962}],"buffers":[{"byteLength":191664,"uri":"door_windowed.bin"}],"extensionsUsed":["KHR_materials_pbrSpecularGlossiness"],"materials":[{"extensions":{"KHR_materials_pbrSpecularGlossiness":{"diffuseFactor":[1.0,1.0,1.0,1.0],"specularFactor":[0.5,0.5,0.5],"glossinessFactor":0.5}},"name":"[auto]","alphaMode":"MASK","doubleSided":true,"pbrMetallicRoughness":{"metallicFactor":0.5,"roughnessFactor":0.5}},{"extensions":{"KHR_materials_pbrSpecularGlossiness":{"diffuseFactor":[0.0,0.7215686440467835,1.0,0.09803921729326248],"specularFactor":[0.0,0.3607843220233917,0.5],"glossinessFactor":0.5}},"name":"Helen_Boots","alphaCutoff":0.10000000149011612,"alphaMode":"BLEND","doubleSided":true,"pbrMetallicRoughness":{"baseColorFactor":[0.0,0.7215686440467835,1.0,0.10000000149011612],"metallicFactor":0.5,"roughnessFactor":0.5}},{"extensions":{"KHR_materials_pbrSpecularGlossiness":{"diffuseFactor":[0.6666666865348816,0.8392156958580017,0.929411768913269,0.20000000298023225],"specularFactor":[0.3333333432674408,0.41960784792900088,0.4647058844566345],"glossinessFactor":0.5}},"name":"[Translucent Glass Blue]","alphaCutoff":0.20000000298023225,"alphaMode":"BLEND","doubleSided":true,"pbrMetallicRoughness":{"baseColorFactor":[0.6666666865348816,0.8392156958580017,0.929411768913269,0.20000000298023225],"metallicFactor":0.5,"roughnessFactor":0.5}},{"extensions":{"KHR_materials_pbrSpecularGlossiness":{"diffuseFactor":[0.8999999761581421,0.8999999761581421,0.8999999761581421,1.0],"specularFactor":[0.25,0.25,0.25],"glossinessFactor":0.5}},"name":"DefaultMaterial~1","alphaMode":"MASK","doubleSided":true,"pbrMetallicRoughness":{"baseColorFactor":[0.8999999761581421,0.8999999761581421,0.8999999761581421,1.0],"metallicFactor":0.5,"roughnessFactor":0.5}}],"meshes":[{"primitives":[{"attributes":{"NORMAL":2,"POSITION":1},"indices":0,"material":0,"mode":4}]},{"primitives":[{"attributes":{"NORMAL":5,"POSITION":4},"indices":3,"material":1,"mode":4}]},{"primitives":[{"attributes":{"NORMAL":8,"POSITION":7},"indices":6,"material":2,"mode":4}]},{"primitives":[{"attributes":{"NORMAL":11,"POSITION":10},"indices":9,"material":3,"mode":4}]}],"nodes":[{"children":[1,2],"matrix":[1.0,0.0,0.0,0.0,0.0,4.4896593387466768e-11,-1.0,0.0,0.0,1.0,4.4896593387466768e-11,0.0,0.0,0.0,0.0,1.0]},{"name":"Camera-2","rotation":[-0.7071067690849304,0.0,0.0,-0.7071067690849304],"translation":[0.6097314953804016,-9.733774185180664,1.218904972076416]},{"name":"Assembly-2","children":[3],"rotation":[0.0,0.0,0.0,-1.0],"scale":[0.02539999969303608,0.02539999969303608,0.02539999969303608]},{"children":[4,5,6,7],"rotation":[0.0,0.0,0.0,-1.0]},{"name":"3DGeom-1","mesh":0,"rotation":[0.0,0.0,0.0,-1.0]},{"name":"3DGeom-2","mesh":1,"rotation":[0.0,0.0,0.0,-1.0]},{"name":"3DGeom-3","mesh":2,"rotation":[0.0,0.0,0.0,-1.0]},{"name":"3DGeom-4","mesh":3,"rotation":[0.0,0.0,0.0,-1.0]}],"scene":0,"scenes":[{"nodes":[0]}]}