{"accessors":[{"bufferView":0,"componentType":5125,"count":6,"max":[3.0],"min":[0.0],"type":"SCALAR"},{"bufferView":1,"componentType":5126,"count":4,"max":[7.416666507720947,0.0,2.25],"min":[6.666666507720947,0.0,1.5],"type":"VEC3"},{"bufferView":2,"componentType":5126,"count":4,"max":[0.0,-1.0,-0.0],"min":[0.0,-1.0,-0.0],"type":"VEC3"},{"bufferView":3,"componentType":5125,"count":6,"max":[3.0],"min":[0.0],"type":"SCALAR"},{"bufferView":4,"componentType":5126,"count":4,"max":[2.4166667461395265,0.0,2.25],"min":[1.6666666269302369,0.0,1.5],"type":"VEC3"},{"bufferView":5,"componentType":5126,"count":4,"max":[0.0,-1.0,-0.0],"min":[0.0,-1.0,-0.0],"type":"VEC3"},{"bufferView":6,"componentType":5125,"count":6,"max":[3.0],"min":[0.0],"type":"SCALAR"},{"bufferView":7,"componentType":5126,"count":4,"max":[2.4166667461395265,0.0,0.75],"min":[1.6666666269302369,0.0,0.0],"type":"VEC3"},{"bufferView":8,"componentType":5126,"count":4,"max":[0.0,-1.0,-0.0],"min":[0.0,-1.0,-0.0],"type":"VEC3"},{"bufferView":9,"componentType":5125,"count":6,"max":[3.0],"min":[0.0],"type":"SCALAR"},{"bufferView":10,"componentType":5126,"count":4,"max":[9.083333015441895,0.0,2.25],"min":[8.333333015441895,0.0,1.5],"type":"VEC3"},{"bufferView":11,"componentType":5126,"count":4,"max":[0.0,-1.0,-0.0],"min":[0.0,-1.0,-0.0],"type":"VEC3"},{"bufferView":12,"componentType":5125,"count":6,"max":[3.0],"min":[0.0],"type":"SCALAR"},{"bufferView":13,"componentType":5126,"count":4,"max":[10.75,0.0,2.25],"min":[10.0,0.0,1.5],"type":"VEC3"},{"bufferView":14,"componentType":5126,"count":4,"max":[0.0,-1.0,-0.0],"min":[0.0,-1.0,-0.0],"type":"VEC3"},{"bufferView":15,"componentType":5125,"count":6,"max":[3.0],"min":[0.0],"type":"SCALAR"},{"bufferView":16,"componentType":5126,"count":4,"max":[4.083333492279053,1.734723475976807e-18,2.25],"min":[3.3333332538604738,0.0,1.5],"type":"VEC3"},{"bufferView":17,"componentType":5126,"count":4,"max":[0.0,-1.0,-0.0],"min":[0.0,-1.0,-0.0],"type":"VEC3"},{"bufferView":18,"componentType":5125,"count":6,"max":[3.0],"min":[0.0],"type":"SCALAR"},{"bufferView":19,"componentType":5126,"count":4,"max":[0.75,0.0,2.25],"min":[0.0,0.0,1.5],"type":"VEC3"},{"bufferView":20,"componentType":5126,"count":4,"max":[0.0,-1.0,-0.0],"min":[0.0,-1.0,-0.0],"type":"VEC3"},{"bufferView":21,"componentType":5125,"count":6,"max":[3.0],"min":[0.0],"type":"SCALAR"},{"bufferView":22,"componentType":5126,"count":4,"max":[5.75,0.0,2.25],"min":[5.0,0.0,1.5],"type":"VEC3"},{"bufferView":23,"componentType":5126,"count":4,"max":[0.0,-1.0,-0.0],"min":[0.0,-1.0,-0.0],"type":"VEC3"},{"bufferView":24,"componentType":5125,"count":6,"max":[3.0],"min":[0.0],"type":"SCALAR"},{"bufferView":25,"componentType":5126,"count":4,"max":[0.75,0.0,0.75],"min":[0.0,0.0,0.0],"type":"VEC3"},{"bufferView":26,"componentType":5126,"count":4,"max":[0.0,-1.0,-0.0],"min":[0.0,-1.0,-0.0],"type":"VEC3"},{"bufferView":27,"componentType":5125,"count":6,"max":[3.0],"min":[0.0],"type":"SCALAR"},{"bufferView":28,"componentType":5126,"count":4,"max":[4.083333492279053,1.734723475976807e-18,0.75],"min":[3.3333332538604738,0.0,0.0],"type":"VEC3"},{"bufferView":29,"componentType":5126,"count":4,"max":[0.0,-1.0,-0.0],"min":[0.0,-1.0,-0.0],"type":"VEC3"},{"bufferView":30,"componentType":5125,"count":1065,"max":[538.0],"min":[0.0],"type":"SCALAR"},{"bufferView":31,"componentType":5126,"count":539,"max":[76.05828094482422,5.004392623901367,87.0],"min":[-4.263256414560601e-14,-1.25,-1.0977885267493548e-12],"type":"VEC3"},{"bufferView":32,"componentType":5126,"count":539,"max":[1.0,1.0,1.0],"min":[-1.0,-1.0,-1.0],"type":"VEC3"},{"bufferView":33,"componentType":5125,"count":36,"max":[19.0],"min":[0.0],"type":"SCALAR"},{"bufferView":34,"componentType":5126,"count":20,"max":[69.37321472167969,3.8994524478912355,80.95882415771485],"min":[6.597710609436035,0.4568134546279907,10.078405380249024],"type":"VEC3"},{"bufferView":35,"componentType":5126,"count":20,"max":[1.490159284855963e-8,1.0,1.0906402734059406e-12],"min":[-1.490159284855963e-8,-1.0,-1.090534455273906e-12],"type":"VEC3"}],"asset":{"generator":"SimLab GLTF","version":"2.0"},"bufferViews":[{"buffer":0,"byteLength":24,"target":34963},{"buffer":0,"byteLength":48,"byteOffset":24,"byteStride":12,"target":34962},{"buffer":0,"byteLength":48,"byteOffset":72,"byteStride":12,"target":34962},{"buffer":0,"byteLength":24,"byteOffset":120,"target":34963},{"buffer":0,"byteLength":48,"byteOffset":144,"byteStride":12,"target":34962},{"buffer":0,"byteLength":48,"byteOffset":192,"byteStride":12,"target":34962},{"buffer":0,"byteLength":24,"byteOffset":240,"target":34963},{"buffer":0,"byteLength":48,"byteOffset":264,"byteStride":12,"target":34962},{"buffer":0,"byteLength":48,"byteOffset":312,"byteStride":12,"target":34962},{"buffer":0,"byteLength":24,"byteOffset":360,"target":34963},{"buffer":0,"byteLength":48,"byteOffset":384,"byteStride":12,"target":34962},{"buffer":0,"byteLength":48,"byteOffset":432,"byteStride":12,"target":34962},{"buffer":0,"byteLength":24,"byteOffset":480,"target":34963},{"buffer":0,"byteLength":48,"byteOffset":504,"byteStride":12,"target":34962},{"buffer":0,"byteLength":48,"byteOffset":552,"byteStride":12,"target":34962},{"buffer":0,"byteLength":24,"byteOffset":600,"target":34963},{"buffer":0,"byteLength":48,"byteOffset":624,"byteStride":12,"target":34962},{"buffer":0,"byteLength":48,"byteOffset":672,"byteStride":12,"target":34962},{"buffer":0,"byteLength":24,"byteOffset":720,"target":34963},{"buffer":0,"byteLength":48,"byteOffset":744,"byteStride":12,"target":34962},{"buffer":0,"byteLength":48,"byteOffset":792,"byteStride":12,"target":34962},{"buffer":0,"byteLength":24,"byteOffset":840,"target":34963},{"buffer":0,"byteLength":48,"byteOffset":864,"byteStride":12,"target":34962},{"buffer":0,"byteLength":48,"byteOffset":912,"byteStride":12,"target":34962},{"buffer":0,"byteLength":24,"byteOffset":960,"target":34963},{"buffer":0,"byteLength":48,"byteOffset":984,"byteStride":12,"target":34962},{"buffer":0,"byteLength":48,"byteOffset":1032,"byteStride":12,"target":34962},{"buffer":0,"byteLength":24,"byteOffset":1080,"target":34963},{"buffer":0,"byteLength":48,"byteOffset":1104,"byteStride":12,"target":34962},{"buffer":0,"byteLength":48,"byteOffset":1152,"byteStride":12,"target":34962},{"buffer":0,"byteLength":4260,"byteOffset":1200,"target":34963},{"buffer":0,"byteLength":6468,"byteOffset":5460,"byteStride":12,"target":34962},{"buffer":0,"byteLength":6468,"byteOffset":11928,"byteStride":12,"target":34962},{"buffer":0,"byteLength":144,"byteOffset":18396,"target":34963},{"buffer":0,"byteLength":240,"byteOffset":18540,"byteStride":12,"target":34962},{"buffer":0,"byteLength":240,"byteOffset":18780,"byteStride":12,"target":34962}],"buffers":[{"byteLength":19020,"uri":"2_windows.bin"}],"extensionsUsed":["KHR_materials_pbrSpecularGlossiness"],"materials":[{"extensions":{"KHR_materials_pbrSpecularGlossiness":{"diffuseFactor":[0.0,0.0,0.0,1.0],"specularFactor":[0.0,0.0,0.0],"glossinessFactor":0.5}},"name":"Black","alphaMode":"MASK","doubleSided":true,"pbrMetallicRoughness":{"baseColorFactor":[0.0,0.0,0.0,1.0],"metallicFactor":0.5}},{"extensions":{"KHR_materials_pbrSpecularGlossiness":{"diffuseFactor":[0.6274510025978088,0.5843137502670288,0.5137255191802979,1.0],"specularFactor":[0.3137255012989044,0.2921568751335144,0.2568627595901489],"glossinessFactor":0.5}},"name":"Putty","alphaMode":"MASK","doubleSided":true,"pbrMetallicRoughness":{"baseColorFactor":[0.6274510025978088,0.5843137502670288,0.5137255191802979,1.0],"metallicFactor":0.5,"roughnessFactor":0.5}},{"extensions":{"KHR_materials_pbrSpecularGlossiness":{"diffuseFactor":[0.3137255012989044,0.2666666805744171,0.1921568661928177,1.0],"specularFactor":[0.1568627506494522,0.13333334028720857,0.09607843309640885],"glossinessFactor":0.5}},"name":"Brown","alphaMode":"MASK","doubleSided":true,"pbrMetallicRoughness":{"baseColorFactor":[0.3137255012989044,0.2666666805744171,0.1921568661928177,1.0],"metallicFactor":0.5,"roughnessFactor":0.5}},{"extensions":{"KHR_materials_pbrSpecularGlossiness":{"diffuseFactor":[0.47843137383461,0.054901961237192157,0.0,1.0],"specularFactor":[0.239215686917305,0.027450980618596078,0.0],"glossinessFactor":0.5}},"name":"Red","alphaMode":"MASK","doubleSided":true,"pbrMetallicRoughness":{"baseColorFactor":[0.47843137383461,0.054901961237192157,0.0,1.0],"metallicFactor":0.5,"roughnessFactor":0.5}},{"extensions":{"KHR_materials_pbrSpecularGlossiness":{"diffuseFactor":[0.0,0.250980406999588,0.1725490242242813,1.0],"specularFactor":[0.0,0.125490203499794,0.08627451211214066],"glossinessFactor":0.5}},"name":"Hartford Green","alphaMode":"MASK","doubleSided":true,"pbrMetallicRoughness":{"baseColorFactor":[0.0,0.250980406999588,0.1725490242242813,1.0],"metallicFactor":0.5,"roughnessFactor":0.5}},{"extensions":{"KHR_materials_pbrSpecularGlossiness":{"diffuseFactor":[0.9764705896377564,0.9333333373069763,0.843137264251709,1.0],"specularFactor":[0.4882352948188782,0.46666666865348818,0.4215686321258545],"glossinessFactor":0.5}},"name":"Poplar White","alphaMode":"MASK","doubleSided":true,"pbrMetallicRoughness":{"baseColorFactor":[0.9764705896377564,0.9333333373069763,0.843137264251709,1.0],"metallicFactor":0.5,"roughnessFactor":0.5}},{"extensions":{"KHR_materials_pbrSpecularGlossiness":{"diffuseFactor":[0.3529411852359772,0.46666666865348818,0.41960784792900088,1.0],"specularFactor":[0.1764705926179886,0.23333333432674409,0.20980392396450044],"glossinessFactor":0.5}},"name":"Hemlock","alphaMode":"MASK","doubleSided":true,"pbrMetallicRoughness":{"baseColorFactor":[0.3529411852359772,0.46666666865348818,0.41960784792900088,1.0],"metallicFactor":0.5,"roughnessFactor":0.5}},{"extensions":{"KHR_materials_pbrSpecularGlossiness":{"diffuseFactor":[0.8039215803146362,0.8078431487083435,0.8156862854957581,1.0],"specularFactor":[0.4019607901573181,0.40392157435417178,0.40784314274787905],"glossinessFactor":0.5}},"name":"Morning Sky Gray","alphaMode":"MASK","doubleSided":true,"pbrMetallicRoughness":{"baseColorFactor":[0.8039215803146362,0.8078431487083435,0.8156862854957581,1.0],"metallicFactor":0.5,"roughnessFactor":0.5}},{"extensions":{"KHR_materials_pbrSpecularGlossiness":{"diffuseFactor":[0.7843137383460999,0.729411780834198,0.6431372761726379,1.0],"specularFactor":[0.3921568691730499,0.364705890417099,0.32156863808631899],"glossinessFactor":0.5}},"name":"Tan","alphaMode":"MASK","doubleSided":true,"pbrMetallicRoughness":{"baseColorFactor":[0.7843137383460999,0.729411780834198,0.6431372761726379,1.0],"metallicFactor":0.5,"roughnessFactor":0.5}},{"extensions":{"KHR_materials_pbrSpecularGlossiness":{"diffuseFactor":[0.9490196108818054,0.9529411792755127,0.95686274766922,1.0],"specularFactor":[0.4745098054409027,0.47647058963775637,0.47843137383461],"glossinessFactor":0.5}},"name":"White","alphaMode":"MASK","doubleSided":true,"pbrMetallicRoughness":{"baseColorFactor":[0.9490196108818054,0.9529411792755127,0.95686274766922,1.0],"metallicFactor":0.5,"roughnessFactor":0.5}},{"extensions":{"KHR_materials_pbrSpecularGlossiness":{"diffuseFactor":[1.0,1.0,1.0,1.0],"specularFactor":[0.5,0.5,0.5],"glossinessFactor":0.5}},"name":"Color_000","alphaMode":"MASK","doubleSided":true,"pbrMetallicRoughness":{"metallicFactor":0.5,"roughnessFactor":0.5}},{"extensions":{"KHR_materials_pbrSpecularGlossiness":{"diffuseFactor":[0.3921568691730499,0.5843137502670288,0.929411768913269,0.501960813999176],"specularFactor":[0.19607843458652497,0.2921568751335144,0.4647058844566345],"glossinessFactor":0.5}},"name":"Translucent_Glass_Blue","alphaMode":"BLEND","doubleSided":true,"pbrMetallicRoughness":{"baseColorFactor":[0.3921568691730499,0.5843137502670288,0.929411768913269,0.5],"metallicFactor":0.5,"roughnessFactor":0.5}}],"meshes":[{"primitives":[{"attributes":{"NORMAL":2,"POSITION":1},"indices":0,"material":0,"mode":4}]},{"primitives":[{"attributes":{"NORMAL":5,"POSITION":4},"indices":3,"material":1,"mode":4}]},{"primitives":[{"attributes":{"NORMAL":8,"POSITION":7},"indices":6,"material":2,"mode":4}]},{"primitives":[{"attributes":{"NORMAL":11,"POSITION":10},"indices":9,"material":3,"mode":4}]},{"primitives":[{"attributes":{"NORMAL":14,"POSITION":13},"indices":12,"material":4,"mode":4}]},{"primitives":[{"attributes":{"NORMAL":17,"POSITION":16},"indices":15,"material":5,"mode":4}]},{"primitives":[{"attributes":{"NORMAL":20,"POSITION":19},"indices":18,"material":6,"mode":4}]},{"primitives":[{"attributes":{"NORMAL":23,"POSITION":22},"indices":21,"material":7,"mode":4}]},{"primitives":[{"attributes":{"NORMAL":26,"POSITION":25},"indices":24,"material":8,"mode":4}]},{"primitives":[{"attributes":{"NORMAL":29,"POSITION":28},"indices":27,"material":9,"mode":4}]},{"primitives":[{"attributes":{"NORMAL":32,"POSITION":31},"indices":30,"material":10,"mode":4}]},{"primitives":[{"attributes":{"NORMAL":35,"POSITION":34},"indices":33,"material":11,"mode":4}]}],"nodes":[{"children":[1,2],"matrix":[1.0,0.0,0.0,0.0,0.0,4.4896593387466768e-11,-1.0,0.0,0.0,1.0,4.4896593387466768e-11,0.0,0.0,0.0,0.0,1.0]},{"name":"Camera-2","rotation":[-0.7071067690849304,0.0,0.0,-0.7071067690849304],"translation":[0.9659401774406433,-8.792534828186036,1.1047730445861817]},{"name":"Assembly-2","children":[3,14,15,16],"rotation":[0.0,0.0,0.0,-1.0],"scale":[0.02539999969303608,0.02539999969303608,0.02539999969303608]},{"children":[4,5,6,7,8,9,10,11,12,13],"rotation":[-0.7071067690849304,0.0,0.0,-0.7071067690849304],"translation":[0.45421794056892397,3.1061859130859377,-0.009999999776482582]},{"name":"3DGeom-3","mesh":0,"rotation":[0.0,0.0,0.0,-1.0]},{"name":"3DGeom-4","mesh":1,"rotation":[0.0,0.0,0.0,-1.0]},{"name":"3DGeom-5","mesh":2,"rotation":[0.0,0.0,0.0,-1.0]},{"name":"3DGeom-6","mesh":3,"rotation":[0.0,0.0,0.0,-1.0]},{"name":"3DGeom-7","mesh":4,"rotation":[0.0,0.0,0.0,-1.0]},{"name":"3DGeom-8","mesh":5,"rotation":[0.0,0.0,0.0,-1.0]},{"name":"3DGeom-9","mesh":6,"rotation":[0.0,0.0,0.0,-1.0]},{"name":"3DGeom-10","mesh":7,"rotation":[0.0,0.0,0.0,-1.0]},{"name":"3DGeom-11","mesh":8,"rotation":[0.0,0.0,0.0,-1.0]},{"name":"3DGeom-12","mesh":9,"rotation":[0.0,0.0,0.0,-1.0]},{"name":"3DGeom-1","mesh":10,"rotation":[0.0,0.0,0.0,-1.0]},{"name":"3DGeom-2","mesh":11,"rotation":[0.0,0.0,0.0,-1.0]},{"name":"2DGeom","rotation":[0.0,0.0,0.0,-1.0]}],"scene":0,"scenes":[{"nodes":[0]}]}