{"accessors":[{"bufferView":0,"componentType":5125,"count":72,"max":[47.0],"min":[0.0],"type":"SCALAR"},{"bufferView":1,"componentType":5126,"count":48,"max":[94.48818969726563,74.80314636230469,0.0],"min":[3.9370079040527345,3.0240918761792985e-18,0.0],"type":"VEC3"},{"bufferView":2,"componentType":5126,"count":48,"max":[-1.2622927366514935e-19,-2.2321743867297127e-18,1.0],"min":[-1.02433042615861e-17,-4.224998024798735e-17,1.0],"type":"VEC3"},{"bufferView":3,"componentType":5126,"count":48,"max":[24.507732391357423,1.0],"min":[1.021155595779419,-18.0],"type":"VEC2"},{"bufferView":4,"componentType":5125,"count":138,"max":[61.0],"min":[0.0],"type":"SCALAR"},{"bufferView":5,"componentType":5126,"count":62,"max":[98.4251937866211,78.74015808105469,1.1811023950576783],"min":[0.0,1.135959703518257e-28,0.0],"type":"VEC3"},{"bufferView":6,"componentType":5126,"count":62,"max":[1.0,1.0,1.0],"min":[-1.0,-1.0,-7.362114246875085e-19],"type":"VEC3"}],"asset":{"generator":"SimLab GLTF","version":"2.0"},"bufferViews":[{"buffer":0,"byteLength":288,"target":34963},{"buffer":0,"byteLength":576,"byteOffset":288,"byteStride":12,"target":34962},{"buffer":0,"byteLength":576,"byteOffset":864,"byteStride":12,"target":34962},{"buffer":0,"byteLength":384,"byteOffset":1440,"byteStride":8,"target":34962},{"buffer":0,"byteLength":552,"byteOffset":1824,"target":34963},{"buffer":0,"byteLength":744,"byteOffset":2376,"byteStride":12,"target":34962},{"buffer":0,"byteLength":744,"byteOffset":3120,"byteStride":12,"target":34962}],"buffers":[{"byteLength":3864,"uri":"full_gate.bin"}],"extensionsUsed":["KHR_materials_pbrSpecularGlossiness"],"images":[{"mimeType":"image/png","uri":"Textures/plain_hail_texture.png"}],"materials":[{"extensions":{"KHR_materials_pbrSpecularGlossiness":{"diffuseFactor":[1.0,1.0,1.0,1.0],"diffuseTexture":{"index":0},"specularFactor":[0.5,0.5,0.5],"glossinessFactor":0.5}},"name":"#2","alphaMode":"MASK","doubleSided":true,"pbrMetallicRoughness":{"baseColorTexture":{"index":0},"metallicFactor":0.5,"roughnessFactor":0.5}},{"extensions":{"KHR_materials_pbrSpecularGlossiness":{"diffuseFactor":[0.4470588266849518,0.4470588266849518,0.4470588266849518,1.0],"specularFactor":[0.2235294133424759,0.2235294133424759,0.2235294133424759],"glossinessFactor":0.5}},"name":"[Color_005]","alphaMode":"MASK","doubleSided":true,"pbrMetallicRoughness":{"baseColorFactor":[0.4470588266849518,0.4470588266849518,0.4470588266849518,1.0],"metallicFactor":0.5,"roughnessFactor":0.5}}],"meshes":[{"primitives":[{"attributes":{"NORMAL":2,"POSITION":1,"TEXCOORD_0":3},"indices":0,"material":0,"mode":4}]},{"primitives":[{"attributes":{"NORMAL":6,"POSITION":5},"indices":4,"material":1,"mode":4}]}],"nodes":[{"children":[1,2],"matrix":[1.0,0.0,0.0,0.0,0.0,4.4896593387466768e-11,-1.0,0.0,0.0,1.0,4.4896593387466768e-11,0.0,0.0,0.0,0.0,1.0]},{"name":"Camera-3","rotation":[-0.7071067690849304,0.0,0.0,-0.7071067690849304],"translation":[2.0487821102142336,-4.784999847412109,1.0]},{"name":"Assembly-2","children":[3],"rotation":[0.0,0.0,0.0,-1.0],"scale":[0.009999999776482582,0.009999999776482582,0.009999999776482582]},{"children":[4,5],"matrix":[-2.5399999618530275,-2.6017993403455124e-17,0.0,0.0,1.0984884505838887e-32,-1.0723965449040293e-15,2.5399999618530275,0.0,-2.6017993403455124e-17,2.5399999618530275,1.0723965449040293e-15,0.0,329.8782043457031,520.0,-8.845427848839204e-15,1.0]},{"name":"3DGeom-1","mesh":0,"rotation":[0.0,0.0,0.0,-1.0]},{"name":"3DGeom-2","mesh":1,"rotation":[0.0,0.0,0.0,-1.0]}],"scene":0,"scenes":[{"nodes":[0]}],"textures":[{"source":0}]}