{"accessors":[{"bufferView":0,"componentType":5125,"count":531,"max":[323.0],"min":[0.0],"type":"SCALAR"},{"bufferView":1,"componentType":5126,"count":324,"max":[22.009899139404298,46.0098991394043,7.24983549118042],"min":[0.9276000261306763,0.9276000261306763,3.0868000984191896],"type":"VEC3"},{"bufferView":2,"componentType":5126,"count":324,"max":[0.941078782081604,0.941078782081604,1.0],"min":[-0.941078782081604,-0.941078782081604,0.3381873369216919],"type":"VEC3"},{"bufferView":3,"componentType":5125,"count":270,"max":[121.0],"min":[0.0],"type":"SCALAR"},{"bufferView":4,"componentType":5126,"count":122,"max":[23.46430015563965,47.464298248291019,3.130199909210205],"min":[-0.5267999768257141,-0.5267999768257141,-1.7763568394002506e-15],"type":"VEC3"},{"bufferView":5,"componentType":5126,"count":122,"max":[1.0,1.0,1.0],"min":[-1.0,-1.0,-1.0],"type":"VEC3"}],"asset":{"generator":"SimLab GLTF","version":"2.0"},"bufferViews":[{"buffer":0,"byteLength":2124,"target":34963},{"buffer":0,"byteLength":3888,"byteOffset":2124,"byteStride":12,"target":34962},{"buffer":0,"byteLength":3888,"byteOffset":6012,"byteStride":12,"target":34962},{"buffer":0,"byteLength":1080,"byteOffset":9900,"target":34963},{"buffer":0,"byteLength":1464,"byteOffset":10980,"byteStride":12,"target":34962},{"buffer":0,"byteLength":1464,"byteOffset":12444,"byteStride":12,"target":34962}],"buffers":[{"byteLength":13908,"uri":"roof1_swietlik.bin"}],"extensionsUsed":["KHR_materials_pbrSpecularGlossiness"],"materials":[{"extensions":{"KHR_materials_pbrSpecularGlossiness":{"diffuseFactor":[0.501960813999176,0.501960813999176,0.501960813999176,0.8980392217636108],"specularFactor":[0.250980406999588,0.250980406999588,0.250980406999588],"glossinessFactor":0.5}},"name":"[Translucent_Glass_Gray]","alphaCutoff":0.8999999761581421,"alphaMode":"BLEND","doubleSided":true,"pbrMetallicRoughness":{"baseColorFactor":[0.501960813999176,0.501960813999176,0.501960813999176,0.8999999761581421],"metallicFactor":0.5,"roughnessFactor":0.5}},{"extensions":{"KHR_materials_pbrSpecularGlossiness":{"diffuseFactor":[0.8999999761581421,0.8999999761581421,0.8999999761581421,1.0],"specularFactor":[0.25,0.25,0.25],"glossinessFactor":0.5}},"name":"DefaultMaterial~1","alphaMode":"MASK","doubleSided":true,"pbrMetallicRoughness":{"baseColorFactor":[0.8999999761581421,0.8999999761581421,0.8999999761581421,1.0],"metallicFactor":0.5,"roughnessFactor":0.5}}],"meshes":[{"primitives":[{"attributes":{"NORMAL":2,"POSITION":1},"indices":0,"material":0,"mode":4}]},{"primitives":[{"attributes":{"NORMAL":5,"POSITION":4},"indices":3,"material":1,"mode":4}]}],"nodes":[{"children":[1,2],"matrix":[1.0,0.0,0.0,0.0,0.0,4.4896593387466768e-11,-1.0,0.0,0.0,1.0,4.4896593387466768e-11,0.0,0.0,0.0,0.0,1.0]},{"name":"Camera-3","rotation":[-0.7071067690849304,0.0,0.0,-0.7071067690849304],"translation":[1.1515122652053834,-13.730742454528809,0.4735552668571472]},{"name":"Assembly-2","children":[3,6],"rotation":[0.0,0.0,0.0,-1.0],"scale":[0.02539999969303608,0.02539999969303608,0.02539999969303608]},{"children":[4,5],"rotation":[-0.3826834261417389,0.0,0.0,-0.9238795042037964],"translation":[0.0,7.105427357601002e-15,3.552713678800501e-15]},{"name":"3DGeom-1","mesh":0,"rotation":[0.0,0.0,0.0,-1.0]},{"name":"3DGeom-2","mesh":1,"rotation":[0.0,0.0,0.0,-1.0]},{"name":"2DGeom","rotation":[0.0,0.0,0.0,-1.0]}],"scene":0,"scenes":[{"nodes":[0]}]}